<?xml version="1.0" encoding="utf-8" standalone="no"?>
<!DOCTYPE svg PUBLIC "-//W3C//DTD SVG 1.1//EN"
  "http://www.w3.org/Graphics/SVG/1.1/DTD/svg11.dtd">
<svg height="270.5425pt" version="1.1" viewBox="0 0 385.83625 270.5425" width="385.83625pt" xmlns="http://www.w3.org/2000/svg" xmlns:xlink="http://www.w3.org/1999/xlink">
 <metadata>
  <rdf:RDF xmlns:cc="http://creativecommons.org/ns#" xmlns:dc="http://purl.org/dc/elements/1.1/" xmlns:rdf="http://www.w3.org/1999/02/22-rdf-syntax-ns#">
   <cc:Work>
    <dc:type rdf:resource="http://purl.org/dc/dcmitype/StillImage"/>
    <dc:date>2022-01-09T00:55:31.669381</dc:date>
    <dc:format>image/svg+xml</dc:format>
    <dc:creator>
     <cc:Agent>
      <dc:title>Matplotlib v3.4.2, https://matplotlib.org/</dc:title>
     </cc:Agent>
    </dc:creator>
   </cc:Work>
  </rdf:RDF>
 </metadata>
 <defs>
  <style type="text/css">*{stroke-linecap:butt;stroke-linejoin:round;}</style>
 </defs>
 <g id="figure_1">
  <g id="patch_1">
   <path d="M 0 270.5425 
L 385.83625 270.5425 
L 385.83625 0 
L 0 0 
z
" style="fill:#ffffff;"/>
  </g>
  <g id="axes_1">
   <g id="patch_2">
    <path d="M 43.83625 224.64 
L 378.63625 224.64 
L 378.63625 7.2 
L 43.83625 7.2 
z
" style="fill:#ffffff;"/>
   </g>
   <g id="matplotlib.axis_1">
    <g id="xtick_1">
     <g id="line2d_1">
      <defs>
       <path d="M 0 0 
L 0 4.8 
" id="md4726fb6bc" style="stroke:#262626;"/>
      </defs>
      <g>
       <use style="fill:#262626;stroke:#262626;" x="59.054432" xlink:href="#md4726fb6bc" y="224.64"/>
      </g>
     </g>
     <g id="text_1">
      <!-- MCTs01 -->
      <g style="fill:#262626;" transform="translate(61.261932 263.3425)rotate(-90)scale(0.08 -0.08)">
       <defs>
        <path d="M 628 4666 
L 1569 4666 
L 2759 1491 
L 3956 4666 
L 4897 4666 
L 4897 0 
L 4281 0 
L 4281 4097 
L 3078 897 
L 2444 897 
L 1241 4097 
L 1241 0 
L 628 0 
L 628 4666 
z
" id="DejaVuSans-4d" transform="scale(0.015625)"/>
        <path d="M 4122 4306 
L 4122 3641 
Q 3803 3938 3442 4084 
Q 3081 4231 2675 4231 
Q 1875 4231 1450 3742 
Q 1025 3253 1025 2328 
Q 1025 1406 1450 917 
Q 1875 428 2675 428 
Q 3081 428 3442 575 
Q 3803 722 4122 1019 
L 4122 359 
Q 3791 134 3420 21 
Q 3050 -91 2638 -91 
Q 1578 -91 968 557 
Q 359 1206 359 2328 
Q 359 3453 968 4101 
Q 1578 4750 2638 4750 
Q 3056 4750 3426 4639 
Q 3797 4528 4122 4306 
z
" id="DejaVuSans-43" transform="scale(0.015625)"/>
        <path d="M -19 4666 
L 3928 4666 
L 3928 4134 
L 2272 4134 
L 2272 0 
L 1638 0 
L 1638 4134 
L -19 4134 
L -19 4666 
z
" id="DejaVuSans-54" transform="scale(0.015625)"/>
        <path d="M 2834 3397 
L 2834 2853 
Q 2591 2978 2328 3040 
Q 2066 3103 1784 3103 
Q 1356 3103 1142 2972 
Q 928 2841 928 2578 
Q 928 2378 1081 2264 
Q 1234 2150 1697 2047 
L 1894 2003 
Q 2506 1872 2764 1633 
Q 3022 1394 3022 966 
Q 3022 478 2636 193 
Q 2250 -91 1575 -91 
Q 1294 -91 989 -36 
Q 684 19 347 128 
L 347 722 
Q 666 556 975 473 
Q 1284 391 1588 391 
Q 1994 391 2212 530 
Q 2431 669 2431 922 
Q 2431 1156 2273 1281 
Q 2116 1406 1581 1522 
L 1381 1569 
Q 847 1681 609 1914 
Q 372 2147 372 2553 
Q 372 3047 722 3315 
Q 1072 3584 1716 3584 
Q 2034 3584 2315 3537 
Q 2597 3491 2834 3397 
z
" id="DejaVuSans-73" transform="scale(0.015625)"/>
        <path d="M 2034 4250 
Q 1547 4250 1301 3770 
Q 1056 3291 1056 2328 
Q 1056 1369 1301 889 
Q 1547 409 2034 409 
Q 2525 409 2770 889 
Q 3016 1369 3016 2328 
Q 3016 3291 2770 3770 
Q 2525 4250 2034 4250 
z
M 2034 4750 
Q 2819 4750 3233 4129 
Q 3647 3509 3647 2328 
Q 3647 1150 3233 529 
Q 2819 -91 2034 -91 
Q 1250 -91 836 529 
Q 422 1150 422 2328 
Q 422 3509 836 4129 
Q 1250 4750 2034 4750 
z
" id="DejaVuSans-30" transform="scale(0.015625)"/>
        <path d="M 794 531 
L 1825 531 
L 1825 4091 
L 703 3866 
L 703 4441 
L 1819 4666 
L 2450 4666 
L 2450 531 
L 3481 531 
L 3481 0 
L 794 0 
L 794 531 
z
" id="DejaVuSans-31" transform="scale(0.015625)"/>
       </defs>
       <use xlink:href="#DejaVuSans-4d"/>
       <use x="86.279297" xlink:href="#DejaVuSans-43"/>
       <use x="156.103516" xlink:href="#DejaVuSans-54"/>
       <use x="200.6875" xlink:href="#DejaVuSans-73"/>
       <use x="252.787109" xlink:href="#DejaVuSans-30"/>
       <use x="316.410156" xlink:href="#DejaVuSans-31"/>
      </g>
     </g>
    </g>
    <g id="xtick_2">
     <g id="line2d_2">
      <g>
       <use style="fill:#262626;stroke:#262626;" x="68.006303" xlink:href="#md4726fb6bc" y="224.64"/>
      </g>
     </g>
     <g id="text_2">
      <!-- MCTs02 -->
      <g style="fill:#262626;" transform="translate(70.213803 263.3425)rotate(-90)scale(0.08 -0.08)">
       <defs>
        <path d="M 1228 531 
L 3431 531 
L 3431 0 
L 469 0 
L 469 531 
Q 828 903 1448 1529 
Q 2069 2156 2228 2338 
Q 2531 2678 2651 2914 
Q 2772 3150 2772 3378 
Q 2772 3750 2511 3984 
Q 2250 4219 1831 4219 
Q 1534 4219 1204 4116 
Q 875 4013 500 3803 
L 500 4441 
Q 881 4594 1212 4672 
Q 1544 4750 1819 4750 
Q 2544 4750 2975 4387 
Q 3406 4025 3406 3419 
Q 3406 3131 3298 2873 
Q 3191 2616 2906 2266 
Q 2828 2175 2409 1742 
Q 1991 1309 1228 531 
z
" id="DejaVuSans-32" transform="scale(0.015625)"/>
       </defs>
       <use xlink:href="#DejaVuSans-4d"/>
       <use x="86.279297" xlink:href="#DejaVuSans-43"/>
       <use x="156.103516" xlink:href="#DejaVuSans-54"/>
       <use x="200.6875" xlink:href="#DejaVuSans-73"/>
       <use x="252.787109" xlink:href="#DejaVuSans-30"/>
       <use x="316.410156" xlink:href="#DejaVuSans-32"/>
      </g>
     </g>
    </g>
    <g id="xtick_3">
     <g id="line2d_3">
      <g>
       <use style="fill:#262626;stroke:#262626;" x="76.958175" xlink:href="#md4726fb6bc" y="224.64"/>
      </g>
     </g>
     <g id="text_3">
      <!-- MCTs03 -->
      <g style="fill:#262626;" transform="translate(79.165675 263.3425)rotate(-90)scale(0.08 -0.08)">
       <defs>
        <path d="M 2597 2516 
Q 3050 2419 3304 2112 
Q 3559 1806 3559 1356 
Q 3559 666 3084 287 
Q 2609 -91 1734 -91 
Q 1441 -91 1130 -33 
Q 819 25 488 141 
L 488 750 
Q 750 597 1062 519 
Q 1375 441 1716 441 
Q 2309 441 2620 675 
Q 2931 909 2931 1356 
Q 2931 1769 2642 2001 
Q 2353 2234 1838 2234 
L 1294 2234 
L 1294 2753 
L 1863 2753 
Q 2328 2753 2575 2939 
Q 2822 3125 2822 3475 
Q 2822 3834 2567 4026 
Q 2313 4219 1838 4219 
Q 1578 4219 1281 4162 
Q 984 4106 628 3988 
L 628 4550 
Q 988 4650 1302 4700 
Q 1616 4750 1894 4750 
Q 2613 4750 3031 4423 
Q 3450 4097 3450 3541 
Q 3450 3153 3228 2886 
Q 3006 2619 2597 2516 
z
" id="DejaVuSans-33" transform="scale(0.015625)"/>
       </defs>
       <use xlink:href="#DejaVuSans-4d"/>
       <use x="86.279297" xlink:href="#DejaVuSans-43"/>
       <use x="156.103516" xlink:href="#DejaVuSans-54"/>
       <use x="200.6875" xlink:href="#DejaVuSans-73"/>
       <use x="252.787109" xlink:href="#DejaVuSans-30"/>
       <use x="316.410156" xlink:href="#DejaVuSans-33"/>
      </g>
     </g>
    </g>
    <g id="xtick_4">
     <g id="line2d_4">
      <g>
       <use style="fill:#262626;stroke:#262626;" x="85.910047" xlink:href="#md4726fb6bc" y="224.64"/>
      </g>
     </g>
     <g id="text_4">
      <!-- MCTs04 -->
      <g style="fill:#262626;" transform="translate(88.117547 263.3425)rotate(-90)scale(0.08 -0.08)">
       <defs>
        <path d="M 2419 4116 
L 825 1625 
L 2419 1625 
L 2419 4116 
z
M 2253 4666 
L 3047 4666 
L 3047 1625 
L 3713 1625 
L 3713 1100 
L 3047 1100 
L 3047 0 
L 2419 0 
L 2419 1100 
L 313 1100 
L 313 1709 
L 2253 4666 
z
" id="DejaVuSans-34" transform="scale(0.015625)"/>
       </defs>
       <use xlink:href="#DejaVuSans-4d"/>
       <use x="86.279297" xlink:href="#DejaVuSans-43"/>
       <use x="156.103516" xlink:href="#DejaVuSans-54"/>
       <use x="200.6875" xlink:href="#DejaVuSans-73"/>
       <use x="252.787109" xlink:href="#DejaVuSans-30"/>
       <use x="316.410156" xlink:href="#DejaVuSans-34"/>
      </g>
     </g>
    </g>
    <g id="xtick_5">
     <g id="line2d_5">
      <g>
       <use style="fill:#262626;stroke:#262626;" x="94.861918" xlink:href="#md4726fb6bc" y="224.64"/>
      </g>
     </g>
     <g id="text_5">
      <!-- MCTs05 -->
      <g style="fill:#262626;" transform="translate(97.069418 263.3425)rotate(-90)scale(0.08 -0.08)">
       <defs>
        <path d="M 691 4666 
L 3169 4666 
L 3169 4134 
L 1269 4134 
L 1269 2991 
Q 1406 3038 1543 3061 
Q 1681 3084 1819 3084 
Q 2600 3084 3056 2656 
Q 3513 2228 3513 1497 
Q 3513 744 3044 326 
Q 2575 -91 1722 -91 
Q 1428 -91 1123 -41 
Q 819 9 494 109 
L 494 744 
Q 775 591 1075 516 
Q 1375 441 1709 441 
Q 2250 441 2565 725 
Q 2881 1009 2881 1497 
Q 2881 1984 2565 2268 
Q 2250 2553 1709 2553 
Q 1456 2553 1204 2497 
Q 953 2441 691 2322 
L 691 4666 
z
" id="DejaVuSans-35" transform="scale(0.015625)"/>
       </defs>
       <use xlink:href="#DejaVuSans-4d"/>
       <use x="86.279297" xlink:href="#DejaVuSans-43"/>
       <use x="156.103516" xlink:href="#DejaVuSans-54"/>
       <use x="200.6875" xlink:href="#DejaVuSans-73"/>
       <use x="252.787109" xlink:href="#DejaVuSans-30"/>
       <use x="316.410156" xlink:href="#DejaVuSans-35"/>
      </g>
     </g>
    </g>
    <g id="xtick_6">
     <g id="line2d_6">
      <g>
       <use style="fill:#262626;stroke:#262626;" x="103.81379" xlink:href="#md4726fb6bc" y="224.64"/>
      </g>
     </g>
     <g id="text_6">
      <!-- MCTs06 -->
      <g style="fill:#262626;" transform="translate(106.02129 263.3425)rotate(-90)scale(0.08 -0.08)">
       <defs>
        <path d="M 2113 2584 
Q 1688 2584 1439 2293 
Q 1191 2003 1191 1497 
Q 1191 994 1439 701 
Q 1688 409 2113 409 
Q 2538 409 2786 701 
Q 3034 994 3034 1497 
Q 3034 2003 2786 2293 
Q 2538 2584 2113 2584 
z
M 3366 4563 
L 3366 3988 
Q 3128 4100 2886 4159 
Q 2644 4219 2406 4219 
Q 1781 4219 1451 3797 
Q 1122 3375 1075 2522 
Q 1259 2794 1537 2939 
Q 1816 3084 2150 3084 
Q 2853 3084 3261 2657 
Q 3669 2231 3669 1497 
Q 3669 778 3244 343 
Q 2819 -91 2113 -91 
Q 1303 -91 875 529 
Q 447 1150 447 2328 
Q 447 3434 972 4092 
Q 1497 4750 2381 4750 
Q 2619 4750 2861 4703 
Q 3103 4656 3366 4563 
z
" id="DejaVuSans-36" transform="scale(0.015625)"/>
       </defs>
       <use xlink:href="#DejaVuSans-4d"/>
       <use x="86.279297" xlink:href="#DejaVuSans-43"/>
       <use x="156.103516" xlink:href="#DejaVuSans-54"/>
       <use x="200.6875" xlink:href="#DejaVuSans-73"/>
       <use x="252.787109" xlink:href="#DejaVuSans-30"/>
       <use x="316.410156" xlink:href="#DejaVuSans-36"/>
      </g>
     </g>
    </g>
    <g id="xtick_7">
     <g id="line2d_7">
      <g>
       <use style="fill:#262626;stroke:#262626;" x="112.765662" xlink:href="#md4726fb6bc" y="224.64"/>
      </g>
     </g>
     <g id="text_7">
      <!-- MCTs07 -->
      <g style="fill:#262626;" transform="translate(114.973162 263.3425)rotate(-90)scale(0.08 -0.08)">
       <defs>
        <path d="M 525 4666 
L 3525 4666 
L 3525 4397 
L 1831 0 
L 1172 0 
L 2766 4134 
L 525 4134 
L 525 4666 
z
" id="DejaVuSans-37" transform="scale(0.015625)"/>
       </defs>
       <use xlink:href="#DejaVuSans-4d"/>
       <use x="86.279297" xlink:href="#DejaVuSans-43"/>
       <use x="156.103516" xlink:href="#DejaVuSans-54"/>
       <use x="200.6875" xlink:href="#DejaVuSans-73"/>
       <use x="252.787109" xlink:href="#DejaVuSans-30"/>
       <use x="316.410156" xlink:href="#DejaVuSans-37"/>
      </g>
     </g>
    </g>
    <g id="xtick_8">
     <g id="line2d_8">
      <g>
       <use style="fill:#262626;stroke:#262626;" x="121.717533" xlink:href="#md4726fb6bc" y="224.64"/>
      </g>
     </g>
     <g id="text_8">
      <!-- MCTs08 -->
      <g style="fill:#262626;" transform="translate(123.925033 263.3425)rotate(-90)scale(0.08 -0.08)">
       <defs>
        <path d="M 2034 2216 
Q 1584 2216 1326 1975 
Q 1069 1734 1069 1313 
Q 1069 891 1326 650 
Q 1584 409 2034 409 
Q 2484 409 2743 651 
Q 3003 894 3003 1313 
Q 3003 1734 2745 1975 
Q 2488 2216 2034 2216 
z
M 1403 2484 
Q 997 2584 770 2862 
Q 544 3141 544 3541 
Q 544 4100 942 4425 
Q 1341 4750 2034 4750 
Q 2731 4750 3128 4425 
Q 3525 4100 3525 3541 
Q 3525 3141 3298 2862 
Q 3072 2584 2669 2484 
Q 3125 2378 3379 2068 
Q 3634 1759 3634 1313 
Q 3634 634 3220 271 
Q 2806 -91 2034 -91 
Q 1263 -91 848 271 
Q 434 634 434 1313 
Q 434 1759 690 2068 
Q 947 2378 1403 2484 
z
M 1172 3481 
Q 1172 3119 1398 2916 
Q 1625 2713 2034 2713 
Q 2441 2713 2670 2916 
Q 2900 3119 2900 3481 
Q 2900 3844 2670 4047 
Q 2441 4250 2034 4250 
Q 1625 4250 1398 4047 
Q 1172 3844 1172 3481 
z
" id="DejaVuSans-38" transform="scale(0.015625)"/>
       </defs>
       <use xlink:href="#DejaVuSans-4d"/>
       <use x="86.279297" xlink:href="#DejaVuSans-43"/>
       <use x="156.103516" xlink:href="#DejaVuSans-54"/>
       <use x="200.6875" xlink:href="#DejaVuSans-73"/>
       <use x="252.787109" xlink:href="#DejaVuSans-30"/>
       <use x="316.410156" xlink:href="#DejaVuSans-38"/>
      </g>
     </g>
    </g>
    <g id="xtick_9">
     <g id="line2d_9">
      <g>
       <use style="fill:#262626;stroke:#262626;" x="130.669405" xlink:href="#md4726fb6bc" y="224.64"/>
      </g>
     </g>
     <g id="text_9">
      <!-- MCTs09 -->
      <g style="fill:#262626;" transform="translate(132.876905 263.3425)rotate(-90)scale(0.08 -0.08)">
       <defs>
        <path d="M 703 97 
L 703 672 
Q 941 559 1184 500 
Q 1428 441 1663 441 
Q 2288 441 2617 861 
Q 2947 1281 2994 2138 
Q 2813 1869 2534 1725 
Q 2256 1581 1919 1581 
Q 1219 1581 811 2004 
Q 403 2428 403 3163 
Q 403 3881 828 4315 
Q 1253 4750 1959 4750 
Q 2769 4750 3195 4129 
Q 3622 3509 3622 2328 
Q 3622 1225 3098 567 
Q 2575 -91 1691 -91 
Q 1453 -91 1209 -44 
Q 966 3 703 97 
z
M 1959 2075 
Q 2384 2075 2632 2365 
Q 2881 2656 2881 3163 
Q 2881 3666 2632 3958 
Q 2384 4250 1959 4250 
Q 1534 4250 1286 3958 
Q 1038 3666 1038 3163 
Q 1038 2656 1286 2365 
Q 1534 2075 1959 2075 
z
" id="DejaVuSans-39" transform="scale(0.015625)"/>
       </defs>
       <use xlink:href="#DejaVuSans-4d"/>
       <use x="86.279297" xlink:href="#DejaVuSans-43"/>
       <use x="156.103516" xlink:href="#DejaVuSans-54"/>
       <use x="200.6875" xlink:href="#DejaVuSans-73"/>
       <use x="252.787109" xlink:href="#DejaVuSans-30"/>
       <use x="316.410156" xlink:href="#DejaVuSans-39"/>
      </g>
     </g>
    </g>
    <g id="xtick_10">
     <g id="line2d_10">
      <g>
       <use style="fill:#262626;stroke:#262626;" x="139.621277" xlink:href="#md4726fb6bc" y="224.64"/>
      </g>
     </g>
     <g id="text_10">
      <!-- MCTs10 -->
      <g style="fill:#262626;" transform="translate(141.828777 263.3425)rotate(-90)scale(0.08 -0.08)">
       <use xlink:href="#DejaVuSans-4d"/>
       <use x="86.279297" xlink:href="#DejaVuSans-43"/>
       <use x="156.103516" xlink:href="#DejaVuSans-54"/>
       <use x="200.6875" xlink:href="#DejaVuSans-73"/>
       <use x="252.787109" xlink:href="#DejaVuSans-31"/>
       <use x="316.410156" xlink:href="#DejaVuSans-30"/>
      </g>
     </g>
    </g>
    <g id="xtick_11">
     <g id="line2d_11">
      <g>
       <use style="fill:#262626;stroke:#262626;" x="148.573148" xlink:href="#md4726fb6bc" y="224.64"/>
      </g>
     </g>
     <g id="text_11">
      <!-- MCTs13 -->
      <g style="fill:#262626;" transform="translate(150.780648 263.3425)rotate(-90)scale(0.08 -0.08)">
       <use xlink:href="#DejaVuSans-4d"/>
       <use x="86.279297" xlink:href="#DejaVuSans-43"/>
       <use x="156.103516" xlink:href="#DejaVuSans-54"/>
       <use x="200.6875" xlink:href="#DejaVuSans-73"/>
       <use x="252.787109" xlink:href="#DejaVuSans-31"/>
       <use x="316.410156" xlink:href="#DejaVuSans-33"/>
      </g>
     </g>
    </g>
    <g id="xtick_12">
     <g id="line2d_12">
      <g>
       <use style="fill:#262626;stroke:#262626;" x="157.52502" xlink:href="#md4726fb6bc" y="224.64"/>
      </g>
     </g>
     <g id="text_12">
      <!-- MCTs14 -->
      <g style="fill:#262626;" transform="translate(159.73252 263.3425)rotate(-90)scale(0.08 -0.08)">
       <use xlink:href="#DejaVuSans-4d"/>
       <use x="86.279297" xlink:href="#DejaVuSans-43"/>
       <use x="156.103516" xlink:href="#DejaVuSans-54"/>
       <use x="200.6875" xlink:href="#DejaVuSans-73"/>
       <use x="252.787109" xlink:href="#DejaVuSans-31"/>
       <use x="316.410156" xlink:href="#DejaVuSans-34"/>
      </g>
     </g>
    </g>
    <g id="xtick_13">
     <g id="line2d_13">
      <g>
       <use style="fill:#262626;stroke:#262626;" x="166.476892" xlink:href="#md4726fb6bc" y="224.64"/>
      </g>
     </g>
     <g id="text_13">
      <!-- MCTs15 -->
      <g style="fill:#262626;" transform="translate(168.684392 263.3425)rotate(-90)scale(0.08 -0.08)">
       <use xlink:href="#DejaVuSans-4d"/>
       <use x="86.279297" xlink:href="#DejaVuSans-43"/>
       <use x="156.103516" xlink:href="#DejaVuSans-54"/>
       <use x="200.6875" xlink:href="#DejaVuSans-73"/>
       <use x="252.787109" xlink:href="#DejaVuSans-31"/>
       <use x="316.410156" xlink:href="#DejaVuSans-35"/>
      </g>
     </g>
    </g>
    <g id="xtick_14">
     <g id="line2d_14">
      <g>
       <use style="fill:#262626;stroke:#262626;" x="175.428763" xlink:href="#md4726fb6bc" y="224.64"/>
      </g>
     </g>
     <g id="text_14">
      <!-- MCTs16 -->
      <g style="fill:#262626;" transform="translate(177.636263 263.3425)rotate(-90)scale(0.08 -0.08)">
       <use xlink:href="#DejaVuSans-4d"/>
       <use x="86.279297" xlink:href="#DejaVuSans-43"/>
       <use x="156.103516" xlink:href="#DejaVuSans-54"/>
       <use x="200.6875" xlink:href="#DejaVuSans-73"/>
       <use x="252.787109" xlink:href="#DejaVuSans-31"/>
       <use x="316.410156" xlink:href="#DejaVuSans-36"/>
      </g>
     </g>
    </g>
    <g id="xtick_15">
     <g id="line2d_15">
      <g>
       <use style="fill:#262626;stroke:#262626;" x="184.380635" xlink:href="#md4726fb6bc" y="224.64"/>
      </g>
     </g>
     <g id="text_15">
      <!-- MCTs17 -->
      <g style="fill:#262626;" transform="translate(186.588135 263.3425)rotate(-90)scale(0.08 -0.08)">
       <use xlink:href="#DejaVuSans-4d"/>
       <use x="86.279297" xlink:href="#DejaVuSans-43"/>
       <use x="156.103516" xlink:href="#DejaVuSans-54"/>
       <use x="200.6875" xlink:href="#DejaVuSans-73"/>
       <use x="252.787109" xlink:href="#DejaVuSans-31"/>
       <use x="316.410156" xlink:href="#DejaVuSans-37"/>
      </g>
     </g>
    </g>
    <g id="xtick_16">
     <g id="line2d_16">
      <g>
       <use style="fill:#262626;stroke:#262626;" x="193.332507" xlink:href="#md4726fb6bc" y="224.64"/>
      </g>
     </g>
     <g id="text_16">
      <!-- MCTs18 -->
      <g style="fill:#262626;" transform="translate(195.540007 263.3425)rotate(-90)scale(0.08 -0.08)">
       <use xlink:href="#DejaVuSans-4d"/>
       <use x="86.279297" xlink:href="#DejaVuSans-43"/>
       <use x="156.103516" xlink:href="#DejaVuSans-54"/>
       <use x="200.6875" xlink:href="#DejaVuSans-73"/>
       <use x="252.787109" xlink:href="#DejaVuSans-31"/>
       <use x="316.410156" xlink:href="#DejaVuSans-38"/>
      </g>
     </g>
    </g>
    <g id="xtick_17">
     <g id="line2d_17">
      <g>
       <use style="fill:#262626;stroke:#262626;" x="202.284378" xlink:href="#md4726fb6bc" y="224.64"/>
      </g>
     </g>
     <g id="text_17">
      <!-- MCTs19 -->
      <g style="fill:#262626;" transform="translate(204.491878 263.3425)rotate(-90)scale(0.08 -0.08)">
       <use xlink:href="#DejaVuSans-4d"/>
       <use x="86.279297" xlink:href="#DejaVuSans-43"/>
       <use x="156.103516" xlink:href="#DejaVuSans-54"/>
       <use x="200.6875" xlink:href="#DejaVuSans-73"/>
       <use x="252.787109" xlink:href="#DejaVuSans-31"/>
       <use x="316.410156" xlink:href="#DejaVuSans-39"/>
      </g>
     </g>
    </g>
    <g id="xtick_18">
     <g id="line2d_18">
      <g>
       <use style="fill:#262626;stroke:#262626;" x="211.23625" xlink:href="#md4726fb6bc" y="224.64"/>
      </g>
     </g>
     <g id="text_18">
      <!-- MCTs20 -->
      <g style="fill:#262626;" transform="translate(213.44375 263.3425)rotate(-90)scale(0.08 -0.08)">
       <use xlink:href="#DejaVuSans-4d"/>
       <use x="86.279297" xlink:href="#DejaVuSans-43"/>
       <use x="156.103516" xlink:href="#DejaVuSans-54"/>
       <use x="200.6875" xlink:href="#DejaVuSans-73"/>
       <use x="252.787109" xlink:href="#DejaVuSans-32"/>
       <use x="316.410156" xlink:href="#DejaVuSans-30"/>
      </g>
     </g>
    </g>
    <g id="xtick_19">
     <g id="line2d_19">
      <g>
       <use style="fill:#262626;stroke:#262626;" x="220.188122" xlink:href="#md4726fb6bc" y="224.64"/>
      </g>
     </g>
     <g id="text_19">
      <!-- MCTs21 -->
      <g style="fill:#262626;" transform="translate(222.395622 263.3425)rotate(-90)scale(0.08 -0.08)">
       <use xlink:href="#DejaVuSans-4d"/>
       <use x="86.279297" xlink:href="#DejaVuSans-43"/>
       <use x="156.103516" xlink:href="#DejaVuSans-54"/>
       <use x="200.6875" xlink:href="#DejaVuSans-73"/>
       <use x="252.787109" xlink:href="#DejaVuSans-32"/>
       <use x="316.410156" xlink:href="#DejaVuSans-31"/>
      </g>
     </g>
    </g>
    <g id="xtick_20">
     <g id="line2d_20">
      <g>
       <use style="fill:#262626;stroke:#262626;" x="229.139993" xlink:href="#md4726fb6bc" y="224.64"/>
      </g>
     </g>
     <g id="text_20">
      <!-- MCTs22 -->
      <g style="fill:#262626;" transform="translate(231.347493 263.3425)rotate(-90)scale(0.08 -0.08)">
       <use xlink:href="#DejaVuSans-4d"/>
       <use x="86.279297" xlink:href="#DejaVuSans-43"/>
       <use x="156.103516" xlink:href="#DejaVuSans-54"/>
       <use x="200.6875" xlink:href="#DejaVuSans-73"/>
       <use x="252.787109" xlink:href="#DejaVuSans-32"/>
       <use x="316.410156" xlink:href="#DejaVuSans-32"/>
      </g>
     </g>
    </g>
    <g id="xtick_21">
     <g id="line2d_21">
      <g>
       <use style="fill:#262626;stroke:#262626;" x="238.091865" xlink:href="#md4726fb6bc" y="224.64"/>
      </g>
     </g>
     <g id="text_21">
      <!-- MCTs23 -->
      <g style="fill:#262626;" transform="translate(240.299365 263.3425)rotate(-90)scale(0.08 -0.08)">
       <use xlink:href="#DejaVuSans-4d"/>
       <use x="86.279297" xlink:href="#DejaVuSans-43"/>
       <use x="156.103516" xlink:href="#DejaVuSans-54"/>
       <use x="200.6875" xlink:href="#DejaVuSans-73"/>
       <use x="252.787109" xlink:href="#DejaVuSans-32"/>
       <use x="316.410156" xlink:href="#DejaVuSans-33"/>
      </g>
     </g>
    </g>
    <g id="xtick_22">
     <g id="line2d_22">
      <g>
       <use style="fill:#262626;stroke:#262626;" x="247.043737" xlink:href="#md4726fb6bc" y="224.64"/>
      </g>
     </g>
     <g id="text_22">
      <!-- MCTs24 -->
      <g style="fill:#262626;" transform="translate(249.251237 263.3425)rotate(-90)scale(0.08 -0.08)">
       <use xlink:href="#DejaVuSans-4d"/>
       <use x="86.279297" xlink:href="#DejaVuSans-43"/>
       <use x="156.103516" xlink:href="#DejaVuSans-54"/>
       <use x="200.6875" xlink:href="#DejaVuSans-73"/>
       <use x="252.787109" xlink:href="#DejaVuSans-32"/>
       <use x="316.410156" xlink:href="#DejaVuSans-34"/>
      </g>
     </g>
    </g>
    <g id="xtick_23">
     <g id="line2d_23">
      <g>
       <use style="fill:#262626;stroke:#262626;" x="255.995608" xlink:href="#md4726fb6bc" y="224.64"/>
      </g>
     </g>
     <g id="text_23">
      <!-- MCTs25 -->
      <g style="fill:#262626;" transform="translate(258.203108 263.3425)rotate(-90)scale(0.08 -0.08)">
       <use xlink:href="#DejaVuSans-4d"/>
       <use x="86.279297" xlink:href="#DejaVuSans-43"/>
       <use x="156.103516" xlink:href="#DejaVuSans-54"/>
       <use x="200.6875" xlink:href="#DejaVuSans-73"/>
       <use x="252.787109" xlink:href="#DejaVuSans-32"/>
       <use x="316.410156" xlink:href="#DejaVuSans-35"/>
      </g>
     </g>
    </g>
    <g id="xtick_24">
     <g id="line2d_24">
      <g>
       <use style="fill:#262626;stroke:#262626;" x="264.94748" xlink:href="#md4726fb6bc" y="224.64"/>
      </g>
     </g>
     <g id="text_24">
      <!-- MCTs26 -->
      <g style="fill:#262626;" transform="translate(267.15498 263.3425)rotate(-90)scale(0.08 -0.08)">
       <use xlink:href="#DejaVuSans-4d"/>
       <use x="86.279297" xlink:href="#DejaVuSans-43"/>
       <use x="156.103516" xlink:href="#DejaVuSans-54"/>
       <use x="200.6875" xlink:href="#DejaVuSans-73"/>
       <use x="252.787109" xlink:href="#DejaVuSans-32"/>
       <use x="316.410156" xlink:href="#DejaVuSans-36"/>
      </g>
     </g>
    </g>
    <g id="xtick_25">
     <g id="line2d_25">
      <g>
       <use style="fill:#262626;stroke:#262626;" x="273.899352" xlink:href="#md4726fb6bc" y="224.64"/>
      </g>
     </g>
     <g id="text_25">
      <!-- MCTs27 -->
      <g style="fill:#262626;" transform="translate(276.106852 263.3425)rotate(-90)scale(0.08 -0.08)">
       <use xlink:href="#DejaVuSans-4d"/>
       <use x="86.279297" xlink:href="#DejaVuSans-43"/>
       <use x="156.103516" xlink:href="#DejaVuSans-54"/>
       <use x="200.6875" xlink:href="#DejaVuSans-73"/>
       <use x="252.787109" xlink:href="#DejaVuSans-32"/>
       <use x="316.410156" xlink:href="#DejaVuSans-37"/>
      </g>
     </g>
    </g>
    <g id="xtick_26">
     <g id="line2d_26">
      <g>
       <use style="fill:#262626;stroke:#262626;" x="282.851223" xlink:href="#md4726fb6bc" y="224.64"/>
      </g>
     </g>
     <g id="text_26">
      <!-- MCTs28 -->
      <g style="fill:#262626;" transform="translate(285.058723 263.3425)rotate(-90)scale(0.08 -0.08)">
       <use xlink:href="#DejaVuSans-4d"/>
       <use x="86.279297" xlink:href="#DejaVuSans-43"/>
       <use x="156.103516" xlink:href="#DejaVuSans-54"/>
       <use x="200.6875" xlink:href="#DejaVuSans-73"/>
       <use x="252.787109" xlink:href="#DejaVuSans-32"/>
       <use x="316.410156" xlink:href="#DejaVuSans-38"/>
      </g>
     </g>
    </g>
    <g id="xtick_27">
     <g id="line2d_27">
      <g>
       <use style="fill:#262626;stroke:#262626;" x="291.803095" xlink:href="#md4726fb6bc" y="224.64"/>
      </g>
     </g>
     <g id="text_27">
      <!-- MCTs29 -->
      <g style="fill:#262626;" transform="translate(294.010595 263.3425)rotate(-90)scale(0.08 -0.08)">
       <use xlink:href="#DejaVuSans-4d"/>
       <use x="86.279297" xlink:href="#DejaVuSans-43"/>
       <use x="156.103516" xlink:href="#DejaVuSans-54"/>
       <use x="200.6875" xlink:href="#DejaVuSans-73"/>
       <use x="252.787109" xlink:href="#DejaVuSans-32"/>
       <use x="316.410156" xlink:href="#DejaVuSans-39"/>
      </g>
     </g>
    </g>
    <g id="xtick_28">
     <g id="line2d_28">
      <g>
       <use style="fill:#262626;stroke:#262626;" x="300.754967" xlink:href="#md4726fb6bc" y="224.64"/>
      </g>
     </g>
     <g id="text_28">
      <!-- MCTs30 -->
      <g style="fill:#262626;" transform="translate(302.962467 263.3425)rotate(-90)scale(0.08 -0.08)">
       <use xlink:href="#DejaVuSans-4d"/>
       <use x="86.279297" xlink:href="#DejaVuSans-43"/>
       <use x="156.103516" xlink:href="#DejaVuSans-54"/>
       <use x="200.6875" xlink:href="#DejaVuSans-73"/>
       <use x="252.787109" xlink:href="#DejaVuSans-33"/>
       <use x="316.410156" xlink:href="#DejaVuSans-30"/>
      </g>
     </g>
    </g>
    <g id="xtick_29">
     <g id="line2d_29">
      <g>
       <use style="fill:#262626;stroke:#262626;" x="309.706838" xlink:href="#md4726fb6bc" y="224.64"/>
      </g>
     </g>
     <g id="text_29">
      <!-- MCTs31 -->
      <g style="fill:#262626;" transform="translate(311.914338 263.3425)rotate(-90)scale(0.08 -0.08)">
       <use xlink:href="#DejaVuSans-4d"/>
       <use x="86.279297" xlink:href="#DejaVuSans-43"/>
       <use x="156.103516" xlink:href="#DejaVuSans-54"/>
       <use x="200.6875" xlink:href="#DejaVuSans-73"/>
       <use x="252.787109" xlink:href="#DejaVuSans-33"/>
       <use x="316.410156" xlink:href="#DejaVuSans-31"/>
      </g>
     </g>
    </g>
    <g id="xtick_30">
     <g id="line2d_30">
      <g>
       <use style="fill:#262626;stroke:#262626;" x="318.65871" xlink:href="#md4726fb6bc" y="224.64"/>
      </g>
     </g>
     <g id="text_30">
      <!-- MCTs32 -->
      <g style="fill:#262626;" transform="translate(320.86621 263.3425)rotate(-90)scale(0.08 -0.08)">
       <use xlink:href="#DejaVuSans-4d"/>
       <use x="86.279297" xlink:href="#DejaVuSans-43"/>
       <use x="156.103516" xlink:href="#DejaVuSans-54"/>
       <use x="200.6875" xlink:href="#DejaVuSans-73"/>
       <use x="252.787109" xlink:href="#DejaVuSans-33"/>
       <use x="316.410156" xlink:href="#DejaVuSans-32"/>
      </g>
     </g>
    </g>
    <g id="xtick_31">
     <g id="line2d_31">
      <g>
       <use style="fill:#262626;stroke:#262626;" x="327.610582" xlink:href="#md4726fb6bc" y="224.64"/>
      </g>
     </g>
     <g id="text_31">
      <!-- MCTs33 -->
      <g style="fill:#262626;" transform="translate(329.818082 263.3425)rotate(-90)scale(0.08 -0.08)">
       <use xlink:href="#DejaVuSans-4d"/>
       <use x="86.279297" xlink:href="#DejaVuSans-43"/>
       <use x="156.103516" xlink:href="#DejaVuSans-54"/>
       <use x="200.6875" xlink:href="#DejaVuSans-73"/>
       <use x="252.787109" xlink:href="#DejaVuSans-33"/>
       <use x="316.410156" xlink:href="#DejaVuSans-33"/>
      </g>
     </g>
    </g>
    <g id="xtick_32">
     <g id="line2d_32">
      <g>
       <use style="fill:#262626;stroke:#262626;" x="336.562453" xlink:href="#md4726fb6bc" y="224.64"/>
      </g>
     </g>
     <g id="text_32">
      <!-- MCTs34 -->
      <g style="fill:#262626;" transform="translate(338.769953 263.3425)rotate(-90)scale(0.08 -0.08)">
       <use xlink:href="#DejaVuSans-4d"/>
       <use x="86.279297" xlink:href="#DejaVuSans-43"/>
       <use x="156.103516" xlink:href="#DejaVuSans-54"/>
       <use x="200.6875" xlink:href="#DejaVuSans-73"/>
       <use x="252.787109" xlink:href="#DejaVuSans-33"/>
       <use x="316.410156" xlink:href="#DejaVuSans-34"/>
      </g>
     </g>
    </g>
    <g id="xtick_33">
     <g id="line2d_33">
      <g>
       <use style="fill:#262626;stroke:#262626;" x="345.514325" xlink:href="#md4726fb6bc" y="224.64"/>
      </g>
     </g>
     <g id="text_33">
      <!-- MCTs35 -->
      <g style="fill:#262626;" transform="translate(347.721825 263.3425)rotate(-90)scale(0.08 -0.08)">
       <use xlink:href="#DejaVuSans-4d"/>
       <use x="86.279297" xlink:href="#DejaVuSans-43"/>
       <use x="156.103516" xlink:href="#DejaVuSans-54"/>
       <use x="200.6875" xlink:href="#DejaVuSans-73"/>
       <use x="252.787109" xlink:href="#DejaVuSans-33"/>
       <use x="316.410156" xlink:href="#DejaVuSans-35"/>
      </g>
     </g>
    </g>
    <g id="xtick_34">
     <g id="line2d_34">
      <g>
       <use style="fill:#262626;stroke:#262626;" x="354.466197" xlink:href="#md4726fb6bc" y="224.64"/>
      </g>
     </g>
     <g id="text_34">
      <!-- MCTs36 -->
      <g style="fill:#262626;" transform="translate(356.673697 263.3425)rotate(-90)scale(0.08 -0.08)">
       <use xlink:href="#DejaVuSans-4d"/>
       <use x="86.279297" xlink:href="#DejaVuSans-43"/>
       <use x="156.103516" xlink:href="#DejaVuSans-54"/>
       <use x="200.6875" xlink:href="#DejaVuSans-73"/>
       <use x="252.787109" xlink:href="#DejaVuSans-33"/>
       <use x="316.410156" xlink:href="#DejaVuSans-36"/>
      </g>
     </g>
    </g>
    <g id="xtick_35">
     <g id="line2d_35">
      <g>
       <use style="fill:#262626;stroke:#262626;" x="363.418068" xlink:href="#md4726fb6bc" y="224.64"/>
      </g>
     </g>
     <g id="text_35">
      <!-- MCTs37 -->
      <g style="fill:#262626;" transform="translate(365.625568 263.3425)rotate(-90)scale(0.08 -0.08)">
       <use xlink:href="#DejaVuSans-4d"/>
       <use x="86.279297" xlink:href="#DejaVuSans-43"/>
       <use x="156.103516" xlink:href="#DejaVuSans-54"/>
       <use x="200.6875" xlink:href="#DejaVuSans-73"/>
       <use x="252.787109" xlink:href="#DejaVuSans-33"/>
       <use x="316.410156" xlink:href="#DejaVuSans-37"/>
      </g>
     </g>
    </g>
   </g>
   <g id="matplotlib.axis_2">
    <g id="ytick_1">
     <g id="line2d_36">
      <defs>
       <path d="M 0 0 
L -4.8 0 
" id="m26dd79cb1f" style="stroke:#262626;"/>
      </defs>
      <g>
       <use style="fill:#262626;stroke:#262626;" x="43.83625" xlink:href="#m26dd79cb1f" y="214.756364"/>
      </g>
     </g>
     <g id="text_36">
      <!-- 0.0 -->
      <g style="fill:#262626;" transform="translate(22.81375 217.795739)scale(0.08 -0.08)">
       <defs>
        <path d="M 684 794 
L 1344 794 
L 1344 0 
L 684 0 
L 684 794 
z
" id="DejaVuSans-2e" transform="scale(0.015625)"/>
       </defs>
       <use xlink:href="#DejaVuSans-30"/>
       <use x="63.623047" xlink:href="#DejaVuSans-2e"/>
       <use x="95.410156" xlink:href="#DejaVuSans-30"/>
      </g>
     </g>
    </g>
    <g id="ytick_2">
     <g id="line2d_37">
      <g>
       <use style="fill:#262626;stroke:#262626;" x="43.83625" xlink:href="#m26dd79cb1f" y="186.546508"/>
      </g>
     </g>
     <g id="text_37">
      <!-- 0.5 -->
      <g style="fill:#262626;" transform="translate(22.81375 189.585883)scale(0.08 -0.08)">
       <use xlink:href="#DejaVuSans-30"/>
       <use x="63.623047" xlink:href="#DejaVuSans-2e"/>
       <use x="95.410156" xlink:href="#DejaVuSans-35"/>
      </g>
     </g>
    </g>
    <g id="ytick_3">
     <g id="line2d_38">
      <g>
       <use style="fill:#262626;stroke:#262626;" x="43.83625" xlink:href="#m26dd79cb1f" y="158.336653"/>
      </g>
     </g>
     <g id="text_38">
      <!-- 1.0 -->
      <g style="fill:#262626;" transform="translate(22.81375 161.376028)scale(0.08 -0.08)">
       <use xlink:href="#DejaVuSans-31"/>
       <use x="63.623047" xlink:href="#DejaVuSans-2e"/>
       <use x="95.410156" xlink:href="#DejaVuSans-30"/>
      </g>
     </g>
    </g>
    <g id="ytick_4">
     <g id="line2d_39">
      <g>
       <use style="fill:#262626;stroke:#262626;" x="43.83625" xlink:href="#m26dd79cb1f" y="130.126798"/>
      </g>
     </g>
     <g id="text_39">
      <!-- 1.5 -->
      <g style="fill:#262626;" transform="translate(22.81375 133.166173)scale(0.08 -0.08)">
       <use xlink:href="#DejaVuSans-31"/>
       <use x="63.623047" xlink:href="#DejaVuSans-2e"/>
       <use x="95.410156" xlink:href="#DejaVuSans-35"/>
      </g>
     </g>
    </g>
    <g id="ytick_5">
     <g id="line2d_40">
      <g>
       <use style="fill:#262626;stroke:#262626;" x="43.83625" xlink:href="#m26dd79cb1f" y="101.916942"/>
      </g>
     </g>
     <g id="text_40">
      <!-- 2.0 -->
      <g style="fill:#262626;" transform="translate(22.81375 104.956317)scale(0.08 -0.08)">
       <use xlink:href="#DejaVuSans-32"/>
       <use x="63.623047" xlink:href="#DejaVuSans-2e"/>
       <use x="95.410156" xlink:href="#DejaVuSans-30"/>
      </g>
     </g>
    </g>
    <g id="ytick_6">
     <g id="line2d_41">
      <g>
       <use style="fill:#262626;stroke:#262626;" x="43.83625" xlink:href="#m26dd79cb1f" y="73.707087"/>
      </g>
     </g>
     <g id="text_41">
      <!-- 2.5 -->
      <g style="fill:#262626;" transform="translate(22.81375 76.746462)scale(0.08 -0.08)">
       <use xlink:href="#DejaVuSans-32"/>
       <use x="63.623047" xlink:href="#DejaVuSans-2e"/>
       <use x="95.410156" xlink:href="#DejaVuSans-35"/>
      </g>
     </g>
    </g>
    <g id="ytick_7">
     <g id="line2d_42">
      <g>
       <use style="fill:#262626;stroke:#262626;" x="43.83625" xlink:href="#m26dd79cb1f" y="45.497232"/>
      </g>
     </g>
     <g id="text_42">
      <!-- 3.0 -->
      <g style="fill:#262626;" transform="translate(22.81375 48.536607)scale(0.08 -0.08)">
       <use xlink:href="#DejaVuSans-33"/>
       <use x="63.623047" xlink:href="#DejaVuSans-2e"/>
       <use x="95.410156" xlink:href="#DejaVuSans-30"/>
      </g>
     </g>
    </g>
    <g id="ytick_8">
     <g id="line2d_43">
      <g>
       <use style="fill:#262626;stroke:#262626;" x="43.83625" xlink:href="#m26dd79cb1f" y="17.287377"/>
      </g>
     </g>
     <g id="text_43">
      <!-- 3.5 -->
      <g style="fill:#262626;" transform="translate(22.81375 20.326752)scale(0.08 -0.08)">
       <use xlink:href="#DejaVuSans-33"/>
       <use x="63.623047" xlink:href="#DejaVuSans-2e"/>
       <use x="95.410156" xlink:href="#DejaVuSans-35"/>
      </g>
     </g>
    </g>
    <g id="text_44">
     <!-- $E_m$ -->
     <g style="fill:#262626;" transform="translate(16.318125 124.02)rotate(-90)scale(0.12 -0.12)">
      <defs>
       <path d="M 1081 4666 
L 4031 4666 
L 3928 4134 
L 1606 4134 
L 1338 2753 
L 3566 2753 
L 3463 2222 
L 1234 2222 
L 909 531 
L 3284 531 
L 3181 0 
L 172 0 
L 1081 4666 
z
" id="DejaVuSans-Oblique-45" transform="scale(0.015625)"/>
       <path d="M 5747 2113 
L 5338 0 
L 4763 0 
L 5166 2094 
Q 5191 2228 5203 2325 
Q 5216 2422 5216 2491 
Q 5216 2772 5059 2928 
Q 4903 3084 4622 3084 
Q 4203 3084 3875 2770 
Q 3547 2456 3450 1953 
L 3066 0 
L 2491 0 
L 2900 2094 
Q 2925 2209 2937 2307 
Q 2950 2406 2950 2484 
Q 2950 2769 2794 2926 
Q 2638 3084 2363 3084 
Q 1938 3084 1609 2770 
Q 1281 2456 1184 1953 
L 800 0 
L 225 0 
L 909 3500 
L 1484 3500 
L 1375 2956 
Q 1609 3263 1923 3423 
Q 2238 3584 2597 3584 
Q 2978 3584 3223 3384 
Q 3469 3184 3519 2828 
Q 3781 3197 4126 3390 
Q 4472 3584 4856 3584 
Q 5306 3584 5551 3325 
Q 5797 3066 5797 2591 
Q 5797 2488 5784 2364 
Q 5772 2241 5747 2113 
z
" id="DejaVuSans-Oblique-6d" transform="scale(0.015625)"/>
      </defs>
      <use transform="translate(0 0.09375)" xlink:href="#DejaVuSans-Oblique-45"/>
      <use transform="translate(63.183594 -16.3125)scale(0.7)" xlink:href="#DejaVuSans-Oblique-6d"/>
     </g>
    </g>
   </g>
   <g id="PathCollection_1">
    <defs>
     <path d="M 0 2.4 
C 0.636487 2.4 1.246992 2.147121 1.697056 1.697056 
C 2.147121 1.246992 2.4 0.636487 2.4 0 
C 2.4 -0.636487 2.147121 -1.246992 1.697056 -1.697056 
C 1.246992 -2.147121 0.636487 -2.4 0 -2.4 
C -0.636487 -2.4 -1.246992 -2.147121 -1.697056 -1.697056 
C -2.147121 -1.246992 -2.4 -0.636487 -2.4 0 
C -2.4 0.636487 -2.147121 1.246992 -1.697056 1.697056 
C -1.246992 2.147121 -0.636487 2.4 0 2.4 
z
" id="mb8cd09d2b8" style="stroke:#ffffff;stroke-width:0.384;"/>
    </defs>
    <g clip-path="url(#p466a798688)">
     <use style="fill:#0173b2;stroke:#ffffff;stroke-width:0.384;" x="59.054432" xlink:href="#mb8cd09d2b8" y="96.722387"/>
     <use style="fill:#0173b2;stroke:#ffffff;stroke-width:0.384;" x="68.006303" xlink:href="#mb8cd09d2b8" y="41.864607"/>
     <use style="fill:#0173b2;stroke:#ffffff;stroke-width:0.384;" x="76.958175" xlink:href="#mb8cd09d2b8" y="87.318477"/>
     <use style="fill:#0173b2;stroke:#ffffff;stroke-width:0.384;" x="85.910047" xlink:href="#mb8cd09d2b8" y="82.246802"/>
     <use style="fill:#0173b2;stroke:#ffffff;stroke-width:0.384;" x="94.861918" xlink:href="#mb8cd09d2b8" y="80.363572"/>
     <use style="fill:#0173b2;stroke:#ffffff;stroke-width:0.384;" x="103.81379" xlink:href="#mb8cd09d2b8" y="82.801295"/>
     <use style="fill:#0173b2;stroke:#ffffff;stroke-width:0.384;" x="112.765662" xlink:href="#mb8cd09d2b8" y="81.660887"/>
     <use style="fill:#0173b2;stroke:#ffffff;stroke-width:0.384;" x="121.717533" xlink:href="#mb8cd09d2b8" y="71.488809"/>
     <use style="fill:#0173b2;stroke:#ffffff;stroke-width:0.384;" x="130.669405" xlink:href="#mb8cd09d2b8" y="81.125665"/>
     <use style="fill:#0173b2;stroke:#ffffff;stroke-width:0.384;" x="139.621277" xlink:href="#mb8cd09d2b8" y="139.059506"/>
     <use style="fill:#0173b2;stroke:#ffffff;stroke-width:0.384;" x="148.573148" xlink:href="#mb8cd09d2b8" y="87.850465"/>
     <use style="fill:#0173b2;stroke:#ffffff;stroke-width:0.384;" x="157.52502" xlink:href="#mb8cd09d2b8" y="106.913963"/>
     <use style="fill:#0173b2;stroke:#ffffff;stroke-width:0.384;" x="166.476892" xlink:href="#mb8cd09d2b8" y="108.423034"/>
     <use style="fill:#0173b2;stroke:#ffffff;stroke-width:0.384;" x="175.428763" xlink:href="#mb8cd09d2b8" y="87.516586"/>
     <use style="fill:#0173b2;stroke:#ffffff;stroke-width:0.384;" x="184.380635" xlink:href="#mb8cd09d2b8" y="27.064564"/>
     <use style="fill:#0173b2;stroke:#ffffff;stroke-width:0.384;" x="193.332507" xlink:href="#mb8cd09d2b8" y="69.989066"/>
     <use style="fill:#0173b2;stroke:#ffffff;stroke-width:0.384;" x="202.284378" xlink:href="#mb8cd09d2b8" y="60.721747"/>
     <use style="fill:#0173b2;stroke:#ffffff;stroke-width:0.384;" x="211.23625" xlink:href="#mb8cd09d2b8" y="214.756364"/>
     <use style="fill:#0173b2;stroke:#ffffff;stroke-width:0.384;" x="220.188122" xlink:href="#mb8cd09d2b8" y="34.302601"/>
     <use style="fill:#0173b2;stroke:#ffffff;stroke-width:0.384;" x="229.139993" xlink:href="#mb8cd09d2b8" y="89.003054"/>
     <use style="fill:#0173b2;stroke:#ffffff;stroke-width:0.384;" x="238.091865" xlink:href="#mb8cd09d2b8" y="129.688296"/>
     <use style="fill:#0173b2;stroke:#ffffff;stroke-width:0.384;" x="247.043737" xlink:href="#mb8cd09d2b8" y="90.856555"/>
     <use style="fill:#0173b2;stroke:#ffffff;stroke-width:0.384;" x="255.995608" xlink:href="#mb8cd09d2b8" y="57.6542"/>
     <use style="fill:#0173b2;stroke:#ffffff;stroke-width:0.384;" x="264.94748" xlink:href="#mb8cd09d2b8" y="92.666864"/>
     <use style="fill:#0173b2;stroke:#ffffff;stroke-width:0.384;" x="273.899352" xlink:href="#mb8cd09d2b8" y="92.518388"/>
     <use style="fill:#0173b2;stroke:#ffffff;stroke-width:0.384;" x="282.851223" xlink:href="#mb8cd09d2b8" y="101.758473"/>
     <use style="fill:#0173b2;stroke:#ffffff;stroke-width:0.384;" x="291.803095" xlink:href="#mb8cd09d2b8" y="80.145882"/>
     <use style="fill:#0173b2;stroke:#ffffff;stroke-width:0.384;" x="300.754967" xlink:href="#mb8cd09d2b8" y="17.083636"/>
     <use style="fill:#0173b2;stroke:#ffffff;stroke-width:0.384;" x="309.706838" xlink:href="#mb8cd09d2b8" y="79.058259"/>
     <use style="fill:#0173b2;stroke:#ffffff;stroke-width:0.384;" x="318.65871" xlink:href="#mb8cd09d2b8" y="74.457024"/>
     <use style="fill:#0173b2;stroke:#ffffff;stroke-width:0.384;" x="327.610582" xlink:href="#mb8cd09d2b8" y="84.455235"/>
     <use style="fill:#0173b2;stroke:#ffffff;stroke-width:0.384;" x="336.562453" xlink:href="#mb8cd09d2b8" y="88.232631"/>
     <use style="fill:#0173b2;stroke:#ffffff;stroke-width:0.384;" x="345.514325" xlink:href="#mb8cd09d2b8" y="79.930461"/>
     <use style="fill:#0173b2;stroke:#ffffff;stroke-width:0.384;" x="354.466197" xlink:href="#mb8cd09d2b8" y="69.945523"/>
     <use style="fill:#0173b2;stroke:#ffffff;stroke-width:0.384;" x="363.418068" xlink:href="#mb8cd09d2b8" y="86.089432"/>
    </g>
   </g>
   <g id="line2d_44">
    <path clip-path="url(#p466a798688)" d="M 43.83625 17.571547 
L 378.63625 17.571547 
" style="fill:none;stroke:#ff0000;stroke-dasharray:4.44,1.92;stroke-dashoffset:0;stroke-width:1.2;"/>
   </g>
   <g id="patch_3">
    <path d="M 43.83625 224.64 
L 43.83625 7.2 
" style="fill:none;stroke:#262626;stroke-linecap:square;stroke-linejoin:miter;stroke-width:0.6;"/>
   </g>
   <g id="patch_4">
    <path d="M 378.63625 224.64 
L 378.63625 7.2 
" style="fill:none;stroke:#262626;stroke-linecap:square;stroke-linejoin:miter;stroke-width:0.6;"/>
   </g>
   <g id="patch_5">
    <path d="M 43.83625 224.64 
L 378.63625 224.64 
" style="fill:none;stroke:#262626;stroke-linecap:square;stroke-linejoin:miter;stroke-width:0.6;"/>
   </g>
   <g id="patch_6">
    <path d="M 43.83625 7.2 
L 378.63625 7.2 
" style="fill:none;stroke:#262626;stroke-linecap:square;stroke-linejoin:miter;stroke-width:0.6;"/>
   </g>
  </g>
 </g>
 <defs>
  <clipPath id="p466a798688">
   <rect height="217.44" width="334.8" x="43.83625" y="7.2"/>
  </clipPath>
 </defs>
</svg>
