<?xml version="1.0" encoding="utf-8" standalone="no"?>
<!DOCTYPE svg PUBLIC "-//W3C//DTD SVG 1.1//EN"
  "http://www.w3.org/Graphics/SVG/1.1/DTD/svg11.dtd">
<svg height="197.692102pt" version="1.1" viewBox="0 0 236.5475 197.692102" width="236.5475pt" xmlns="http://www.w3.org/2000/svg" xmlns:xlink="http://www.w3.org/1999/xlink">
 <metadata>
  <rdf:RDF xmlns:cc="http://creativecommons.org/ns#" xmlns:dc="http://purl.org/dc/elements/1.1/" xmlns:rdf="http://www.w3.org/1999/02/22-rdf-syntax-ns#">
   <cc:Work>
    <dc:type rdf:resource="http://purl.org/dc/dcmitype/StillImage"/>
    <dc:date>2022-01-09T00:55:33.891761</dc:date>
    <dc:format>image/svg+xml</dc:format>
    <dc:creator>
     <cc:Agent>
      <dc:title>Matplotlib v3.4.2, https://matplotlib.org/</dc:title>
     </cc:Agent>
    </dc:creator>
   </cc:Work>
  </rdf:RDF>
 </metadata>
 <defs>
  <style type="text/css">*{stroke-linecap:butt;stroke-linejoin:round;}</style>
 </defs>
 <g id="figure_1">
  <g id="patch_1">
   <path d="M 0 197.692102 
L 236.5475 197.692102 
L 236.5475 0 
L 0 0 
z
" style="fill:#ffffff;"/>
  </g>
  <g id="axes_1">
   <g id="patch_2">
    <path d="M 47.9975 158.835852 
L 229.3475 158.835852 
L 229.3475 22.318125 
L 47.9975 22.318125 
z
" style="fill:#ffffff;"/>
   </g>
   <g id="matplotlib.axis_1">
    <g id="xtick_1">
     <g id="line2d_1">
      <defs>
       <path d="M 0 0 
L 0 4.8 
" id="m1c2463a502" style="stroke:#262626;"/>
      </defs>
      <g>
       <use style="fill:#262626;stroke:#262626;" x="97.456591" xlink:href="#m1c2463a502" y="158.835852"/>
      </g>
     </g>
     <g id="text_1">
      <!-- 5 -->
      <g style="fill:#262626;" transform="translate(94.911591 173.214602)scale(0.08 -0.08)">
       <defs>
        <path d="M 691 4666 
L 3169 4666 
L 3169 4134 
L 1269 4134 
L 1269 2991 
Q 1406 3038 1543 3061 
Q 1681 3084 1819 3084 
Q 2600 3084 3056 2656 
Q 3513 2228 3513 1497 
Q 3513 744 3044 326 
Q 2575 -91 1722 -91 
Q 1428 -91 1123 -41 
Q 819 9 494 109 
L 494 744 
Q 775 591 1075 516 
Q 1375 441 1709 441 
Q 2250 441 2565 725 
Q 2881 1009 2881 1497 
Q 2881 1984 2565 2268 
Q 2250 2553 1709 2553 
Q 1456 2553 1204 2497 
Q 953 2441 691 2322 
L 691 4666 
z
" id="DejaVuSans-35" transform="scale(0.015625)"/>
       </defs>
       <use xlink:href="#DejaVuSans-35"/>
      </g>
     </g>
    </g>
    <g id="xtick_2">
     <g id="line2d_2">
      <g>
       <use style="fill:#262626;stroke:#262626;" x="148.976477" xlink:href="#m1c2463a502" y="158.835852"/>
      </g>
     </g>
     <g id="text_2">
      <!-- 10 -->
      <g style="fill:#262626;" transform="translate(143.886477 173.214602)scale(0.08 -0.08)">
       <defs>
        <path d="M 794 531 
L 1825 531 
L 1825 4091 
L 703 3866 
L 703 4441 
L 1819 4666 
L 2450 4666 
L 2450 531 
L 3481 531 
L 3481 0 
L 794 0 
L 794 531 
z
" id="DejaVuSans-31" transform="scale(0.015625)"/>
        <path d="M 2034 4250 
Q 1547 4250 1301 3770 
Q 1056 3291 1056 2328 
Q 1056 1369 1301 889 
Q 1547 409 2034 409 
Q 2525 409 2770 889 
Q 3016 1369 3016 2328 
Q 3016 3291 2770 3770 
Q 2525 4250 2034 4250 
z
M 2034 4750 
Q 2819 4750 3233 4129 
Q 3647 3509 3647 2328 
Q 3647 1150 3233 529 
Q 2819 -91 2034 -91 
Q 1250 -91 836 529 
Q 422 1150 422 2328 
Q 422 3509 836 4129 
Q 1250 4750 2034 4750 
z
" id="DejaVuSans-30" transform="scale(0.015625)"/>
       </defs>
       <use xlink:href="#DejaVuSans-31"/>
       <use x="63.623047" xlink:href="#DejaVuSans-30"/>
      </g>
     </g>
    </g>
    <g id="xtick_3">
     <g id="line2d_3">
      <g>
       <use style="fill:#262626;stroke:#262626;" x="200.496364" xlink:href="#m1c2463a502" y="158.835852"/>
      </g>
     </g>
     <g id="text_3">
      <!-- 15 -->
      <g style="fill:#262626;" transform="translate(195.406364 173.214602)scale(0.08 -0.08)">
       <use xlink:href="#DejaVuSans-31"/>
       <use x="63.623047" xlink:href="#DejaVuSans-35"/>
      </g>
     </g>
    </g>
    <g id="text_4">
     <!-- Study day number -->
     <g style="fill:#262626;" transform="translate(83.080625 187.996477)scale(0.12 -0.12)">
      <defs>
       <path d="M 3425 4513 
L 3425 3897 
Q 3066 4069 2747 4153 
Q 2428 4238 2131 4238 
Q 1616 4238 1336 4038 
Q 1056 3838 1056 3469 
Q 1056 3159 1242 3001 
Q 1428 2844 1947 2747 
L 2328 2669 
Q 3034 2534 3370 2195 
Q 3706 1856 3706 1288 
Q 3706 609 3251 259 
Q 2797 -91 1919 -91 
Q 1588 -91 1214 -16 
Q 841 59 441 206 
L 441 856 
Q 825 641 1194 531 
Q 1563 422 1919 422 
Q 2459 422 2753 634 
Q 3047 847 3047 1241 
Q 3047 1584 2836 1778 
Q 2625 1972 2144 2069 
L 1759 2144 
Q 1053 2284 737 2584 
Q 422 2884 422 3419 
Q 422 4038 858 4394 
Q 1294 4750 2059 4750 
Q 2388 4750 2728 4690 
Q 3069 4631 3425 4513 
z
" id="DejaVuSans-53" transform="scale(0.015625)"/>
       <path d="M 1172 4494 
L 1172 3500 
L 2356 3500 
L 2356 3053 
L 1172 3053 
L 1172 1153 
Q 1172 725 1289 603 
Q 1406 481 1766 481 
L 2356 481 
L 2356 0 
L 1766 0 
Q 1100 0 847 248 
Q 594 497 594 1153 
L 594 3053 
L 172 3053 
L 172 3500 
L 594 3500 
L 594 4494 
L 1172 4494 
z
" id="DejaVuSans-74" transform="scale(0.015625)"/>
       <path d="M 544 1381 
L 544 3500 
L 1119 3500 
L 1119 1403 
Q 1119 906 1312 657 
Q 1506 409 1894 409 
Q 2359 409 2629 706 
Q 2900 1003 2900 1516 
L 2900 3500 
L 3475 3500 
L 3475 0 
L 2900 0 
L 2900 538 
Q 2691 219 2414 64 
Q 2138 -91 1772 -91 
Q 1169 -91 856 284 
Q 544 659 544 1381 
z
M 1991 3584 
L 1991 3584 
z
" id="DejaVuSans-75" transform="scale(0.015625)"/>
       <path d="M 2906 2969 
L 2906 4863 
L 3481 4863 
L 3481 0 
L 2906 0 
L 2906 525 
Q 2725 213 2448 61 
Q 2172 -91 1784 -91 
Q 1150 -91 751 415 
Q 353 922 353 1747 
Q 353 2572 751 3078 
Q 1150 3584 1784 3584 
Q 2172 3584 2448 3432 
Q 2725 3281 2906 2969 
z
M 947 1747 
Q 947 1113 1208 752 
Q 1469 391 1925 391 
Q 2381 391 2643 752 
Q 2906 1113 2906 1747 
Q 2906 2381 2643 2742 
Q 2381 3103 1925 3103 
Q 1469 3103 1208 2742 
Q 947 2381 947 1747 
z
" id="DejaVuSans-64" transform="scale(0.015625)"/>
       <path d="M 2059 -325 
Q 1816 -950 1584 -1140 
Q 1353 -1331 966 -1331 
L 506 -1331 
L 506 -850 
L 844 -850 
Q 1081 -850 1212 -737 
Q 1344 -625 1503 -206 
L 1606 56 
L 191 3500 
L 800 3500 
L 1894 763 
L 2988 3500 
L 3597 3500 
L 2059 -325 
z
" id="DejaVuSans-79" transform="scale(0.015625)"/>
       <path id="DejaVuSans-20" transform="scale(0.015625)"/>
       <path d="M 2194 1759 
Q 1497 1759 1228 1600 
Q 959 1441 959 1056 
Q 959 750 1161 570 
Q 1363 391 1709 391 
Q 2188 391 2477 730 
Q 2766 1069 2766 1631 
L 2766 1759 
L 2194 1759 
z
M 3341 1997 
L 3341 0 
L 2766 0 
L 2766 531 
Q 2569 213 2275 61 
Q 1981 -91 1556 -91 
Q 1019 -91 701 211 
Q 384 513 384 1019 
Q 384 1609 779 1909 
Q 1175 2209 1959 2209 
L 2766 2209 
L 2766 2266 
Q 2766 2663 2505 2880 
Q 2244 3097 1772 3097 
Q 1472 3097 1187 3025 
Q 903 2953 641 2809 
L 641 3341 
Q 956 3463 1253 3523 
Q 1550 3584 1831 3584 
Q 2591 3584 2966 3190 
Q 3341 2797 3341 1997 
z
" id="DejaVuSans-61" transform="scale(0.015625)"/>
       <path d="M 3513 2113 
L 3513 0 
L 2938 0 
L 2938 2094 
Q 2938 2591 2744 2837 
Q 2550 3084 2163 3084 
Q 1697 3084 1428 2787 
Q 1159 2491 1159 1978 
L 1159 0 
L 581 0 
L 581 3500 
L 1159 3500 
L 1159 2956 
Q 1366 3272 1645 3428 
Q 1925 3584 2291 3584 
Q 2894 3584 3203 3211 
Q 3513 2838 3513 2113 
z
" id="DejaVuSans-6e" transform="scale(0.015625)"/>
       <path d="M 3328 2828 
Q 3544 3216 3844 3400 
Q 4144 3584 4550 3584 
Q 5097 3584 5394 3201 
Q 5691 2819 5691 2113 
L 5691 0 
L 5113 0 
L 5113 2094 
Q 5113 2597 4934 2840 
Q 4756 3084 4391 3084 
Q 3944 3084 3684 2787 
Q 3425 2491 3425 1978 
L 3425 0 
L 2847 0 
L 2847 2094 
Q 2847 2600 2669 2842 
Q 2491 3084 2119 3084 
Q 1678 3084 1418 2786 
Q 1159 2488 1159 1978 
L 1159 0 
L 581 0 
L 581 3500 
L 1159 3500 
L 1159 2956 
Q 1356 3278 1631 3431 
Q 1906 3584 2284 3584 
Q 2666 3584 2933 3390 
Q 3200 3197 3328 2828 
z
" id="DejaVuSans-6d" transform="scale(0.015625)"/>
       <path d="M 3116 1747 
Q 3116 2381 2855 2742 
Q 2594 3103 2138 3103 
Q 1681 3103 1420 2742 
Q 1159 2381 1159 1747 
Q 1159 1113 1420 752 
Q 1681 391 2138 391 
Q 2594 391 2855 752 
Q 3116 1113 3116 1747 
z
M 1159 2969 
Q 1341 3281 1617 3432 
Q 1894 3584 2278 3584 
Q 2916 3584 3314 3078 
Q 3713 2572 3713 1747 
Q 3713 922 3314 415 
Q 2916 -91 2278 -91 
Q 1894 -91 1617 61 
Q 1341 213 1159 525 
L 1159 0 
L 581 0 
L 581 4863 
L 1159 4863 
L 1159 2969 
z
" id="DejaVuSans-62" transform="scale(0.015625)"/>
       <path d="M 3597 1894 
L 3597 1613 
L 953 1613 
Q 991 1019 1311 708 
Q 1631 397 2203 397 
Q 2534 397 2845 478 
Q 3156 559 3463 722 
L 3463 178 
Q 3153 47 2828 -22 
Q 2503 -91 2169 -91 
Q 1331 -91 842 396 
Q 353 884 353 1716 
Q 353 2575 817 3079 
Q 1281 3584 2069 3584 
Q 2775 3584 3186 3129 
Q 3597 2675 3597 1894 
z
M 3022 2063 
Q 3016 2534 2758 2815 
Q 2500 3097 2075 3097 
Q 1594 3097 1305 2825 
Q 1016 2553 972 2059 
L 3022 2063 
z
" id="DejaVuSans-65" transform="scale(0.015625)"/>
       <path d="M 2631 2963 
Q 2534 3019 2420 3045 
Q 2306 3072 2169 3072 
Q 1681 3072 1420 2755 
Q 1159 2438 1159 1844 
L 1159 0 
L 581 0 
L 581 3500 
L 1159 3500 
L 1159 2956 
Q 1341 3275 1631 3429 
Q 1922 3584 2338 3584 
Q 2397 3584 2469 3576 
Q 2541 3569 2628 3553 
L 2631 2963 
z
" id="DejaVuSans-72" transform="scale(0.015625)"/>
      </defs>
      <use xlink:href="#DejaVuSans-53"/>
      <use x="63.476562" xlink:href="#DejaVuSans-74"/>
      <use x="102.685547" xlink:href="#DejaVuSans-75"/>
      <use x="166.064453" xlink:href="#DejaVuSans-64"/>
      <use x="229.541016" xlink:href="#DejaVuSans-79"/>
      <use x="288.720703" xlink:href="#DejaVuSans-20"/>
      <use x="320.507812" xlink:href="#DejaVuSans-64"/>
      <use x="383.984375" xlink:href="#DejaVuSans-61"/>
      <use x="445.263672" xlink:href="#DejaVuSans-79"/>
      <use x="504.443359" xlink:href="#DejaVuSans-20"/>
      <use x="536.230469" xlink:href="#DejaVuSans-6e"/>
      <use x="599.609375" xlink:href="#DejaVuSans-75"/>
      <use x="662.988281" xlink:href="#DejaVuSans-6d"/>
      <use x="760.400391" xlink:href="#DejaVuSans-62"/>
      <use x="823.876953" xlink:href="#DejaVuSans-65"/>
      <use x="885.400391" xlink:href="#DejaVuSans-72"/>
     </g>
    </g>
   </g>
   <g id="matplotlib.axis_2">
    <g id="ytick_1">
     <g id="line2d_4">
      <defs>
       <path d="M 0 0 
L -4.8 0 
" id="maf5a1f3dc2" style="stroke:#262626;"/>
      </defs>
      <g>
       <use style="fill:#262626;stroke:#262626;" x="47.9975" xlink:href="#maf5a1f3dc2" y="137.862551"/>
      </g>
     </g>
     <g id="text_5">
      <!-- −10 -->
      <g style="fill:#262626;" transform="translate(22.81375 140.901926)scale(0.08 -0.08)">
       <defs>
        <path d="M 678 2272 
L 4684 2272 
L 4684 1741 
L 678 1741 
L 678 2272 
z
" id="DejaVuSans-2212" transform="scale(0.015625)"/>
       </defs>
       <use xlink:href="#DejaVuSans-2212"/>
       <use x="83.789062" xlink:href="#DejaVuSans-31"/>
       <use x="147.412109" xlink:href="#DejaVuSans-30"/>
      </g>
     </g>
    </g>
    <g id="ytick_2">
     <g id="line2d_5">
      <g>
       <use style="fill:#262626;stroke:#262626;" x="47.9975" xlink:href="#maf5a1f3dc2" y="113.984698"/>
      </g>
     </g>
     <g id="text_6">
      <!-- −5 -->
      <g style="fill:#262626;" transform="translate(27.90375 117.024073)scale(0.08 -0.08)">
       <use xlink:href="#DejaVuSans-2212"/>
       <use x="83.789062" xlink:href="#DejaVuSans-35"/>
      </g>
     </g>
    </g>
    <g id="ytick_3">
     <g id="line2d_6">
      <g>
       <use style="fill:#262626;stroke:#262626;" x="47.9975" xlink:href="#maf5a1f3dc2" y="90.106845"/>
      </g>
     </g>
     <g id="text_7">
      <!-- 0 -->
      <g style="fill:#262626;" transform="translate(34.6075 93.14622)scale(0.08 -0.08)">
       <use xlink:href="#DejaVuSans-30"/>
      </g>
     </g>
    </g>
    <g id="ytick_4">
     <g id="line2d_7">
      <g>
       <use style="fill:#262626;stroke:#262626;" x="47.9975" xlink:href="#maf5a1f3dc2" y="66.228993"/>
      </g>
     </g>
     <g id="text_8">
      <!-- 5 -->
      <g style="fill:#262626;" transform="translate(34.6075 69.268368)scale(0.08 -0.08)">
       <use xlink:href="#DejaVuSans-35"/>
      </g>
     </g>
    </g>
    <g id="ytick_5">
     <g id="line2d_8">
      <g>
       <use style="fill:#262626;stroke:#262626;" x="47.9975" xlink:href="#maf5a1f3dc2" y="42.35114"/>
      </g>
     </g>
     <g id="text_9">
      <!-- 10 -->
      <g style="fill:#262626;" transform="translate(29.5175 45.390515)scale(0.08 -0.08)">
       <use xlink:href="#DejaVuSans-31"/>
       <use x="63.623047" xlink:href="#DejaVuSans-30"/>
      </g>
     </g>
    </g>
    <g id="text_10">
     <!-- $Escherichia\ coli$ abundance -->
     <g style="fill:#262626;" transform="translate(16.318125 172.416989)rotate(-90)scale(0.12 -0.12)">
      <defs>
       <path d="M 1081 4666 
L 4031 4666 
L 3928 4134 
L 1606 4134 
L 1338 2753 
L 3566 2753 
L 3463 2222 
L 1234 2222 
L 909 531 
L 3284 531 
L 3181 0 
L 172 0 
L 1081 4666 
z
" id="DejaVuSans-Oblique-45" transform="scale(0.015625)"/>
       <path d="M 3200 3397 
L 3091 2853 
Q 2863 2978 2609 3040 
Q 2356 3103 2088 3103 
Q 1634 3103 1373 2948 
Q 1113 2794 1113 2528 
Q 1113 2219 1719 2053 
Q 1766 2041 1788 2034 
L 1972 1978 
Q 2547 1819 2739 1644 
Q 2931 1469 2931 1166 
Q 2931 609 2489 259 
Q 2047 -91 1331 -91 
Q 1053 -91 747 -37 
Q 441 16 72 128 
L 184 722 
Q 500 559 806 475 
Q 1113 391 1394 391 
Q 1816 391 2080 572 
Q 2344 753 2344 1031 
Q 2344 1331 1650 1516 
L 1591 1531 
L 1394 1581 
Q 956 1697 753 1886 
Q 550 2075 550 2369 
Q 550 2928 970 3256 
Q 1391 3584 2113 3584 
Q 2397 3584 2667 3537 
Q 2938 3491 3200 3397 
z
" id="DejaVuSans-Oblique-73" transform="scale(0.015625)"/>
       <path d="M 3431 3366 
L 3316 2797 
Q 3109 2947 2876 3022 
Q 2644 3097 2394 3097 
Q 2119 3097 1870 3000 
Q 1622 2903 1453 2725 
Q 1184 2453 1037 2087 
Q 891 1722 891 1331 
Q 891 859 1127 628 
Q 1363 397 1844 397 
Q 2081 397 2348 469 
Q 2616 541 2906 684 
L 2797 116 
Q 2547 13 2283 -39 
Q 2019 -91 1741 -91 
Q 1044 -91 669 257 
Q 294 606 294 1253 
Q 294 1797 489 2255 
Q 684 2713 1069 3078 
Q 1331 3328 1684 3456 
Q 2038 3584 2456 3584 
Q 2700 3584 2940 3529 
Q 3181 3475 3431 3366 
z
" id="DejaVuSans-Oblique-63" transform="scale(0.015625)"/>
       <path d="M 3566 2113 
L 3156 0 
L 2578 0 
L 2988 2091 
Q 3016 2238 3031 2350 
Q 3047 2463 3047 2528 
Q 3047 2791 2881 2937 
Q 2716 3084 2419 3084 
Q 1956 3084 1617 2771 
Q 1278 2459 1178 1941 
L 800 0 
L 225 0 
L 1172 4863 
L 1747 4863 
L 1375 2950 
Q 1594 3244 1934 3414 
Q 2275 3584 2650 3584 
Q 3113 3584 3367 3334 
Q 3622 3084 3622 2631 
Q 3622 2519 3608 2391 
Q 3594 2263 3566 2113 
z
" id="DejaVuSans-Oblique-68" transform="scale(0.015625)"/>
       <path d="M 3078 2063 
Q 3088 2113 3092 2166 
Q 3097 2219 3097 2272 
Q 3097 2653 2873 2875 
Q 2650 3097 2266 3097 
Q 1838 3097 1509 2826 
Q 1181 2556 1013 2059 
L 3078 2063 
z
M 3578 1613 
L 903 1613 
Q 884 1494 878 1425 
Q 872 1356 872 1306 
Q 872 872 1139 634 
Q 1406 397 1894 397 
Q 2269 397 2603 481 
Q 2938 566 3225 728 
L 3116 159 
Q 2806 34 2476 -28 
Q 2147 -91 1806 -91 
Q 1078 -91 686 257 
Q 294 606 294 1247 
Q 294 1794 489 2264 
Q 684 2734 1063 3103 
Q 1306 3334 1642 3459 
Q 1978 3584 2356 3584 
Q 2950 3584 3301 3228 
Q 3653 2872 3653 2272 
Q 3653 2128 3634 1964 
Q 3616 1800 3578 1613 
z
" id="DejaVuSans-Oblique-65" transform="scale(0.015625)"/>
       <path d="M 2853 2969 
Q 2766 3016 2653 3041 
Q 2541 3066 2413 3066 
Q 1953 3066 1609 2717 
Q 1266 2369 1153 1784 
L 800 0 
L 225 0 
L 909 3500 
L 1484 3500 
L 1375 2956 
Q 1603 3259 1920 3421 
Q 2238 3584 2597 3584 
Q 2691 3584 2781 3573 
Q 2872 3563 2963 3538 
L 2853 2969 
z
" id="DejaVuSans-Oblique-72" transform="scale(0.015625)"/>
       <path d="M 1172 4863 
L 1747 4863 
L 1606 4134 
L 1031 4134 
L 1172 4863 
z
M 909 3500 
L 1484 3500 
L 800 0 
L 225 0 
L 909 3500 
z
" id="DejaVuSans-Oblique-69" transform="scale(0.015625)"/>
       <path d="M 3438 1997 
L 3047 0 
L 2472 0 
L 2578 531 
Q 2325 219 2001 64 
Q 1678 -91 1281 -91 
Q 834 -91 548 182 
Q 263 456 263 884 
Q 263 1497 752 1853 
Q 1241 2209 2100 2209 
L 2900 2209 
L 2931 2363 
Q 2938 2388 2941 2417 
Q 2944 2447 2944 2509 
Q 2944 2788 2717 2942 
Q 2491 3097 2081 3097 
Q 1800 3097 1504 3025 
Q 1209 2953 897 2809 
L 997 3341 
Q 1322 3463 1633 3523 
Q 1944 3584 2234 3584 
Q 2853 3584 3176 3315 
Q 3500 3047 3500 2534 
Q 3500 2431 3484 2292 
Q 3469 2153 3438 1997 
z
M 2816 1759 
L 2241 1759 
Q 1534 1759 1195 1570 
Q 856 1381 856 984 
Q 856 709 1029 553 
Q 1203 397 1509 397 
Q 1978 397 2328 733 
Q 2678 1069 2791 1631 
L 2816 1759 
z
" id="DejaVuSans-Oblique-61" transform="scale(0.015625)"/>
       <path d="M 1625 -91 
Q 1009 -91 651 289 
Q 294 669 294 1325 
Q 294 1706 417 2101 
Q 541 2497 738 2766 
Q 1047 3184 1428 3384 
Q 1809 3584 2291 3584 
Q 2888 3584 3255 3212 
Q 3622 2841 3622 2241 
Q 3622 1825 3500 1412 
Q 3378 1000 3181 728 
Q 2875 309 2494 109 
Q 2113 -91 1625 -91 
z
M 891 1344 
Q 891 869 1089 633 
Q 1288 397 1691 397 
Q 2269 397 2648 901 
Q 3028 1406 3028 2181 
Q 3028 2634 2825 2865 
Q 2622 3097 2228 3097 
Q 1903 3097 1650 2945 
Q 1397 2794 1197 2484 
Q 1050 2253 970 1956 
Q 891 1659 891 1344 
z
" id="DejaVuSans-Oblique-6f" transform="scale(0.015625)"/>
       <path d="M 1172 4863 
L 1747 4863 
L 800 0 
L 225 0 
L 1172 4863 
z
" id="DejaVuSans-Oblique-6c" transform="scale(0.015625)"/>
       <path d="M 3122 3366 
L 3122 2828 
Q 2878 2963 2633 3030 
Q 2388 3097 2138 3097 
Q 1578 3097 1268 2742 
Q 959 2388 959 1747 
Q 959 1106 1268 751 
Q 1578 397 2138 397 
Q 2388 397 2633 464 
Q 2878 531 3122 666 
L 3122 134 
Q 2881 22 2623 -34 
Q 2366 -91 2075 -91 
Q 1284 -91 818 406 
Q 353 903 353 1747 
Q 353 2603 823 3093 
Q 1294 3584 2113 3584 
Q 2378 3584 2631 3529 
Q 2884 3475 3122 3366 
z
" id="DejaVuSans-63" transform="scale(0.015625)"/>
      </defs>
      <use transform="translate(0 0.015625)" xlink:href="#DejaVuSans-Oblique-45"/>
      <use transform="translate(63.183594 0.015625)" xlink:href="#DejaVuSans-Oblique-73"/>
      <use transform="translate(115.283203 0.015625)" xlink:href="#DejaVuSans-Oblique-63"/>
      <use transform="translate(170.263672 0.015625)" xlink:href="#DejaVuSans-Oblique-68"/>
      <use transform="translate(233.642578 0.015625)" xlink:href="#DejaVuSans-Oblique-65"/>
      <use transform="translate(295.166016 0.015625)" xlink:href="#DejaVuSans-Oblique-72"/>
      <use transform="translate(336.279297 0.015625)" xlink:href="#DejaVuSans-Oblique-69"/>
      <use transform="translate(364.0625 0.015625)" xlink:href="#DejaVuSans-Oblique-63"/>
      <use transform="translate(419.042969 0.015625)" xlink:href="#DejaVuSans-Oblique-68"/>
      <use transform="translate(482.421875 0.015625)" xlink:href="#DejaVuSans-Oblique-69"/>
      <use transform="translate(510.205078 0.015625)" xlink:href="#DejaVuSans-Oblique-61"/>
      <use transform="translate(603.954753 0.015625)" xlink:href="#DejaVuSans-Oblique-63"/>
      <use transform="translate(658.935222 0.015625)" xlink:href="#DejaVuSans-Oblique-6f"/>
      <use transform="translate(720.116863 0.015625)" xlink:href="#DejaVuSans-Oblique-6c"/>
      <use transform="translate(747.900066 0.015625)" xlink:href="#DejaVuSans-Oblique-69"/>
      <use transform="translate(775.683269 0.015625)" xlink:href="#DejaVuSans-20"/>
      <use transform="translate(807.470378 0.015625)" xlink:href="#DejaVuSans-61"/>
      <use transform="translate(868.749675 0.015625)" xlink:href="#DejaVuSans-62"/>
      <use transform="translate(932.226238 0.015625)" xlink:href="#DejaVuSans-75"/>
      <use transform="translate(995.605144 0.015625)" xlink:href="#DejaVuSans-6e"/>
      <use transform="translate(1058.98405 0.015625)" xlink:href="#DejaVuSans-64"/>
      <use transform="translate(1122.460613 0.015625)" xlink:href="#DejaVuSans-61"/>
      <use transform="translate(1183.73991 0.015625)" xlink:href="#DejaVuSans-6e"/>
      <use transform="translate(1247.118816 0.015625)" xlink:href="#DejaVuSans-63"/>
      <use transform="translate(1302.099285 0.015625)" xlink:href="#DejaVuSans-65"/>
     </g>
    </g>
   </g>
   <g id="PathCollection_1">
    <defs>
     <path d="M 0 2.4 
C 0.636487 2.4 1.246992 2.147121 1.697056 1.697056 
C 2.147121 1.246992 2.4 0.636487 2.4 0 
C 2.4 -0.636487 2.147121 -1.246992 1.697056 -1.697056 
C 1.246992 -2.147121 0.636487 -2.4 0 -2.4 
C -0.636487 -2.4 -1.246992 -2.147121 -1.697056 -1.697056 
C -2.147121 -1.246992 -2.4 -0.636487 -2.4 0 
C -2.4 0.636487 -2.147121 1.246992 -1.697056 1.697056 
C -1.246992 2.147121 -0.636487 2.4 0 2.4 
z
" id="m27ff0d3876" style="stroke:#0173b2;stroke-width:0.8;"/>
    </defs>
    <g clip-path="url(#p8d3d888a81)">
     <use style="fill:#0173b2;stroke:#0173b2;stroke-width:0.8;" x="56.240682" xlink:href="#m27ff0d3876" y="86.476982"/>
     <use style="fill:#0173b2;stroke:#0173b2;stroke-width:0.8;" x="87.152614" xlink:href="#m27ff0d3876" y="85.160797"/>
     <use style="fill:#0173b2;stroke:#0173b2;stroke-width:0.8;" x="107.760568" xlink:href="#m27ff0d3876" y="74.554948"/>
     <use style="fill:#0173b2;stroke:#0173b2;stroke-width:0.8;" x="138.6725" xlink:href="#m27ff0d3876" y="75.125508"/>
     <use style="fill:#0173b2;stroke:#0173b2;stroke-width:0.8;" x="148.976477" xlink:href="#m27ff0d3876" y="89.299312"/>
     <use style="fill:#0173b2;stroke:#0173b2;stroke-width:0.8;" x="159.280455" xlink:href="#m27ff0d3876" y="86.907545"/>
     <use style="fill:#0173b2;stroke:#0173b2;stroke-width:0.8;" x="179.888409" xlink:href="#m27ff0d3876" y="70.396424"/>
    </g>
   </g>
   <g id="PathCollection_2">
    <defs>
     <path d="M 0 2.4 
C 0.636487 2.4 1.246992 2.147121 1.697056 1.697056 
C 2.147121 1.246992 2.4 0.636487 2.4 0 
C 2.4 -0.636487 2.147121 -1.246992 1.697056 -1.697056 
C 1.246992 -2.147121 0.636487 -2.4 0 -2.4 
C -0.636487 -2.4 -1.246992 -2.147121 -1.697056 -1.697056 
C -2.147121 -1.246992 -2.4 -0.636487 -2.4 0 
C -2.4 0.636487 -2.147121 1.246992 -1.697056 1.697056 
C -1.246992 2.147121 -0.636487 2.4 0 2.4 
z
" id="mc867fb98fd" style="stroke:#de8f05;stroke-width:0.8;"/>
    </defs>
    <g clip-path="url(#p8d3d888a81)">
     <use style="fill:#de8f05;stroke:#de8f05;stroke-width:0.8;" x="56.240682" xlink:href="#mc867fb98fd" y="99.196919"/>
     <use style="fill:#de8f05;stroke:#de8f05;stroke-width:0.8;" x="66.544659" xlink:href="#mc867fb98fd" y="79.830143"/>
     <use style="fill:#de8f05;stroke:#de8f05;stroke-width:0.8;" x="76.848636" xlink:href="#mc867fb98fd" y="85.265546"/>
     <use style="fill:#de8f05;stroke:#de8f05;stroke-width:0.8;" x="97.456591" xlink:href="#mc867fb98fd" y="86.837095"/>
     <use style="fill:#de8f05;stroke:#de8f05;stroke-width:0.8;" x="107.760568" xlink:href="#mc867fb98fd" y="81.482213"/>
     <use style="fill:#de8f05;stroke:#de8f05;stroke-width:0.8;" x="118.064545" xlink:href="#mc867fb98fd" y="90.284124"/>
     <use style="fill:#de8f05;stroke:#de8f05;stroke-width:0.8;" x="128.368523" xlink:href="#mc867fb98fd" y="91.72934"/>
     <use style="fill:#de8f05;stroke:#de8f05;stroke-width:0.8;" x="138.6725" xlink:href="#mc867fb98fd" y="78.216487"/>
     <use style="fill:#de8f05;stroke:#de8f05;stroke-width:0.8;" x="148.976477" xlink:href="#mc867fb98fd" y="82.218221"/>
     <use style="fill:#de8f05;stroke:#de8f05;stroke-width:0.8;" x="179.888409" xlink:href="#mc867fb98fd" y="69.034348"/>
     <use style="fill:#de8f05;stroke:#de8f05;stroke-width:0.8;" x="200.496364" xlink:href="#mc867fb98fd" y="76.592721"/>
     <use style="fill:#de8f05;stroke:#de8f05;stroke-width:0.8;" x="210.800341" xlink:href="#mc867fb98fd" y="74.052999"/>
     <use style="fill:#de8f05;stroke:#de8f05;stroke-width:0.8;" x="221.104318" xlink:href="#mc867fb98fd" y="79.403947"/>
    </g>
   </g>
   <g id="PathCollection_3">
    <defs>
     <path d="M 0 2.4 
C 0.636487 2.4 1.246992 2.147121 1.697056 1.697056 
C 2.147121 1.246992 2.4 0.636487 2.4 0 
C 2.4 -0.636487 2.147121 -1.246992 1.697056 -1.697056 
C 1.246992 -2.147121 0.636487 -2.4 0 -2.4 
C -0.636487 -2.4 -1.246992 -2.147121 -1.697056 -1.697056 
C -2.147121 -1.246992 -2.4 -0.636487 -2.4 0 
C -2.4 0.636487 -2.147121 1.246992 -1.697056 1.697056 
C -1.246992 2.147121 -0.636487 2.4 0 2.4 
z
" id="mb2c65abf6c" style="stroke:#029e73;stroke-width:0.8;"/>
    </defs>
    <g clip-path="url(#p8d3d888a81)">
     <use style="fill:#029e73;stroke:#029e73;stroke-width:0.8;" x="56.240682" xlink:href="#mb2c65abf6c" y="134.51379"/>
     <use style="fill:#029e73;stroke:#029e73;stroke-width:0.8;" x="66.544659" xlink:href="#mb2c65abf6c" y="72.143466"/>
     <use style="fill:#029e73;stroke:#029e73;stroke-width:0.8;" x="76.848636" xlink:href="#mb2c65abf6c" y="137.843091"/>
     <use style="fill:#029e73;stroke:#029e73;stroke-width:0.8;" x="87.152614" xlink:href="#mb2c65abf6c" y="132.449257"/>
     <use style="fill:#029e73;stroke:#029e73;stroke-width:0.8;" x="97.456591" xlink:href="#mb2c65abf6c" y="132.055428"/>
     <use style="fill:#029e73;stroke:#029e73;stroke-width:0.8;" x="107.760568" xlink:href="#mb2c65abf6c" y="138.81795"/>
     <use style="fill:#029e73;stroke:#029e73;stroke-width:0.8;" x="128.368523" xlink:href="#mb2c65abf6c" y="82.822663"/>
     <use style="fill:#029e73;stroke:#029e73;stroke-width:0.8;" x="138.6725" xlink:href="#mb2c65abf6c" y="140.161726"/>
     <use style="fill:#029e73;stroke:#029e73;stroke-width:0.8;" x="148.976477" xlink:href="#mb2c65abf6c" y="132.904982"/>
     <use style="fill:#029e73;stroke:#029e73;stroke-width:0.8;" x="159.280455" xlink:href="#mb2c65abf6c" y="90.257616"/>
     <use style="fill:#029e73;stroke:#029e73;stroke-width:0.8;" x="169.584432" xlink:href="#mb2c65abf6c" y="138.766612"/>
     <use style="fill:#029e73;stroke:#029e73;stroke-width:0.8;" x="179.888409" xlink:href="#mb2c65abf6c" y="140.571949"/>
     <use style="fill:#029e73;stroke:#029e73;stroke-width:0.8;" x="190.192386" xlink:href="#mb2c65abf6c" y="86.42141"/>
     <use style="fill:#029e73;stroke:#029e73;stroke-width:0.8;" x="200.496364" xlink:href="#mb2c65abf6c" y="134.351952"/>
     <use style="fill:#029e73;stroke:#029e73;stroke-width:0.8;" x="210.800341" xlink:href="#mb2c65abf6c" y="85.19995"/>
     <use style="fill:#029e73;stroke:#029e73;stroke-width:0.8;" x="221.104318" xlink:href="#mb2c65abf6c" y="133.323599"/>
    </g>
   </g>
   <g id="PathCollection_4">
    <defs>
     <path d="M 0 2.4 
C 0.636487 2.4 1.246992 2.147121 1.697056 1.697056 
C 2.147121 1.246992 2.4 0.636487 2.4 0 
C 2.4 -0.636487 2.147121 -1.246992 1.697056 -1.697056 
C 1.246992 -2.147121 0.636487 -2.4 0 -2.4 
C -0.636487 -2.4 -1.246992 -2.147121 -1.697056 -1.697056 
C -2.147121 -1.246992 -2.4 -0.636487 -2.4 0 
C -2.4 0.636487 -2.147121 1.246992 -1.697056 1.697056 
C -1.246992 2.147121 -0.636487 2.4 0 2.4 
z
" id="m351f095e24" style="stroke:#d55e00;stroke-width:0.8;"/>
    </defs>
    <g clip-path="url(#p8d3d888a81)">
     <use style="fill:#d55e00;stroke:#d55e00;stroke-width:0.8;" x="56.240682" xlink:href="#m351f095e24" y="39.61384"/>
     <use style="fill:#d55e00;stroke:#d55e00;stroke-width:0.8;" x="66.544659" xlink:href="#m351f095e24" y="44.125288"/>
     <use style="fill:#d55e00;stroke:#d55e00;stroke-width:0.8;" x="76.848636" xlink:href="#m351f095e24" y="51.901431"/>
     <use style="fill:#d55e00;stroke:#d55e00;stroke-width:0.8;" x="87.152614" xlink:href="#m351f095e24" y="30.917677"/>
     <use style="fill:#d55e00;stroke:#d55e00;stroke-width:0.8;" x="107.760568" xlink:href="#m351f095e24" y="51.843852"/>
     <use style="fill:#d55e00;stroke:#d55e00;stroke-width:0.8;" x="128.368523" xlink:href="#m351f095e24" y="44.024126"/>
     <use style="fill:#d55e00;stroke:#d55e00;stroke-width:0.8;" x="138.6725" xlink:href="#m351f095e24" y="33.348704"/>
     <use style="fill:#d55e00;stroke:#d55e00;stroke-width:0.8;" x="148.976477" xlink:href="#m351f095e24" y="51.196511"/>
     <use style="fill:#d55e00;stroke:#d55e00;stroke-width:0.8;" x="159.280455" xlink:href="#m351f095e24" y="45.944896"/>
     <use style="fill:#d55e00;stroke:#d55e00;stroke-width:0.8;" x="169.584432" xlink:href="#m351f095e24" y="43.760372"/>
     <use style="fill:#d55e00;stroke:#d55e00;stroke-width:0.8;" x="179.888409" xlink:href="#m351f095e24" y="49.064178"/>
     <use style="fill:#d55e00;stroke:#d55e00;stroke-width:0.8;" x="200.496364" xlink:href="#m351f095e24" y="43.367851"/>
     <use style="fill:#d55e00;stroke:#d55e00;stroke-width:0.8;" x="210.800341" xlink:href="#m351f095e24" y="43.689993"/>
    </g>
   </g>
   <g id="line2d_9">
    <path clip-path="url(#p8d3d888a81)" d="M 56.240682 86.476982 
L 58.928228 87.398528 
L 61.64875 88.095905 
L 64.402248 88.571822 
L 67.20521 88.830583 
L 70.074124 88.872239 
L 73.041966 88.691504 
L 76.108737 88.280781 
L 79.307411 87.626894 
L 82.670966 86.710509 
L 86.232376 85.507557 
L 90.057595 83.976901 
L 94.212574 82.069523 
L 98.81273 79.707109 
L 104.105382 76.730874 
L 117.081448 69.284613 
L 119.571138 68.259282 
L 121.731067 67.603478 
L 123.693141 67.235266 
L 125.506822 67.117419 
L 127.221575 67.227012 
L 128.870377 67.556073 
L 130.469714 68.103735 
L 132.036075 68.875734 
L 133.602436 69.897971 
L 135.185285 71.202446 
L 136.784623 72.815449 
L 138.416936 74.786072 
L 140.181153 77.282997 
L 143.594172 82.609501 
L 145.902493 85.981744 
L 147.468855 87.895316 
L 148.738432 89.11139 
L 149.82664 89.859129 
L 150.881873 90.32199 
L 151.937106 90.544518 
L 153.008827 90.542817 
L 154.130012 90.31557 
L 155.333637 89.838972 
L 156.652678 89.070596 
L 158.136599 87.940596 
L 159.86784 86.330492 
L 162.011282 84.013898 
L 165.325372 80.056211 
L 169.266007 75.433611 
L 171.392961 73.281445 
L 173.107714 71.850649 
L 174.575147 70.904418 
L 175.8777 70.320259 
L 177.064837 70.026854 
L 178.169534 69.981492 
L 179.224767 70.162354 
L 179.884287 70.394672 
L 179.884287 70.394672 
" style="fill:none;stroke:#0173b2;stroke-dasharray:4.44,1.92;stroke-dashoffset:0;stroke-width:1.2;"/>
   </g>
   <g id="line2d_10">
    <path clip-path="url(#p8d3d888a81)" d="M 56.240682 99.196919 
L 57.592699 94.149846 
L 58.878764 90.173308 
L 60.098877 87.088364 
L 61.269526 84.709666 
L 62.374222 82.945764 
L 63.429455 81.661229 
L 64.451712 80.758234 
L 65.440993 80.175665 
L 66.413785 79.855509 
L 67.419554 79.760286 
L 68.474787 79.88715 
L 69.645436 80.260125 
L 70.980965 80.928073 
L 72.646254 82.025224 
L 75.41624 84.167652 
L 78.120274 86.155552 
L 80.263716 87.443719 
L 82.291741 88.408696 
L 84.237327 89.09344 
L 86.11696 89.522778 
L 87.94713 89.71421 
L 89.727835 89.679109 
L 91.492052 89.422599 
L 93.25627 88.939062 
L 95.020487 88.222195 
L 96.801192 87.255605 
L 98.680826 85.973258 
L 103.660206 82.428973 
L 105.061687 81.778654 
L 106.232336 81.471441 
L 107.27108 81.422112 
L 108.243873 81.59768 
L 109.282618 82.021271 
L 110.453267 82.747324 
L 111.854748 83.891537 
L 113.701405 85.711008 
L 119.060009 91.172651 
L 120.593394 92.315408 
L 121.928923 93.04453 
L 123.11606 93.449339 
L 124.204269 93.593309 
L 125.243014 93.506844 
L 126.248783 93.196048 
L 127.238063 92.655022 
L 128.243832 91.84826 
L 129.332041 90.675128 
L 130.684058 88.868944 
L 132.74506 85.693855 
L 135.630462 81.30624 
L 137.015455 79.604452 
L 138.103664 78.597812 
L 139.010504 78.042522 
L 139.884369 77.766258 
L 140.79121 77.716572 
L 141.764002 77.891095 
L 142.885187 78.328024 
L 144.286668 79.129736 
L 146.891774 80.94343 
L 148.787896 82.122324 
L 150.123425 82.692651 
L 151.458954 83.020995 
L 152.827459 83.12706 
L 154.261916 83.010952 
L 155.778813 82.661879 
L 157.444102 82.044672 
L 159.307248 81.109791 
L 161.500153 79.749314 
L 164.336091 77.708904 
L 172.266825 71.852706 
L 174.459731 70.592754 
L 176.322876 69.770013 
L 177.971678 69.277496 
L 179.488575 69.053177 
L 180.923032 69.066219 
L 182.456417 69.307824 
L 184.17117 69.810361 
L 186.182708 70.642208 
L 188.837278 71.999372 
L 195.053259 75.261171 
L 197.097772 76.0307 
L 198.812525 76.445576 
L 200.345911 76.591402 
L 201.813344 76.505673 
L 203.544585 76.171725 
L 205.918859 75.465074 
L 210.189254 74.175321 
L 211.936983 73.902394 
L 213.404416 73.892366 
L 214.723457 74.103499 
L 215.960058 74.528449 
L 217.147195 75.175032 
L 218.317844 76.070983 
L 219.488493 77.252165 
L 220.67563 78.77057 
L 221.104318 79.403947 
L 221.104318 79.403947 
" style="fill:none;stroke:#de8f05;stroke-dasharray:4.44,1.92;stroke-dashoffset:0;stroke-width:1.2;"/>
   </g>
   <g id="line2d_11">
    <path clip-path="url(#p8d3d888a81)" d="M 56.240682 134.51379 
L 57.361867 113.06519 
L 58.417099 96.935311 
L 59.389892 85.288905 
L 60.280245 77.135837 
L 61.088157 71.656302 
L 61.797142 68.242536 
L 62.423686 66.235397 
L 62.934815 65.254411 
L 63.363503 64.859857 
L 63.709751 64.811825 
L 64.056 64.99432 
L 64.4682 65.497601 
L 64.96284 66.48824 
L 65.572897 68.24795 
L 66.314857 71.110791 
L 67.238186 75.633719 
L 68.392347 82.500033 
L 69.94222 93.199584 
L 74.83916 128.037739 
L 75.993321 134.240614 
L 76.916649 138.087749 
L 77.691586 140.435654 
L 78.400571 141.92223 
L 79.027115 142.760325 
L 79.587707 143.168014 
L 80.115324 143.284659 
L 80.64294 143.168062 
L 81.220021 142.803229 
L 81.912517 142.083347 
L 82.769894 140.846546 
L 83.940543 138.725239 
L 87.69981 131.598447 
L 88.755042 130.260432 
L 89.744323 129.353932 
L 90.667652 128.79741 
L 91.558004 128.513261 
L 92.431869 128.464208 
L 93.322222 128.637102 
L 94.262038 129.051045 
L 95.267807 129.742304 
L 96.372504 130.778081 
L 97.609105 132.254625 
L 99.257906 134.616698 
L 101.96194 138.479928 
L 103.116101 139.737699 
L 104.022942 140.421158 
L 104.78139 140.730583 
L 105.440911 140.771188 
L 106.067455 140.586905 
L 106.694 140.16177 
L 107.35352 139.428446 
L 108.062505 138.283501 
L 108.870418 136.527065 
L 109.84321 133.840368 
L 110.997371 129.959699 
L 112.431828 124.303473 
L 114.377414 115.641691 
L 119.505186 92.374226 
L 120.972619 86.944004 
L 122.159756 83.350137 
L 123.132548 81.062028 
L 123.940461 79.680979 
L 124.616469 78.927577 
L 125.177062 78.603794 
L 125.671702 78.559438 
L 126.149855 78.743234 
L 126.660983 79.198331 
L 127.221575 80.019916 
L 127.84812 81.357909 
L 128.557104 83.435171 
L 129.381505 86.592635 
L 130.403762 91.449666 
L 131.706315 98.794512 
L 133.684876 111.390585 
L 136.63623 130.03308 
L 137.988247 137.155243 
L 139.026992 141.53047 
L 139.933833 144.43764 
L 140.741746 146.32714 
L 141.45073 147.458954 
L 142.060787 148.050518 
L 142.604891 148.287615 
L 143.099531 148.27115 
L 143.61066 148.027353 
L 144.171252 147.501237 
L 144.814285 146.573359 
L 145.556245 145.085448 
L 146.413622 142.829902 
L 147.386415 139.605291 
L 148.491111 135.130869 
L 149.760688 129.003696 
L 151.640322 118.675487 
L 154.47626 103.206493 
L 155.762325 97.415189 
L 156.751606 93.906133 
L 157.54303 91.851136 
L 158.169575 90.777704 
L 158.664215 90.315026 
L 159.076415 90.210034 
L 159.439152 90.341548 
L 159.851352 90.746291 
L 160.345992 91.569187 
L 160.956049 93.050635 
L 161.698009 95.474213 
L 162.621338 99.306162 
L 163.791987 105.19276 
L 165.440788 114.751506 
L 169.167079 136.676003 
L 170.40368 142.47759 
L 171.475401 146.507889 
L 172.415217 149.239895 
L 173.22313 150.964473 
L 173.915627 151.96774 
L 174.509195 152.468798 
L 175.020323 152.628492 
L 175.498476 152.545545 
L 175.993116 152.218952 
L 176.537221 151.571541 
L 177.147277 150.479445 
L 177.839774 148.760257 
L 178.631198 146.155846 
L 179.505063 142.466216 
L 180.477856 137.337317 
L 181.730944 129.428978 
L 184.00629 113.320566 
L 185.935388 100.360133 
L 187.106037 93.892318 
L 188.012877 90.027394 
L 188.721862 87.879828 
L 189.282454 86.810994 
L 189.711143 86.408678 
L 190.057391 86.366255 
L 190.370663 86.557209 
L 190.749887 87.075455 
L 191.22804 88.143156 
L 191.838096 90.106184 
L 192.613033 93.427279 
L 193.618801 98.810639 
L 195.135699 108.315078 
L 197.674853 124.204603 
L 198.730085 129.406696 
L 199.52151 132.307413 
L 200.131566 133.80685 
L 200.609719 134.463695 
L 200.988943 134.64054 
L 201.318703 134.557368 
L 201.68144 134.224731 
L 202.126616 133.491641 
L 202.687208 132.097742 
L 203.379705 129.724918 
L 204.237081 125.930294 
L 205.32529 120.027621 
L 206.858675 110.345479 
L 210.568478 86.464236 
L 211.706151 80.767558 
L 212.596504 77.359086 
L 213.289 75.494168 
L 213.833105 74.582853 
L 214.261793 74.242864 
L 214.608041 74.229144 
L 214.937802 74.445115 
L 215.317026 74.983883 
L 215.762202 76.033895 
L 216.289819 77.896932 
L 216.899875 80.942361 
L 217.575884 85.512196 
L 218.334332 92.245999 
L 219.158733 101.639511 
L 220.065573 114.662943 
L 221.038366 132.013954 
L 221.104318 133.323599 
L 221.104318 133.323599 
" style="fill:none;stroke:#029e73;stroke-dasharray:4.44,1.92;stroke-dashoffset:0;stroke-width:1.2;"/>
   </g>
   <g id="line2d_12">
    <path clip-path="url(#p8d3d888a81)" d="M 56.240682 39.61384 
L 57.098058 38.424607 
L 57.905971 37.668521 
L 58.66442 37.254695 
L 59.389892 37.10485 
L 60.131853 37.178566 
L 60.923277 37.485496 
L 61.81363 38.079812 
L 62.852375 39.057351 
L 64.105464 40.5616 
L 65.770753 42.93751 
L 70.700669 50.195035 
L 71.970246 51.560955 
L 73.00899 52.369024 
L 73.899343 52.79049 
L 74.67428 52.922168 
L 75.399752 52.823667 
L 76.108737 52.499969 
L 76.834209 51.915782 
L 77.625634 50.974221 
L 78.581939 49.462738 
L 79.769076 47.134924 
L 81.401389 43.391095 
L 85.506904 33.762599 
L 86.727017 31.554204 
L 87.716298 30.1968 
L 88.60665 29.334203 
L 89.447539 28.812714 
L 90.255451 28.562508 
L 91.063364 28.541583 
L 91.904253 28.745748 
L 92.811093 29.203325 
L 93.816862 29.971646 
L 94.954535 31.133015 
L 96.273576 32.810083 
L 97.872913 35.222024 
L 99.999867 38.866171 
L 106.017991 49.41389 
L 107.650305 51.705501 
L 109.035298 53.277023 
L 110.354339 54.444961 
L 111.607428 55.267546 
L 112.827541 55.808914 
L 114.031165 56.100542 
L 115.218302 56.160463 
L 116.421927 55.998556 
L 117.675016 55.600698 
L 118.977569 54.949124 
L 120.362562 54.001825 
L 121.846483 52.709897 
L 123.445821 51.014177 
L 125.177062 48.845987 
L 127.073183 46.103094 
L 129.167161 42.669548 
L 132.794524 36.650245 
L 134.146541 34.867178 
L 135.218261 33.79497 
L 136.125102 33.185563 
L 136.900039 32.918476 
L 137.609023 32.905071 
L 138.285032 33.118855 
L 138.96104 33.572751 
L 139.735977 34.382598 
L 140.659305 35.69054 
L 141.829954 37.765478 
L 143.511732 41.253781 
L 146.710406 47.933425 
L 147.930519 49.937634 
L 148.886824 51.108392 
L 149.694736 51.761313 
L 150.469673 52.107981 
L 151.244609 52.210365 
L 152.052522 52.088432 
L 152.942875 51.72265 
L 153.98162 51.046392 
L 155.300661 49.905683 
L 157.658446 47.506738 
L 159.604032 45.669806 
L 161.038489 44.628072 
L 162.43997 43.880831 
L 163.824963 43.392589 
L 165.209956 43.140803 
L 166.611437 43.114222 
L 168.045894 43.311568 
L 169.546303 43.746412 
L 171.195105 44.464723 
L 173.420986 45.697168 
L 178.20251 48.40432 
L 179.884287 49.0629 
L 181.384696 49.410771 
L 182.934569 49.541291 
L 184.583371 49.455654 
L 186.397052 49.133251 
L 188.441566 48.537122 
L 190.931255 47.567191 
L 194.805938 45.782247 
L 199.043358 43.898896 
L 201.467095 43.065189 
L 203.462145 42.606708 
L 205.226362 42.423559 
L 206.842187 42.475329 
L 208.359085 42.743829 
L 209.81003 43.224439 
L 210.79931 43.689448 
L 210.79931 43.689448 
" style="fill:none;stroke:#d55e00;stroke-dasharray:4.44,1.92;stroke-dashoffset:0;stroke-width:1.2;"/>
   </g>
   <g id="patch_3">
    <path d="M 47.9975 158.835852 
L 47.9975 22.318125 
" style="fill:none;stroke:#262626;stroke-linecap:square;stroke-linejoin:miter;stroke-width:0.6;"/>
   </g>
   <g id="patch_4">
    <path d="M 229.3475 158.835852 
L 229.3475 22.318125 
" style="fill:none;stroke:#262626;stroke-linecap:square;stroke-linejoin:miter;stroke-width:0.6;"/>
   </g>
   <g id="patch_5">
    <path d="M 47.9975 158.835852 
L 229.3475 158.835852 
" style="fill:none;stroke:#262626;stroke-linecap:square;stroke-linejoin:miter;stroke-width:0.6;"/>
   </g>
   <g id="patch_6">
    <path d="M 47.9975 22.318125 
L 229.3475 22.318125 
" style="fill:none;stroke:#262626;stroke-linecap:square;stroke-linejoin:miter;stroke-width:0.6;"/>
   </g>
   <g id="text_11">
    <!-- B-spline interpolation -->
    <g style="fill:#262626;" transform="translate(74.424688 16.318125)scale(0.12 -0.12)">
     <defs>
      <path d="M 1259 2228 
L 1259 519 
L 2272 519 
Q 2781 519 3026 730 
Q 3272 941 3272 1375 
Q 3272 1813 3026 2020 
Q 2781 2228 2272 2228 
L 1259 2228 
z
M 1259 4147 
L 1259 2741 
L 2194 2741 
Q 2656 2741 2882 2914 
Q 3109 3088 3109 3444 
Q 3109 3797 2882 3972 
Q 2656 4147 2194 4147 
L 1259 4147 
z
M 628 4666 
L 2241 4666 
Q 2963 4666 3353 4366 
Q 3744 4066 3744 3513 
Q 3744 3084 3544 2831 
Q 3344 2578 2956 2516 
Q 3422 2416 3680 2098 
Q 3938 1781 3938 1306 
Q 3938 681 3513 340 
Q 3088 0 2303 0 
L 628 0 
L 628 4666 
z
" id="DejaVuSans-42" transform="scale(0.015625)"/>
      <path d="M 313 2009 
L 1997 2009 
L 1997 1497 
L 313 1497 
L 313 2009 
z
" id="DejaVuSans-2d" transform="scale(0.015625)"/>
      <path d="M 2834 3397 
L 2834 2853 
Q 2591 2978 2328 3040 
Q 2066 3103 1784 3103 
Q 1356 3103 1142 2972 
Q 928 2841 928 2578 
Q 928 2378 1081 2264 
Q 1234 2150 1697 2047 
L 1894 2003 
Q 2506 1872 2764 1633 
Q 3022 1394 3022 966 
Q 3022 478 2636 193 
Q 2250 -91 1575 -91 
Q 1294 -91 989 -36 
Q 684 19 347 128 
L 347 722 
Q 666 556 975 473 
Q 1284 391 1588 391 
Q 1994 391 2212 530 
Q 2431 669 2431 922 
Q 2431 1156 2273 1281 
Q 2116 1406 1581 1522 
L 1381 1569 
Q 847 1681 609 1914 
Q 372 2147 372 2553 
Q 372 3047 722 3315 
Q 1072 3584 1716 3584 
Q 2034 3584 2315 3537 
Q 2597 3491 2834 3397 
z
" id="DejaVuSans-73" transform="scale(0.015625)"/>
      <path d="M 1159 525 
L 1159 -1331 
L 581 -1331 
L 581 3500 
L 1159 3500 
L 1159 2969 
Q 1341 3281 1617 3432 
Q 1894 3584 2278 3584 
Q 2916 3584 3314 3078 
Q 3713 2572 3713 1747 
Q 3713 922 3314 415 
Q 2916 -91 2278 -91 
Q 1894 -91 1617 61 
Q 1341 213 1159 525 
z
M 3116 1747 
Q 3116 2381 2855 2742 
Q 2594 3103 2138 3103 
Q 1681 3103 1420 2742 
Q 1159 2381 1159 1747 
Q 1159 1113 1420 752 
Q 1681 391 2138 391 
Q 2594 391 2855 752 
Q 3116 1113 3116 1747 
z
" id="DejaVuSans-70" transform="scale(0.015625)"/>
      <path d="M 603 4863 
L 1178 4863 
L 1178 0 
L 603 0 
L 603 4863 
z
" id="DejaVuSans-6c" transform="scale(0.015625)"/>
      <path d="M 603 3500 
L 1178 3500 
L 1178 0 
L 603 0 
L 603 3500 
z
M 603 4863 
L 1178 4863 
L 1178 4134 
L 603 4134 
L 603 4863 
z
" id="DejaVuSans-69" transform="scale(0.015625)"/>
      <path d="M 1959 3097 
Q 1497 3097 1228 2736 
Q 959 2375 959 1747 
Q 959 1119 1226 758 
Q 1494 397 1959 397 
Q 2419 397 2687 759 
Q 2956 1122 2956 1747 
Q 2956 2369 2687 2733 
Q 2419 3097 1959 3097 
z
M 1959 3584 
Q 2709 3584 3137 3096 
Q 3566 2609 3566 1747 
Q 3566 888 3137 398 
Q 2709 -91 1959 -91 
Q 1206 -91 779 398 
Q 353 888 353 1747 
Q 353 2609 779 3096 
Q 1206 3584 1959 3584 
z
" id="DejaVuSans-6f" transform="scale(0.015625)"/>
     </defs>
     <use xlink:href="#DejaVuSans-42"/>
     <use x="68.603516" xlink:href="#DejaVuSans-2d"/>
     <use x="104.6875" xlink:href="#DejaVuSans-73"/>
     <use x="156.787109" xlink:href="#DejaVuSans-70"/>
     <use x="220.263672" xlink:href="#DejaVuSans-6c"/>
     <use x="248.046875" xlink:href="#DejaVuSans-69"/>
     <use x="275.830078" xlink:href="#DejaVuSans-6e"/>
     <use x="339.208984" xlink:href="#DejaVuSans-65"/>
     <use x="400.732422" xlink:href="#DejaVuSans-20"/>
     <use x="432.519531" xlink:href="#DejaVuSans-69"/>
     <use x="460.302734" xlink:href="#DejaVuSans-6e"/>
     <use x="523.681641" xlink:href="#DejaVuSans-74"/>
     <use x="562.890625" xlink:href="#DejaVuSans-65"/>
     <use x="624.414062" xlink:href="#DejaVuSans-72"/>
     <use x="665.527344" xlink:href="#DejaVuSans-70"/>
     <use x="729.003906" xlink:href="#DejaVuSans-6f"/>
     <use x="790.185547" xlink:href="#DejaVuSans-6c"/>
     <use x="817.96875" xlink:href="#DejaVuSans-61"/>
     <use x="879.248047" xlink:href="#DejaVuSans-74"/>
     <use x="918.457031" xlink:href="#DejaVuSans-69"/>
     <use x="946.240234" xlink:href="#DejaVuSans-6f"/>
     <use x="1007.421875" xlink:href="#DejaVuSans-6e"/>
    </g>
   </g>
  </g>
 </g>
 <defs>
  <clipPath id="p8d3d888a81">
   <rect height="136.517727" width="181.35" x="47.9975" y="22.318125"/>
  </clipPath>
 </defs>
</svg>
