<?xml version="1.0" encoding="utf-8" standalone="no"?>
<!DOCTYPE svg PUBLIC "-//W3C//DTD SVG 1.1//EN"
  "http://www.w3.org/Graphics/SVG/1.1/DTD/svg11.dtd">
<svg height="197.692102pt" version="1.1" viewBox="0 0 236.5475 197.692102" width="236.5475pt" xmlns="http://www.w3.org/2000/svg" xmlns:xlink="http://www.w3.org/1999/xlink">
 <metadata>
  <rdf:RDF xmlns:cc="http://creativecommons.org/ns#" xmlns:dc="http://purl.org/dc/elements/1.1/" xmlns:rdf="http://www.w3.org/1999/02/22-rdf-syntax-ns#">
   <cc:Work>
    <dc:type rdf:resource="http://purl.org/dc/dcmitype/StillImage"/>
    <dc:date>2022-01-09T00:49:27.889994</dc:date>
    <dc:format>image/svg+xml</dc:format>
    <dc:creator>
     <cc:Agent>
      <dc:title>Matplotlib v3.4.2, https://matplotlib.org/</dc:title>
     </cc:Agent>
    </dc:creator>
   </cc:Work>
  </rdf:RDF>
 </metadata>
 <defs>
  <style type="text/css">*{stroke-linecap:butt;stroke-linejoin:round;}</style>
 </defs>
 <g id="figure_1">
  <g id="patch_1">
   <path d="M 0 197.692102 
L 236.5475 197.692102 
L 236.5475 0 
L 0 0 
z
" style="fill:#ffffff;"/>
  </g>
  <g id="axes_1">
   <g id="patch_2">
    <path d="M 47.9975 158.835852 
L 229.3475 158.835852 
L 229.3475 22.318125 
L 47.9975 22.318125 
z
" style="fill:#ffffff;"/>
   </g>
   <g id="matplotlib.axis_1">
    <g id="xtick_1">
     <g id="line2d_1">
      <defs>
       <path d="M 0 0 
L 0 4.8 
" id="m53da53481f" style="stroke:#262626;"/>
      </defs>
      <g>
       <use style="fill:#262626;stroke:#262626;" x="97.456591" xlink:href="#m53da53481f" y="158.835852"/>
      </g>
     </g>
     <g id="text_1">
      <!-- 5 -->
      <g style="fill:#262626;" transform="translate(94.911591 173.214602)scale(0.08 -0.08)">
       <defs>
        <path d="M 691 4666 
L 3169 4666 
L 3169 4134 
L 1269 4134 
L 1269 2991 
Q 1406 3038 1543 3061 
Q 1681 3084 1819 3084 
Q 2600 3084 3056 2656 
Q 3513 2228 3513 1497 
Q 3513 744 3044 326 
Q 2575 -91 1722 -91 
Q 1428 -91 1123 -41 
Q 819 9 494 109 
L 494 744 
Q 775 591 1075 516 
Q 1375 441 1709 441 
Q 2250 441 2565 725 
Q 2881 1009 2881 1497 
Q 2881 1984 2565 2268 
Q 2250 2553 1709 2553 
Q 1456 2553 1204 2497 
Q 953 2441 691 2322 
L 691 4666 
z
" id="DejaVuSans-35" transform="scale(0.015625)"/>
       </defs>
       <use xlink:href="#DejaVuSans-35"/>
      </g>
     </g>
    </g>
    <g id="xtick_2">
     <g id="line2d_2">
      <g>
       <use style="fill:#262626;stroke:#262626;" x="148.976477" xlink:href="#m53da53481f" y="158.835852"/>
      </g>
     </g>
     <g id="text_2">
      <!-- 10 -->
      <g style="fill:#262626;" transform="translate(143.886477 173.214602)scale(0.08 -0.08)">
       <defs>
        <path d="M 794 531 
L 1825 531 
L 1825 4091 
L 703 3866 
L 703 4441 
L 1819 4666 
L 2450 4666 
L 2450 531 
L 3481 531 
L 3481 0 
L 794 0 
L 794 531 
z
" id="DejaVuSans-31" transform="scale(0.015625)"/>
        <path d="M 2034 4250 
Q 1547 4250 1301 3770 
Q 1056 3291 1056 2328 
Q 1056 1369 1301 889 
Q 1547 409 2034 409 
Q 2525 409 2770 889 
Q 3016 1369 3016 2328 
Q 3016 3291 2770 3770 
Q 2525 4250 2034 4250 
z
M 2034 4750 
Q 2819 4750 3233 4129 
Q 3647 3509 3647 2328 
Q 3647 1150 3233 529 
Q 2819 -91 2034 -91 
Q 1250 -91 836 529 
Q 422 1150 422 2328 
Q 422 3509 836 4129 
Q 1250 4750 2034 4750 
z
" id="DejaVuSans-30" transform="scale(0.015625)"/>
       </defs>
       <use xlink:href="#DejaVuSans-31"/>
       <use x="63.623047" xlink:href="#DejaVuSans-30"/>
      </g>
     </g>
    </g>
    <g id="xtick_3">
     <g id="line2d_3">
      <g>
       <use style="fill:#262626;stroke:#262626;" x="200.496364" xlink:href="#m53da53481f" y="158.835852"/>
      </g>
     </g>
     <g id="text_3">
      <!-- 15 -->
      <g style="fill:#262626;" transform="translate(195.406364 173.214602)scale(0.08 -0.08)">
       <use xlink:href="#DejaVuSans-31"/>
       <use x="63.623047" xlink:href="#DejaVuSans-35"/>
      </g>
     </g>
    </g>
    <g id="text_4">
     <!-- Study day number -->
     <g style="fill:#262626;" transform="translate(83.080625 187.996477)scale(0.12 -0.12)">
      <defs>
       <path d="M 3425 4513 
L 3425 3897 
Q 3066 4069 2747 4153 
Q 2428 4238 2131 4238 
Q 1616 4238 1336 4038 
Q 1056 3838 1056 3469 
Q 1056 3159 1242 3001 
Q 1428 2844 1947 2747 
L 2328 2669 
Q 3034 2534 3370 2195 
Q 3706 1856 3706 1288 
Q 3706 609 3251 259 
Q 2797 -91 1919 -91 
Q 1588 -91 1214 -16 
Q 841 59 441 206 
L 441 856 
Q 825 641 1194 531 
Q 1563 422 1919 422 
Q 2459 422 2753 634 
Q 3047 847 3047 1241 
Q 3047 1584 2836 1778 
Q 2625 1972 2144 2069 
L 1759 2144 
Q 1053 2284 737 2584 
Q 422 2884 422 3419 
Q 422 4038 858 4394 
Q 1294 4750 2059 4750 
Q 2388 4750 2728 4690 
Q 3069 4631 3425 4513 
z
" id="DejaVuSans-53" transform="scale(0.015625)"/>
       <path d="M 1172 4494 
L 1172 3500 
L 2356 3500 
L 2356 3053 
L 1172 3053 
L 1172 1153 
Q 1172 725 1289 603 
Q 1406 481 1766 481 
L 2356 481 
L 2356 0 
L 1766 0 
Q 1100 0 847 248 
Q 594 497 594 1153 
L 594 3053 
L 172 3053 
L 172 3500 
L 594 3500 
L 594 4494 
L 1172 4494 
z
" id="DejaVuSans-74" transform="scale(0.015625)"/>
       <path d="M 544 1381 
L 544 3500 
L 1119 3500 
L 1119 1403 
Q 1119 906 1312 657 
Q 1506 409 1894 409 
Q 2359 409 2629 706 
Q 2900 1003 2900 1516 
L 2900 3500 
L 3475 3500 
L 3475 0 
L 2900 0 
L 2900 538 
Q 2691 219 2414 64 
Q 2138 -91 1772 -91 
Q 1169 -91 856 284 
Q 544 659 544 1381 
z
M 1991 3584 
L 1991 3584 
z
" id="DejaVuSans-75" transform="scale(0.015625)"/>
       <path d="M 2906 2969 
L 2906 4863 
L 3481 4863 
L 3481 0 
L 2906 0 
L 2906 525 
Q 2725 213 2448 61 
Q 2172 -91 1784 -91 
Q 1150 -91 751 415 
Q 353 922 353 1747 
Q 353 2572 751 3078 
Q 1150 3584 1784 3584 
Q 2172 3584 2448 3432 
Q 2725 3281 2906 2969 
z
M 947 1747 
Q 947 1113 1208 752 
Q 1469 391 1925 391 
Q 2381 391 2643 752 
Q 2906 1113 2906 1747 
Q 2906 2381 2643 2742 
Q 2381 3103 1925 3103 
Q 1469 3103 1208 2742 
Q 947 2381 947 1747 
z
" id="DejaVuSans-64" transform="scale(0.015625)"/>
       <path d="M 2059 -325 
Q 1816 -950 1584 -1140 
Q 1353 -1331 966 -1331 
L 506 -1331 
L 506 -850 
L 844 -850 
Q 1081 -850 1212 -737 
Q 1344 -625 1503 -206 
L 1606 56 
L 191 3500 
L 800 3500 
L 1894 763 
L 2988 3500 
L 3597 3500 
L 2059 -325 
z
" id="DejaVuSans-79" transform="scale(0.015625)"/>
       <path id="DejaVuSans-20" transform="scale(0.015625)"/>
       <path d="M 2194 1759 
Q 1497 1759 1228 1600 
Q 959 1441 959 1056 
Q 959 750 1161 570 
Q 1363 391 1709 391 
Q 2188 391 2477 730 
Q 2766 1069 2766 1631 
L 2766 1759 
L 2194 1759 
z
M 3341 1997 
L 3341 0 
L 2766 0 
L 2766 531 
Q 2569 213 2275 61 
Q 1981 -91 1556 -91 
Q 1019 -91 701 211 
Q 384 513 384 1019 
Q 384 1609 779 1909 
Q 1175 2209 1959 2209 
L 2766 2209 
L 2766 2266 
Q 2766 2663 2505 2880 
Q 2244 3097 1772 3097 
Q 1472 3097 1187 3025 
Q 903 2953 641 2809 
L 641 3341 
Q 956 3463 1253 3523 
Q 1550 3584 1831 3584 
Q 2591 3584 2966 3190 
Q 3341 2797 3341 1997 
z
" id="DejaVuSans-61" transform="scale(0.015625)"/>
       <path d="M 3513 2113 
L 3513 0 
L 2938 0 
L 2938 2094 
Q 2938 2591 2744 2837 
Q 2550 3084 2163 3084 
Q 1697 3084 1428 2787 
Q 1159 2491 1159 1978 
L 1159 0 
L 581 0 
L 581 3500 
L 1159 3500 
L 1159 2956 
Q 1366 3272 1645 3428 
Q 1925 3584 2291 3584 
Q 2894 3584 3203 3211 
Q 3513 2838 3513 2113 
z
" id="DejaVuSans-6e" transform="scale(0.015625)"/>
       <path d="M 3328 2828 
Q 3544 3216 3844 3400 
Q 4144 3584 4550 3584 
Q 5097 3584 5394 3201 
Q 5691 2819 5691 2113 
L 5691 0 
L 5113 0 
L 5113 2094 
Q 5113 2597 4934 2840 
Q 4756 3084 4391 3084 
Q 3944 3084 3684 2787 
Q 3425 2491 3425 1978 
L 3425 0 
L 2847 0 
L 2847 2094 
Q 2847 2600 2669 2842 
Q 2491 3084 2119 3084 
Q 1678 3084 1418 2786 
Q 1159 2488 1159 1978 
L 1159 0 
L 581 0 
L 581 3500 
L 1159 3500 
L 1159 2956 
Q 1356 3278 1631 3431 
Q 1906 3584 2284 3584 
Q 2666 3584 2933 3390 
Q 3200 3197 3328 2828 
z
" id="DejaVuSans-6d" transform="scale(0.015625)"/>
       <path d="M 3116 1747 
Q 3116 2381 2855 2742 
Q 2594 3103 2138 3103 
Q 1681 3103 1420 2742 
Q 1159 2381 1159 1747 
Q 1159 1113 1420 752 
Q 1681 391 2138 391 
Q 2594 391 2855 752 
Q 3116 1113 3116 1747 
z
M 1159 2969 
Q 1341 3281 1617 3432 
Q 1894 3584 2278 3584 
Q 2916 3584 3314 3078 
Q 3713 2572 3713 1747 
Q 3713 922 3314 415 
Q 2916 -91 2278 -91 
Q 1894 -91 1617 61 
Q 1341 213 1159 525 
L 1159 0 
L 581 0 
L 581 4863 
L 1159 4863 
L 1159 2969 
z
" id="DejaVuSans-62" transform="scale(0.015625)"/>
       <path d="M 3597 1894 
L 3597 1613 
L 953 1613 
Q 991 1019 1311 708 
Q 1631 397 2203 397 
Q 2534 397 2845 478 
Q 3156 559 3463 722 
L 3463 178 
Q 3153 47 2828 -22 
Q 2503 -91 2169 -91 
Q 1331 -91 842 396 
Q 353 884 353 1716 
Q 353 2575 817 3079 
Q 1281 3584 2069 3584 
Q 2775 3584 3186 3129 
Q 3597 2675 3597 1894 
z
M 3022 2063 
Q 3016 2534 2758 2815 
Q 2500 3097 2075 3097 
Q 1594 3097 1305 2825 
Q 1016 2553 972 2059 
L 3022 2063 
z
" id="DejaVuSans-65" transform="scale(0.015625)"/>
       <path d="M 2631 2963 
Q 2534 3019 2420 3045 
Q 2306 3072 2169 3072 
Q 1681 3072 1420 2755 
Q 1159 2438 1159 1844 
L 1159 0 
L 581 0 
L 581 3500 
L 1159 3500 
L 1159 2956 
Q 1341 3275 1631 3429 
Q 1922 3584 2338 3584 
Q 2397 3584 2469 3576 
Q 2541 3569 2628 3553 
L 2631 2963 
z
" id="DejaVuSans-72" transform="scale(0.015625)"/>
      </defs>
      <use xlink:href="#DejaVuSans-53"/>
      <use x="63.476562" xlink:href="#DejaVuSans-74"/>
      <use x="102.685547" xlink:href="#DejaVuSans-75"/>
      <use x="166.064453" xlink:href="#DejaVuSans-64"/>
      <use x="229.541016" xlink:href="#DejaVuSans-79"/>
      <use x="288.720703" xlink:href="#DejaVuSans-20"/>
      <use x="320.507812" xlink:href="#DejaVuSans-64"/>
      <use x="383.984375" xlink:href="#DejaVuSans-61"/>
      <use x="445.263672" xlink:href="#DejaVuSans-79"/>
      <use x="504.443359" xlink:href="#DejaVuSans-20"/>
      <use x="536.230469" xlink:href="#DejaVuSans-6e"/>
      <use x="599.609375" xlink:href="#DejaVuSans-75"/>
      <use x="662.988281" xlink:href="#DejaVuSans-6d"/>
      <use x="760.400391" xlink:href="#DejaVuSans-62"/>
      <use x="823.876953" xlink:href="#DejaVuSans-65"/>
      <use x="885.400391" xlink:href="#DejaVuSans-72"/>
     </g>
    </g>
   </g>
   <g id="matplotlib.axis_2">
    <g id="ytick_1">
     <g id="line2d_4">
      <defs>
       <path d="M 0 0 
L -4.8 0 
" id="m4ccdf90404" style="stroke:#262626;"/>
      </defs>
      <g>
       <use style="fill:#262626;stroke:#262626;" x="47.9975" xlink:href="#m4ccdf90404" y="157.978632"/>
      </g>
     </g>
     <g id="text_5">
      <!-- −15 -->
      <g style="fill:#262626;" transform="translate(22.81375 161.018007)scale(0.08 -0.08)">
       <defs>
        <path d="M 678 2272 
L 4684 2272 
L 4684 1741 
L 678 1741 
L 678 2272 
z
" id="DejaVuSans-2212" transform="scale(0.015625)"/>
       </defs>
       <use xlink:href="#DejaVuSans-2212"/>
       <use x="83.789062" xlink:href="#DejaVuSans-31"/>
       <use x="147.412109" xlink:href="#DejaVuSans-35"/>
      </g>
     </g>
    </g>
    <g id="ytick_2">
     <g id="line2d_5">
      <g>
       <use style="fill:#262626;stroke:#262626;" x="47.9975" xlink:href="#m4ccdf90404" y="134.350389"/>
      </g>
     </g>
     <g id="text_6">
      <!-- −10 -->
      <g style="fill:#262626;" transform="translate(22.81375 137.389764)scale(0.08 -0.08)">
       <use xlink:href="#DejaVuSans-2212"/>
       <use x="83.789062" xlink:href="#DejaVuSans-31"/>
       <use x="147.412109" xlink:href="#DejaVuSans-30"/>
      </g>
     </g>
    </g>
    <g id="ytick_3">
     <g id="line2d_6">
      <g>
       <use style="fill:#262626;stroke:#262626;" x="47.9975" xlink:href="#m4ccdf90404" y="110.722146"/>
      </g>
     </g>
     <g id="text_7">
      <!-- −5 -->
      <g style="fill:#262626;" transform="translate(27.90375 113.761521)scale(0.08 -0.08)">
       <use xlink:href="#DejaVuSans-2212"/>
       <use x="83.789062" xlink:href="#DejaVuSans-35"/>
      </g>
     </g>
    </g>
    <g id="ytick_4">
     <g id="line2d_7">
      <g>
       <use style="fill:#262626;stroke:#262626;" x="47.9975" xlink:href="#m4ccdf90404" y="87.093904"/>
      </g>
     </g>
     <g id="text_8">
      <!-- 0 -->
      <g style="fill:#262626;" transform="translate(34.6075 90.133279)scale(0.08 -0.08)">
       <use xlink:href="#DejaVuSans-30"/>
      </g>
     </g>
    </g>
    <g id="ytick_5">
     <g id="line2d_8">
      <g>
       <use style="fill:#262626;stroke:#262626;" x="47.9975" xlink:href="#m4ccdf90404" y="63.465661"/>
      </g>
     </g>
     <g id="text_9">
      <!-- 5 -->
      <g style="fill:#262626;" transform="translate(34.6075 66.505036)scale(0.08 -0.08)">
       <use xlink:href="#DejaVuSans-35"/>
      </g>
     </g>
    </g>
    <g id="ytick_6">
     <g id="line2d_9">
      <g>
       <use style="fill:#262626;stroke:#262626;" x="47.9975" xlink:href="#m4ccdf90404" y="39.837418"/>
      </g>
     </g>
     <g id="text_10">
      <!-- 10 -->
      <g style="fill:#262626;" transform="translate(29.5175 42.876793)scale(0.08 -0.08)">
       <use xlink:href="#DejaVuSans-31"/>
       <use x="63.623047" xlink:href="#DejaVuSans-30"/>
      </g>
     </g>
    </g>
    <g id="text_11">
     <!-- $Escherichia\ coli$ abundance -->
     <g style="fill:#262626;" transform="translate(16.318125 172.416989)rotate(-90)scale(0.12 -0.12)">
      <defs>
       <path d="M 1081 4666 
L 4031 4666 
L 3928 4134 
L 1606 4134 
L 1338 2753 
L 3566 2753 
L 3463 2222 
L 1234 2222 
L 909 531 
L 3284 531 
L 3181 0 
L 172 0 
L 1081 4666 
z
" id="DejaVuSans-Oblique-45" transform="scale(0.015625)"/>
       <path d="M 3200 3397 
L 3091 2853 
Q 2863 2978 2609 3040 
Q 2356 3103 2088 3103 
Q 1634 3103 1373 2948 
Q 1113 2794 1113 2528 
Q 1113 2219 1719 2053 
Q 1766 2041 1788 2034 
L 1972 1978 
Q 2547 1819 2739 1644 
Q 2931 1469 2931 1166 
Q 2931 609 2489 259 
Q 2047 -91 1331 -91 
Q 1053 -91 747 -37 
Q 441 16 72 128 
L 184 722 
Q 500 559 806 475 
Q 1113 391 1394 391 
Q 1816 391 2080 572 
Q 2344 753 2344 1031 
Q 2344 1331 1650 1516 
L 1591 1531 
L 1394 1581 
Q 956 1697 753 1886 
Q 550 2075 550 2369 
Q 550 2928 970 3256 
Q 1391 3584 2113 3584 
Q 2397 3584 2667 3537 
Q 2938 3491 3200 3397 
z
" id="DejaVuSans-Oblique-73" transform="scale(0.015625)"/>
       <path d="M 3431 3366 
L 3316 2797 
Q 3109 2947 2876 3022 
Q 2644 3097 2394 3097 
Q 2119 3097 1870 3000 
Q 1622 2903 1453 2725 
Q 1184 2453 1037 2087 
Q 891 1722 891 1331 
Q 891 859 1127 628 
Q 1363 397 1844 397 
Q 2081 397 2348 469 
Q 2616 541 2906 684 
L 2797 116 
Q 2547 13 2283 -39 
Q 2019 -91 1741 -91 
Q 1044 -91 669 257 
Q 294 606 294 1253 
Q 294 1797 489 2255 
Q 684 2713 1069 3078 
Q 1331 3328 1684 3456 
Q 2038 3584 2456 3584 
Q 2700 3584 2940 3529 
Q 3181 3475 3431 3366 
z
" id="DejaVuSans-Oblique-63" transform="scale(0.015625)"/>
       <path d="M 3566 2113 
L 3156 0 
L 2578 0 
L 2988 2091 
Q 3016 2238 3031 2350 
Q 3047 2463 3047 2528 
Q 3047 2791 2881 2937 
Q 2716 3084 2419 3084 
Q 1956 3084 1617 2771 
Q 1278 2459 1178 1941 
L 800 0 
L 225 0 
L 1172 4863 
L 1747 4863 
L 1375 2950 
Q 1594 3244 1934 3414 
Q 2275 3584 2650 3584 
Q 3113 3584 3367 3334 
Q 3622 3084 3622 2631 
Q 3622 2519 3608 2391 
Q 3594 2263 3566 2113 
z
" id="DejaVuSans-Oblique-68" transform="scale(0.015625)"/>
       <path d="M 3078 2063 
Q 3088 2113 3092 2166 
Q 3097 2219 3097 2272 
Q 3097 2653 2873 2875 
Q 2650 3097 2266 3097 
Q 1838 3097 1509 2826 
Q 1181 2556 1013 2059 
L 3078 2063 
z
M 3578 1613 
L 903 1613 
Q 884 1494 878 1425 
Q 872 1356 872 1306 
Q 872 872 1139 634 
Q 1406 397 1894 397 
Q 2269 397 2603 481 
Q 2938 566 3225 728 
L 3116 159 
Q 2806 34 2476 -28 
Q 2147 -91 1806 -91 
Q 1078 -91 686 257 
Q 294 606 294 1247 
Q 294 1794 489 2264 
Q 684 2734 1063 3103 
Q 1306 3334 1642 3459 
Q 1978 3584 2356 3584 
Q 2950 3584 3301 3228 
Q 3653 2872 3653 2272 
Q 3653 2128 3634 1964 
Q 3616 1800 3578 1613 
z
" id="DejaVuSans-Oblique-65" transform="scale(0.015625)"/>
       <path d="M 2853 2969 
Q 2766 3016 2653 3041 
Q 2541 3066 2413 3066 
Q 1953 3066 1609 2717 
Q 1266 2369 1153 1784 
L 800 0 
L 225 0 
L 909 3500 
L 1484 3500 
L 1375 2956 
Q 1603 3259 1920 3421 
Q 2238 3584 2597 3584 
Q 2691 3584 2781 3573 
Q 2872 3563 2963 3538 
L 2853 2969 
z
" id="DejaVuSans-Oblique-72" transform="scale(0.015625)"/>
       <path d="M 1172 4863 
L 1747 4863 
L 1606 4134 
L 1031 4134 
L 1172 4863 
z
M 909 3500 
L 1484 3500 
L 800 0 
L 225 0 
L 909 3500 
z
" id="DejaVuSans-Oblique-69" transform="scale(0.015625)"/>
       <path d="M 3438 1997 
L 3047 0 
L 2472 0 
L 2578 531 
Q 2325 219 2001 64 
Q 1678 -91 1281 -91 
Q 834 -91 548 182 
Q 263 456 263 884 
Q 263 1497 752 1853 
Q 1241 2209 2100 2209 
L 2900 2209 
L 2931 2363 
Q 2938 2388 2941 2417 
Q 2944 2447 2944 2509 
Q 2944 2788 2717 2942 
Q 2491 3097 2081 3097 
Q 1800 3097 1504 3025 
Q 1209 2953 897 2809 
L 997 3341 
Q 1322 3463 1633 3523 
Q 1944 3584 2234 3584 
Q 2853 3584 3176 3315 
Q 3500 3047 3500 2534 
Q 3500 2431 3484 2292 
Q 3469 2153 3438 1997 
z
M 2816 1759 
L 2241 1759 
Q 1534 1759 1195 1570 
Q 856 1381 856 984 
Q 856 709 1029 553 
Q 1203 397 1509 397 
Q 1978 397 2328 733 
Q 2678 1069 2791 1631 
L 2816 1759 
z
" id="DejaVuSans-Oblique-61" transform="scale(0.015625)"/>
       <path d="M 1625 -91 
Q 1009 -91 651 289 
Q 294 669 294 1325 
Q 294 1706 417 2101 
Q 541 2497 738 2766 
Q 1047 3184 1428 3384 
Q 1809 3584 2291 3584 
Q 2888 3584 3255 3212 
Q 3622 2841 3622 2241 
Q 3622 1825 3500 1412 
Q 3378 1000 3181 728 
Q 2875 309 2494 109 
Q 2113 -91 1625 -91 
z
M 891 1344 
Q 891 869 1089 633 
Q 1288 397 1691 397 
Q 2269 397 2648 901 
Q 3028 1406 3028 2181 
Q 3028 2634 2825 2865 
Q 2622 3097 2228 3097 
Q 1903 3097 1650 2945 
Q 1397 2794 1197 2484 
Q 1050 2253 970 1956 
Q 891 1659 891 1344 
z
" id="DejaVuSans-Oblique-6f" transform="scale(0.015625)"/>
       <path d="M 1172 4863 
L 1747 4863 
L 800 0 
L 225 0 
L 1172 4863 
z
" id="DejaVuSans-Oblique-6c" transform="scale(0.015625)"/>
       <path d="M 3122 3366 
L 3122 2828 
Q 2878 2963 2633 3030 
Q 2388 3097 2138 3097 
Q 1578 3097 1268 2742 
Q 959 2388 959 1747 
Q 959 1106 1268 751 
Q 1578 397 2138 397 
Q 2388 397 2633 464 
Q 2878 531 3122 666 
L 3122 134 
Q 2881 22 2623 -34 
Q 2366 -91 2075 -91 
Q 1284 -91 818 406 
Q 353 903 353 1747 
Q 353 2603 823 3093 
Q 1294 3584 2113 3584 
Q 2378 3584 2631 3529 
Q 2884 3475 3122 3366 
z
" id="DejaVuSans-63" transform="scale(0.015625)"/>
      </defs>
      <use transform="translate(0 0.015625)" xlink:href="#DejaVuSans-Oblique-45"/>
      <use transform="translate(63.183594 0.015625)" xlink:href="#DejaVuSans-Oblique-73"/>
      <use transform="translate(115.283203 0.015625)" xlink:href="#DejaVuSans-Oblique-63"/>
      <use transform="translate(170.263672 0.015625)" xlink:href="#DejaVuSans-Oblique-68"/>
      <use transform="translate(233.642578 0.015625)" xlink:href="#DejaVuSans-Oblique-65"/>
      <use transform="translate(295.166016 0.015625)" xlink:href="#DejaVuSans-Oblique-72"/>
      <use transform="translate(336.279297 0.015625)" xlink:href="#DejaVuSans-Oblique-69"/>
      <use transform="translate(364.0625 0.015625)" xlink:href="#DejaVuSans-Oblique-63"/>
      <use transform="translate(419.042969 0.015625)" xlink:href="#DejaVuSans-Oblique-68"/>
      <use transform="translate(482.421875 0.015625)" xlink:href="#DejaVuSans-Oblique-69"/>
      <use transform="translate(510.205078 0.015625)" xlink:href="#DejaVuSans-Oblique-61"/>
      <use transform="translate(603.954753 0.015625)" xlink:href="#DejaVuSans-Oblique-63"/>
      <use transform="translate(658.935222 0.015625)" xlink:href="#DejaVuSans-Oblique-6f"/>
      <use transform="translate(720.116863 0.015625)" xlink:href="#DejaVuSans-Oblique-6c"/>
      <use transform="translate(747.900066 0.015625)" xlink:href="#DejaVuSans-Oblique-69"/>
      <use transform="translate(775.683269 0.015625)" xlink:href="#DejaVuSans-20"/>
      <use transform="translate(807.470378 0.015625)" xlink:href="#DejaVuSans-61"/>
      <use transform="translate(868.749675 0.015625)" xlink:href="#DejaVuSans-62"/>
      <use transform="translate(932.226238 0.015625)" xlink:href="#DejaVuSans-75"/>
      <use transform="translate(995.605144 0.015625)" xlink:href="#DejaVuSans-6e"/>
      <use transform="translate(1058.98405 0.015625)" xlink:href="#DejaVuSans-64"/>
      <use transform="translate(1122.460613 0.015625)" xlink:href="#DejaVuSans-61"/>
      <use transform="translate(1183.73991 0.015625)" xlink:href="#DejaVuSans-6e"/>
      <use transform="translate(1247.118816 0.015625)" xlink:href="#DejaVuSans-63"/>
      <use transform="translate(1302.099285 0.015625)" xlink:href="#DejaVuSans-65"/>
     </g>
    </g>
   </g>
   <g id="PathCollection_1">
    <defs>
     <path d="M 0 2.4 
C 0.636487 2.4 1.246992 2.147121 1.697056 1.697056 
C 2.147121 1.246992 2.4 0.636487 2.4 -0 
C 2.4 -0.636487 2.147121 -1.246992 1.697056 -1.697056 
C 1.246992 -2.147121 0.636487 -2.4 0 -2.4 
C -0.636487 -2.4 -1.246992 -2.147121 -1.697056 -1.697056 
C -2.147121 -1.246992 -2.4 -0.636487 -2.4 0 
C -2.4 0.636487 -2.147121 1.246992 -1.697056 1.697056 
C -1.246992 2.147121 -0.636487 2.4 0 2.4 
z
" id="C0_0_82b9276f97"/>
    </defs>
    <g clip-path="url(#pdc689d938f)">
     <use style="fill:#0173b2;" x="56.240682" xlink:href="#C0_0_82b9276f97" y="83.501985"/>
    </g>
    <g clip-path="url(#pdc689d938f)">
     <use style="fill:#0173b2;" x="87.152614" xlink:href="#C0_0_82b9276f97" y="82.199559"/>
    </g>
    <g clip-path="url(#pdc689d938f)">
     <use style="fill:#0173b2;" x="107.760568" xlink:href="#C0_0_82b9276f97" y="71.704581"/>
    </g>
    <g clip-path="url(#pdc689d938f)">
     <use style="fill:#0173b2;" x="138.6725" xlink:href="#C0_0_82b9276f97" y="72.269175"/>
    </g>
    <g clip-path="url(#pdc689d938f)">
     <use style="fill:#0173b2;" x="148.976477" xlink:href="#C0_0_82b9276f97" y="86.294812"/>
    </g>
    <g clip-path="url(#pdc689d938f)">
     <use style="fill:#0173b2;" x="159.280455" xlink:href="#C0_0_82b9276f97" y="83.928047"/>
    </g>
    <g clip-path="url(#pdc689d938f)">
     <use style="fill:#0173b2;" x="179.888409" xlink:href="#C0_0_82b9276f97" y="67.589528"/>
    </g>
    <g clip-path="url(#pdc689d938f)">
     <use style="fill:#de8f05;" x="56.240682" xlink:href="#C0_0_82b9276f97" y="96.088953"/>
    </g>
    <g clip-path="url(#pdc689d938f)">
     <use style="fill:#de8f05;" x="66.544659" xlink:href="#C0_0_82b9276f97" y="76.924631"/>
    </g>
    <g clip-path="url(#pdc689d938f)">
     <use style="fill:#de8f05;" x="76.848636" xlink:href="#C0_0_82b9276f97" y="82.303213"/>
    </g>
    <g clip-path="url(#pdc689d938f)">
     <use style="fill:#de8f05;" x="97.456591" xlink:href="#C0_0_82b9276f97" y="83.858334"/>
    </g>
    <g clip-path="url(#pdc689d938f)">
     <use style="fill:#de8f05;" x="107.760568" xlink:href="#C0_0_82b9276f97" y="78.55943"/>
    </g>
    <g clip-path="url(#pdc689d938f)">
     <use style="fill:#de8f05;" x="118.064545" xlink:href="#C0_0_82b9276f97" y="87.269329"/>
    </g>
    <g clip-path="url(#pdc689d938f)">
     <use style="fill:#de8f05;" x="128.368523" xlink:href="#C0_0_82b9276f97" y="88.699437"/>
    </g>
    <g clip-path="url(#pdc689d938f)">
     <use style="fill:#de8f05;" x="138.6725" xlink:href="#C0_0_82b9276f97" y="75.327842"/>
    </g>
    <g clip-path="url(#pdc689d938f)">
     <use style="fill:#de8f05;" x="148.976477" xlink:href="#C0_0_82b9276f97" y="79.287744"/>
    </g>
    <g clip-path="url(#pdc689d938f)">
     <use style="fill:#de8f05;" x="179.888409" xlink:href="#C0_0_82b9276f97" y="66.24169"/>
    </g>
    <g clip-path="url(#pdc689d938f)">
     <use style="fill:#de8f05;" x="200.496364" xlink:href="#C0_0_82b9276f97" y="73.721051"/>
    </g>
    <g clip-path="url(#pdc689d938f)">
     <use style="fill:#de8f05;" x="210.800341" xlink:href="#C0_0_82b9276f97" y="71.207879"/>
    </g>
    <g clip-path="url(#pdc689d938f)">
     <use style="fill:#de8f05;" x="221.104318" xlink:href="#C0_0_82b9276f97" y="76.502889"/>
    </g>
    <g clip-path="url(#pdc689d938f)">
     <use style="fill:#029e73;" x="56.240682" xlink:href="#C0_0_82b9276f97" y="131.036635"/>
    </g>
    <g clip-path="url(#pdc689d938f)">
     <use style="fill:#029e73;" x="66.544659" xlink:href="#C0_0_82b9276f97" y="69.318307"/>
    </g>
    <g clip-path="url(#pdc689d938f)">
     <use style="fill:#029e73;" x="76.848636" xlink:href="#C0_0_82b9276f97" y="134.331132"/>
    </g>
    <g clip-path="url(#pdc689d938f)">
     <use style="fill:#029e73;" x="87.152614" xlink:href="#C0_0_82b9276f97" y="128.993684"/>
    </g>
    <g clip-path="url(#pdc689d938f)">
     <use style="fill:#029e73;" x="97.456591" xlink:href="#C0_0_82b9276f97" y="128.603972"/>
    </g>
    <g clip-path="url(#pdc689d938f)">
     <use style="fill:#029e73;" x="107.760568" xlink:href="#C0_0_82b9276f97" y="135.295801"/>
    </g>
    <g clip-path="url(#pdc689d938f)">
     <use style="fill:#029e73;" x="128.368523" xlink:href="#C0_0_82b9276f97" y="79.885868"/>
    </g>
    <g clip-path="url(#pdc689d938f)">
     <use style="fill:#029e73;" x="138.6725" xlink:href="#C0_0_82b9276f97" y="136.62553"/>
    </g>
    <g clip-path="url(#pdc689d938f)">
     <use style="fill:#029e73;" x="148.976477" xlink:href="#C0_0_82b9276f97" y="129.444645"/>
    </g>
    <g clip-path="url(#pdc689d938f)">
     <use style="fill:#029e73;" x="159.280455" xlink:href="#C0_0_82b9276f97" y="87.243098"/>
    </g>
    <g clip-path="url(#pdc689d938f)">
     <use style="fill:#029e73;" x="169.584432" xlink:href="#C0_0_82b9276f97" y="135.245"/>
    </g>
    <g clip-path="url(#pdc689d938f)">
     <use style="fill:#029e73;" x="179.888409" xlink:href="#C0_0_82b9276f97" y="137.031465"/>
    </g>
    <g clip-path="url(#pdc689d938f)">
     <use style="fill:#029e73;" x="190.192386" xlink:href="#C0_0_82b9276f97" y="83.446995"/>
    </g>
    <g clip-path="url(#pdc689d938f)">
     <use style="fill:#029e73;" x="200.496364" xlink:href="#C0_0_82b9276f97" y="130.876489"/>
    </g>
    <g clip-path="url(#pdc689d938f)">
     <use style="fill:#029e73;" x="210.800341" xlink:href="#C0_0_82b9276f97" y="82.238304"/>
    </g>
    <g clip-path="url(#pdc689d938f)">
     <use style="fill:#029e73;" x="221.104318" xlink:href="#C0_0_82b9276f97" y="129.858886"/>
    </g>
    <g clip-path="url(#pdc689d938f)">
     <use style="fill:#cc78bc;" x="66.544659" xlink:href="#C0_0_82b9276f97" y="90.227218"/>
    </g>
    <g clip-path="url(#pdc689d938f)">
     <use style="fill:#cc78bc;" x="76.848636" xlink:href="#C0_0_82b9276f97" y="87.60016"/>
    </g>
    <g clip-path="url(#pdc689d938f)">
     <use style="fill:#cc78bc;" x="87.152614" xlink:href="#C0_0_82b9276f97" y="78.256035"/>
    </g>
    <g clip-path="url(#pdc689d938f)">
     <use style="fill:#cc78bc;" x="107.760568" xlink:href="#C0_0_82b9276f97" y="99.680704"/>
    </g>
    <g clip-path="url(#pdc689d938f)">
     <use style="fill:#cc78bc;" x="118.064545" xlink:href="#C0_0_82b9276f97" y="152.630501"/>
    </g>
    <g clip-path="url(#pdc689d938f)">
     <use style="fill:#cc78bc;" x="128.368523" xlink:href="#C0_0_82b9276f97" y="152.42206"/>
    </g>
    <g clip-path="url(#pdc689d938f)">
     <use style="fill:#cc78bc;" x="159.280455" xlink:href="#C0_0_82b9276f97" y="95.21956"/>
    </g>
    <g clip-path="url(#pdc689d938f)">
     <use style="fill:#cc78bc;" x="169.584432" xlink:href="#C0_0_82b9276f97" y="90.728675"/>
    </g>
    <g clip-path="url(#pdc689d938f)">
     <use style="fill:#cc78bc;" x="179.888409" xlink:href="#C0_0_82b9276f97" y="88.102791"/>
    </g>
    <g clip-path="url(#pdc689d938f)">
     <use style="fill:#cc78bc;" x="190.192386" xlink:href="#C0_0_82b9276f97" y="96.065545"/>
    </g>
    <g clip-path="url(#pdc689d938f)">
     <use style="fill:#cc78bc;" x="200.496364" xlink:href="#C0_0_82b9276f97" y="99.24715"/>
    </g>
    <g clip-path="url(#pdc689d938f)">
     <use style="fill:#cc78bc;" x="221.104318" xlink:href="#C0_0_82b9276f97" y="89.901486"/>
    </g>
    <g clip-path="url(#pdc689d938f)">
     <use style="fill:#d55e00;" x="56.240682" xlink:href="#C0_0_82b9276f97" y="37.128734"/>
    </g>
    <g clip-path="url(#pdc689d938f)">
     <use style="fill:#d55e00;" x="66.544659" xlink:href="#C0_0_82b9276f97" y="41.59302"/>
    </g>
    <g clip-path="url(#pdc689d938f)">
     <use style="fill:#d55e00;" x="76.848636" xlink:href="#C0_0_82b9276f97" y="49.287874"/>
    </g>
    <g clip-path="url(#pdc689d938f)">
     <use style="fill:#d55e00;" x="87.152614" xlink:href="#C0_0_82b9276f97" y="28.523476"/>
    </g>
    <g clip-path="url(#pdc689d938f)">
     <use style="fill:#d55e00;" x="107.760568" xlink:href="#C0_0_82b9276f97" y="49.230898"/>
    </g>
    <g clip-path="url(#pdc689d938f)">
     <use style="fill:#d55e00;" x="128.368523" xlink:href="#C0_0_82b9276f97" y="41.492916"/>
    </g>
    <g clip-path="url(#pdc689d938f)">
     <use style="fill:#d55e00;" x="138.6725" xlink:href="#C0_0_82b9276f97" y="30.929091"/>
    </g>
    <g clip-path="url(#pdc689d938f)">
     <use style="fill:#d55e00;" x="148.976477" xlink:href="#C0_0_82b9276f97" y="48.590323"/>
    </g>
    <g clip-path="url(#pdc689d938f)">
     <use style="fill:#d55e00;" x="159.280455" xlink:href="#C0_0_82b9276f97" y="43.393606"/>
    </g>
    <g clip-path="url(#pdc689d938f)">
     <use style="fill:#d55e00;" x="169.584432" xlink:href="#C0_0_82b9276f97" y="41.231919"/>
    </g>
    <g clip-path="url(#pdc689d938f)">
     <use style="fill:#d55e00;" x="179.888409" xlink:href="#C0_0_82b9276f97" y="46.480281"/>
    </g>
    <g clip-path="url(#pdc689d938f)">
     <use style="fill:#d55e00;" x="200.496364" xlink:href="#C0_0_82b9276f97" y="40.843502"/>
    </g>
    <g clip-path="url(#pdc689d938f)">
     <use style="fill:#d55e00;" x="210.800341" xlink:href="#C0_0_82b9276f97" y="41.162276"/>
    </g>
   </g>
   <g id="PathCollection_2"/>
   <g id="PathCollection_3"/>
   <g id="PathCollection_4"/>
   <g id="PathCollection_5"/>
   <g id="PathCollection_6"/>
   <g id="patch_3">
    <path d="M 47.9975 158.835852 
L 47.9975 22.318125 
" style="fill:none;stroke:#262626;stroke-linecap:square;stroke-linejoin:miter;stroke-width:0.6;"/>
   </g>
   <g id="patch_4">
    <path d="M 229.3475 158.835852 
L 229.3475 22.318125 
" style="fill:none;stroke:#262626;stroke-linecap:square;stroke-linejoin:miter;stroke-width:0.6;"/>
   </g>
   <g id="patch_5">
    <path d="M 47.9975 158.835852 
L 229.3475 158.835852 
" style="fill:none;stroke:#262626;stroke-linecap:square;stroke-linejoin:miter;stroke-width:0.6;"/>
   </g>
   <g id="patch_6">
    <path d="M 47.9975 22.318125 
L 229.3475 22.318125 
" style="fill:none;stroke:#262626;stroke-linecap:square;stroke-linejoin:miter;stroke-width:0.6;"/>
   </g>
   <g id="text_12">
    <!-- Input abundance data -->
    <g style="fill:#262626;" transform="translate(72.437188 16.318125)scale(0.12 -0.12)">
     <defs>
      <path d="M 628 4666 
L 1259 4666 
L 1259 0 
L 628 0 
L 628 4666 
z
" id="DejaVuSans-49" transform="scale(0.015625)"/>
      <path d="M 1159 525 
L 1159 -1331 
L 581 -1331 
L 581 3500 
L 1159 3500 
L 1159 2969 
Q 1341 3281 1617 3432 
Q 1894 3584 2278 3584 
Q 2916 3584 3314 3078 
Q 3713 2572 3713 1747 
Q 3713 922 3314 415 
Q 2916 -91 2278 -91 
Q 1894 -91 1617 61 
Q 1341 213 1159 525 
z
M 3116 1747 
Q 3116 2381 2855 2742 
Q 2594 3103 2138 3103 
Q 1681 3103 1420 2742 
Q 1159 2381 1159 1747 
Q 1159 1113 1420 752 
Q 1681 391 2138 391 
Q 2594 391 2855 752 
Q 3116 1113 3116 1747 
z
" id="DejaVuSans-70" transform="scale(0.015625)"/>
     </defs>
     <use xlink:href="#DejaVuSans-49"/>
     <use x="29.492188" xlink:href="#DejaVuSans-6e"/>
     <use x="92.871094" xlink:href="#DejaVuSans-70"/>
     <use x="156.347656" xlink:href="#DejaVuSans-75"/>
     <use x="219.726562" xlink:href="#DejaVuSans-74"/>
     <use x="258.935547" xlink:href="#DejaVuSans-20"/>
     <use x="290.722656" xlink:href="#DejaVuSans-61"/>
     <use x="352.001953" xlink:href="#DejaVuSans-62"/>
     <use x="415.478516" xlink:href="#DejaVuSans-75"/>
     <use x="478.857422" xlink:href="#DejaVuSans-6e"/>
     <use x="542.236328" xlink:href="#DejaVuSans-64"/>
     <use x="605.712891" xlink:href="#DejaVuSans-61"/>
     <use x="666.992188" xlink:href="#DejaVuSans-6e"/>
     <use x="730.371094" xlink:href="#DejaVuSans-63"/>
     <use x="785.351562" xlink:href="#DejaVuSans-65"/>
     <use x="846.875" xlink:href="#DejaVuSans-20"/>
     <use x="878.662109" xlink:href="#DejaVuSans-64"/>
     <use x="942.138672" xlink:href="#DejaVuSans-61"/>
     <use x="1003.417969" xlink:href="#DejaVuSans-74"/>
     <use x="1042.626953" xlink:href="#DejaVuSans-61"/>
    </g>
   </g>
  </g>
 </g>
 <defs>
  <clipPath id="pdc689d938f">
   <rect height="136.517727" width="181.35" x="47.9975" y="22.318125"/>
  </clipPath>
 </defs>
</svg>
