<?xml version="1.0" encoding="utf-8" standalone="no"?>
<!DOCTYPE svg PUBLIC "-//W3C//DTD SVG 1.1//EN"
  "http://www.w3.org/Graphics/SVG/1.1/DTD/svg11.dtd">
<svg height="197.692102pt" version="1.1" viewBox="0 0 236.5475 197.692102" width="236.5475pt" xmlns="http://www.w3.org/2000/svg" xmlns:xlink="http://www.w3.org/1999/xlink">
 <metadata>
  <rdf:RDF xmlns:cc="http://creativecommons.org/ns#" xmlns:dc="http://purl.org/dc/elements/1.1/" xmlns:rdf="http://www.w3.org/1999/02/22-rdf-syntax-ns#">
   <cc:Work>
    <dc:type rdf:resource="http://purl.org/dc/dcmitype/StillImage"/>
    <dc:date>2022-01-09T00:55:35.307092</dc:date>
    <dc:format>image/svg+xml</dc:format>
    <dc:creator>
     <cc:Agent>
      <dc:title>Matplotlib v3.4.2, https://matplotlib.org/</dc:title>
     </cc:Agent>
    </dc:creator>
   </cc:Work>
  </rdf:RDF>
 </metadata>
 <defs>
  <style type="text/css">*{stroke-linecap:butt;stroke-linejoin:round;}</style>
 </defs>
 <g id="figure_1">
  <g id="patch_1">
   <path d="M 0 197.692102 
L 236.5475 197.692102 
L 236.5475 0 
L 0 0 
z
" style="fill:#ffffff;"/>
  </g>
  <g id="axes_1">
   <g id="patch_2">
    <path d="M 47.9975 158.835852 
L 229.3475 158.835852 
L 229.3475 22.318125 
L 47.9975 22.318125 
z
" style="fill:#ffffff;"/>
   </g>
   <g id="matplotlib.axis_1">
    <g id="xtick_1">
     <g id="line2d_1">
      <defs>
       <path d="M 0 0 
L 0 4.8 
" id="m6f8ef7130b" style="stroke:#262626;"/>
      </defs>
      <g>
       <use style="fill:#262626;stroke:#262626;" x="97.456591" xlink:href="#m6f8ef7130b" y="158.835852"/>
      </g>
     </g>
     <g id="text_1">
      <!-- 5 -->
      <g style="fill:#262626;" transform="translate(94.911591 173.214602)scale(0.08 -0.08)">
       <defs>
        <path d="M 691 4666 
L 3169 4666 
L 3169 4134 
L 1269 4134 
L 1269 2991 
Q 1406 3038 1543 3061 
Q 1681 3084 1819 3084 
Q 2600 3084 3056 2656 
Q 3513 2228 3513 1497 
Q 3513 744 3044 326 
Q 2575 -91 1722 -91 
Q 1428 -91 1123 -41 
Q 819 9 494 109 
L 494 744 
Q 775 591 1075 516 
Q 1375 441 1709 441 
Q 2250 441 2565 725 
Q 2881 1009 2881 1497 
Q 2881 1984 2565 2268 
Q 2250 2553 1709 2553 
Q 1456 2553 1204 2497 
Q 953 2441 691 2322 
L 691 4666 
z
" id="DejaVuSans-35" transform="scale(0.015625)"/>
       </defs>
       <use xlink:href="#DejaVuSans-35"/>
      </g>
     </g>
    </g>
    <g id="xtick_2">
     <g id="line2d_2">
      <g>
       <use style="fill:#262626;stroke:#262626;" x="148.976477" xlink:href="#m6f8ef7130b" y="158.835852"/>
      </g>
     </g>
     <g id="text_2">
      <!-- 10 -->
      <g style="fill:#262626;" transform="translate(143.886477 173.214602)scale(0.08 -0.08)">
       <defs>
        <path d="M 794 531 
L 1825 531 
L 1825 4091 
L 703 3866 
L 703 4441 
L 1819 4666 
L 2450 4666 
L 2450 531 
L 3481 531 
L 3481 0 
L 794 0 
L 794 531 
z
" id="DejaVuSans-31" transform="scale(0.015625)"/>
        <path d="M 2034 4250 
Q 1547 4250 1301 3770 
Q 1056 3291 1056 2328 
Q 1056 1369 1301 889 
Q 1547 409 2034 409 
Q 2525 409 2770 889 
Q 3016 1369 3016 2328 
Q 3016 3291 2770 3770 
Q 2525 4250 2034 4250 
z
M 2034 4750 
Q 2819 4750 3233 4129 
Q 3647 3509 3647 2328 
Q 3647 1150 3233 529 
Q 2819 -91 2034 -91 
Q 1250 -91 836 529 
Q 422 1150 422 2328 
Q 422 3509 836 4129 
Q 1250 4750 2034 4750 
z
" id="DejaVuSans-30" transform="scale(0.015625)"/>
       </defs>
       <use xlink:href="#DejaVuSans-31"/>
       <use x="63.623047" xlink:href="#DejaVuSans-30"/>
      </g>
     </g>
    </g>
    <g id="xtick_3">
     <g id="line2d_3">
      <g>
       <use style="fill:#262626;stroke:#262626;" x="200.496364" xlink:href="#m6f8ef7130b" y="158.835852"/>
      </g>
     </g>
     <g id="text_3">
      <!-- 15 -->
      <g style="fill:#262626;" transform="translate(195.406364 173.214602)scale(0.08 -0.08)">
       <use xlink:href="#DejaVuSans-31"/>
       <use x="63.623047" xlink:href="#DejaVuSans-35"/>
      </g>
     </g>
    </g>
    <g id="text_4">
     <!-- Study day number -->
     <g style="fill:#262626;" transform="translate(83.080625 187.996477)scale(0.12 -0.12)">
      <defs>
       <path d="M 3425 4513 
L 3425 3897 
Q 3066 4069 2747 4153 
Q 2428 4238 2131 4238 
Q 1616 4238 1336 4038 
Q 1056 3838 1056 3469 
Q 1056 3159 1242 3001 
Q 1428 2844 1947 2747 
L 2328 2669 
Q 3034 2534 3370 2195 
Q 3706 1856 3706 1288 
Q 3706 609 3251 259 
Q 2797 -91 1919 -91 
Q 1588 -91 1214 -16 
Q 841 59 441 206 
L 441 856 
Q 825 641 1194 531 
Q 1563 422 1919 422 
Q 2459 422 2753 634 
Q 3047 847 3047 1241 
Q 3047 1584 2836 1778 
Q 2625 1972 2144 2069 
L 1759 2144 
Q 1053 2284 737 2584 
Q 422 2884 422 3419 
Q 422 4038 858 4394 
Q 1294 4750 2059 4750 
Q 2388 4750 2728 4690 
Q 3069 4631 3425 4513 
z
" id="DejaVuSans-53" transform="scale(0.015625)"/>
       <path d="M 1172 4494 
L 1172 3500 
L 2356 3500 
L 2356 3053 
L 1172 3053 
L 1172 1153 
Q 1172 725 1289 603 
Q 1406 481 1766 481 
L 2356 481 
L 2356 0 
L 1766 0 
Q 1100 0 847 248 
Q 594 497 594 1153 
L 594 3053 
L 172 3053 
L 172 3500 
L 594 3500 
L 594 4494 
L 1172 4494 
z
" id="DejaVuSans-74" transform="scale(0.015625)"/>
       <path d="M 544 1381 
L 544 3500 
L 1119 3500 
L 1119 1403 
Q 1119 906 1312 657 
Q 1506 409 1894 409 
Q 2359 409 2629 706 
Q 2900 1003 2900 1516 
L 2900 3500 
L 3475 3500 
L 3475 0 
L 2900 0 
L 2900 538 
Q 2691 219 2414 64 
Q 2138 -91 1772 -91 
Q 1169 -91 856 284 
Q 544 659 544 1381 
z
M 1991 3584 
L 1991 3584 
z
" id="DejaVuSans-75" transform="scale(0.015625)"/>
       <path d="M 2906 2969 
L 2906 4863 
L 3481 4863 
L 3481 0 
L 2906 0 
L 2906 525 
Q 2725 213 2448 61 
Q 2172 -91 1784 -91 
Q 1150 -91 751 415 
Q 353 922 353 1747 
Q 353 2572 751 3078 
Q 1150 3584 1784 3584 
Q 2172 3584 2448 3432 
Q 2725 3281 2906 2969 
z
M 947 1747 
Q 947 1113 1208 752 
Q 1469 391 1925 391 
Q 2381 391 2643 752 
Q 2906 1113 2906 1747 
Q 2906 2381 2643 2742 
Q 2381 3103 1925 3103 
Q 1469 3103 1208 2742 
Q 947 2381 947 1747 
z
" id="DejaVuSans-64" transform="scale(0.015625)"/>
       <path d="M 2059 -325 
Q 1816 -950 1584 -1140 
Q 1353 -1331 966 -1331 
L 506 -1331 
L 506 -850 
L 844 -850 
Q 1081 -850 1212 -737 
Q 1344 -625 1503 -206 
L 1606 56 
L 191 3500 
L 800 3500 
L 1894 763 
L 2988 3500 
L 3597 3500 
L 2059 -325 
z
" id="DejaVuSans-79" transform="scale(0.015625)"/>
       <path id="DejaVuSans-20" transform="scale(0.015625)"/>
       <path d="M 2194 1759 
Q 1497 1759 1228 1600 
Q 959 1441 959 1056 
Q 959 750 1161 570 
Q 1363 391 1709 391 
Q 2188 391 2477 730 
Q 2766 1069 2766 1631 
L 2766 1759 
L 2194 1759 
z
M 3341 1997 
L 3341 0 
L 2766 0 
L 2766 531 
Q 2569 213 2275 61 
Q 1981 -91 1556 -91 
Q 1019 -91 701 211 
Q 384 513 384 1019 
Q 384 1609 779 1909 
Q 1175 2209 1959 2209 
L 2766 2209 
L 2766 2266 
Q 2766 2663 2505 2880 
Q 2244 3097 1772 3097 
Q 1472 3097 1187 3025 
Q 903 2953 641 2809 
L 641 3341 
Q 956 3463 1253 3523 
Q 1550 3584 1831 3584 
Q 2591 3584 2966 3190 
Q 3341 2797 3341 1997 
z
" id="DejaVuSans-61" transform="scale(0.015625)"/>
       <path d="M 3513 2113 
L 3513 0 
L 2938 0 
L 2938 2094 
Q 2938 2591 2744 2837 
Q 2550 3084 2163 3084 
Q 1697 3084 1428 2787 
Q 1159 2491 1159 1978 
L 1159 0 
L 581 0 
L 581 3500 
L 1159 3500 
L 1159 2956 
Q 1366 3272 1645 3428 
Q 1925 3584 2291 3584 
Q 2894 3584 3203 3211 
Q 3513 2838 3513 2113 
z
" id="DejaVuSans-6e" transform="scale(0.015625)"/>
       <path d="M 3328 2828 
Q 3544 3216 3844 3400 
Q 4144 3584 4550 3584 
Q 5097 3584 5394 3201 
Q 5691 2819 5691 2113 
L 5691 0 
L 5113 0 
L 5113 2094 
Q 5113 2597 4934 2840 
Q 4756 3084 4391 3084 
Q 3944 3084 3684 2787 
Q 3425 2491 3425 1978 
L 3425 0 
L 2847 0 
L 2847 2094 
Q 2847 2600 2669 2842 
Q 2491 3084 2119 3084 
Q 1678 3084 1418 2786 
Q 1159 2488 1159 1978 
L 1159 0 
L 581 0 
L 581 3500 
L 1159 3500 
L 1159 2956 
Q 1356 3278 1631 3431 
Q 1906 3584 2284 3584 
Q 2666 3584 2933 3390 
Q 3200 3197 3328 2828 
z
" id="DejaVuSans-6d" transform="scale(0.015625)"/>
       <path d="M 3116 1747 
Q 3116 2381 2855 2742 
Q 2594 3103 2138 3103 
Q 1681 3103 1420 2742 
Q 1159 2381 1159 1747 
Q 1159 1113 1420 752 
Q 1681 391 2138 391 
Q 2594 391 2855 752 
Q 3116 1113 3116 1747 
z
M 1159 2969 
Q 1341 3281 1617 3432 
Q 1894 3584 2278 3584 
Q 2916 3584 3314 3078 
Q 3713 2572 3713 1747 
Q 3713 922 3314 415 
Q 2916 -91 2278 -91 
Q 1894 -91 1617 61 
Q 1341 213 1159 525 
L 1159 0 
L 581 0 
L 581 4863 
L 1159 4863 
L 1159 2969 
z
" id="DejaVuSans-62" transform="scale(0.015625)"/>
       <path d="M 3597 1894 
L 3597 1613 
L 953 1613 
Q 991 1019 1311 708 
Q 1631 397 2203 397 
Q 2534 397 2845 478 
Q 3156 559 3463 722 
L 3463 178 
Q 3153 47 2828 -22 
Q 2503 -91 2169 -91 
Q 1331 -91 842 396 
Q 353 884 353 1716 
Q 353 2575 817 3079 
Q 1281 3584 2069 3584 
Q 2775 3584 3186 3129 
Q 3597 2675 3597 1894 
z
M 3022 2063 
Q 3016 2534 2758 2815 
Q 2500 3097 2075 3097 
Q 1594 3097 1305 2825 
Q 1016 2553 972 2059 
L 3022 2063 
z
" id="DejaVuSans-65" transform="scale(0.015625)"/>
       <path d="M 2631 2963 
Q 2534 3019 2420 3045 
Q 2306 3072 2169 3072 
Q 1681 3072 1420 2755 
Q 1159 2438 1159 1844 
L 1159 0 
L 581 0 
L 581 3500 
L 1159 3500 
L 1159 2956 
Q 1341 3275 1631 3429 
Q 1922 3584 2338 3584 
Q 2397 3584 2469 3576 
Q 2541 3569 2628 3553 
L 2631 2963 
z
" id="DejaVuSans-72" transform="scale(0.015625)"/>
      </defs>
      <use xlink:href="#DejaVuSans-53"/>
      <use x="63.476562" xlink:href="#DejaVuSans-74"/>
      <use x="102.685547" xlink:href="#DejaVuSans-75"/>
      <use x="166.064453" xlink:href="#DejaVuSans-64"/>
      <use x="229.541016" xlink:href="#DejaVuSans-79"/>
      <use x="288.720703" xlink:href="#DejaVuSans-20"/>
      <use x="320.507812" xlink:href="#DejaVuSans-64"/>
      <use x="383.984375" xlink:href="#DejaVuSans-61"/>
      <use x="445.263672" xlink:href="#DejaVuSans-79"/>
      <use x="504.443359" xlink:href="#DejaVuSans-20"/>
      <use x="536.230469" xlink:href="#DejaVuSans-6e"/>
      <use x="599.609375" xlink:href="#DejaVuSans-75"/>
      <use x="662.988281" xlink:href="#DejaVuSans-6d"/>
      <use x="760.400391" xlink:href="#DejaVuSans-62"/>
      <use x="823.876953" xlink:href="#DejaVuSans-65"/>
      <use x="885.400391" xlink:href="#DejaVuSans-72"/>
     </g>
    </g>
   </g>
   <g id="matplotlib.axis_2">
    <g id="ytick_1">
     <g id="line2d_4">
      <defs>
       <path d="M 0 0 
L -4.8 0 
" id="mcd040ef7c3" style="stroke:#262626;"/>
      </defs>
      <g>
       <use style="fill:#262626;stroke:#262626;" x="47.9975" xlink:href="#mcd040ef7c3" y="151.757536"/>
      </g>
     </g>
     <g id="text_5">
      <!-- −15 -->
      <g style="fill:#262626;" transform="translate(22.81375 154.796911)scale(0.08 -0.08)">
       <defs>
        <path d="M 678 2272 
L 4684 2272 
L 4684 1741 
L 678 1741 
L 678 2272 
z
" id="DejaVuSans-2212" transform="scale(0.015625)"/>
       </defs>
       <use xlink:href="#DejaVuSans-2212"/>
       <use x="83.789062" xlink:href="#DejaVuSans-31"/>
       <use x="147.412109" xlink:href="#DejaVuSans-35"/>
      </g>
     </g>
    </g>
    <g id="ytick_2">
     <g id="line2d_5">
      <g>
       <use style="fill:#262626;stroke:#262626;" x="47.9975" xlink:href="#mcd040ef7c3" y="129.669016"/>
      </g>
     </g>
     <g id="text_6">
      <!-- −10 -->
      <g style="fill:#262626;" transform="translate(22.81375 132.708391)scale(0.08 -0.08)">
       <use xlink:href="#DejaVuSans-2212"/>
       <use x="83.789062" xlink:href="#DejaVuSans-31"/>
       <use x="147.412109" xlink:href="#DejaVuSans-30"/>
      </g>
     </g>
    </g>
    <g id="ytick_3">
     <g id="line2d_6">
      <g>
       <use style="fill:#262626;stroke:#262626;" x="47.9975" xlink:href="#mcd040ef7c3" y="107.580496"/>
      </g>
     </g>
     <g id="text_7">
      <!-- −5 -->
      <g style="fill:#262626;" transform="translate(27.90375 110.619871)scale(0.08 -0.08)">
       <use xlink:href="#DejaVuSans-2212"/>
       <use x="83.789062" xlink:href="#DejaVuSans-35"/>
      </g>
     </g>
    </g>
    <g id="ytick_4">
     <g id="line2d_7">
      <g>
       <use style="fill:#262626;stroke:#262626;" x="47.9975" xlink:href="#mcd040ef7c3" y="85.491977"/>
      </g>
     </g>
     <g id="text_8">
      <!-- 0 -->
      <g style="fill:#262626;" transform="translate(34.6075 88.531352)scale(0.08 -0.08)">
       <use xlink:href="#DejaVuSans-30"/>
      </g>
     </g>
    </g>
    <g id="ytick_5">
     <g id="line2d_8">
      <g>
       <use style="fill:#262626;stroke:#262626;" x="47.9975" xlink:href="#mcd040ef7c3" y="63.403457"/>
      </g>
     </g>
     <g id="text_9">
      <!-- 5 -->
      <g style="fill:#262626;" transform="translate(34.6075 66.442832)scale(0.08 -0.08)">
       <use xlink:href="#DejaVuSans-35"/>
      </g>
     </g>
    </g>
    <g id="ytick_6">
     <g id="line2d_9">
      <g>
       <use style="fill:#262626;stroke:#262626;" x="47.9975" xlink:href="#mcd040ef7c3" y="41.314937"/>
      </g>
     </g>
     <g id="text_10">
      <!-- 10 -->
      <g style="fill:#262626;" transform="translate(29.5175 44.354312)scale(0.08 -0.08)">
       <use xlink:href="#DejaVuSans-31"/>
       <use x="63.623047" xlink:href="#DejaVuSans-30"/>
      </g>
     </g>
    </g>
    <g id="text_11">
     <!-- $Escherichia\ coli$ abundance -->
     <g style="fill:#262626;" transform="translate(16.318125 172.416989)rotate(-90)scale(0.12 -0.12)">
      <defs>
       <path d="M 1081 4666 
L 4031 4666 
L 3928 4134 
L 1606 4134 
L 1338 2753 
L 3566 2753 
L 3463 2222 
L 1234 2222 
L 909 531 
L 3284 531 
L 3181 0 
L 172 0 
L 1081 4666 
z
" id="DejaVuSans-Oblique-45" transform="scale(0.015625)"/>
       <path d="M 3200 3397 
L 3091 2853 
Q 2863 2978 2609 3040 
Q 2356 3103 2088 3103 
Q 1634 3103 1373 2948 
Q 1113 2794 1113 2528 
Q 1113 2219 1719 2053 
Q 1766 2041 1788 2034 
L 1972 1978 
Q 2547 1819 2739 1644 
Q 2931 1469 2931 1166 
Q 2931 609 2489 259 
Q 2047 -91 1331 -91 
Q 1053 -91 747 -37 
Q 441 16 72 128 
L 184 722 
Q 500 559 806 475 
Q 1113 391 1394 391 
Q 1816 391 2080 572 
Q 2344 753 2344 1031 
Q 2344 1331 1650 1516 
L 1591 1531 
L 1394 1581 
Q 956 1697 753 1886 
Q 550 2075 550 2369 
Q 550 2928 970 3256 
Q 1391 3584 2113 3584 
Q 2397 3584 2667 3537 
Q 2938 3491 3200 3397 
z
" id="DejaVuSans-Oblique-73" transform="scale(0.015625)"/>
       <path d="M 3431 3366 
L 3316 2797 
Q 3109 2947 2876 3022 
Q 2644 3097 2394 3097 
Q 2119 3097 1870 3000 
Q 1622 2903 1453 2725 
Q 1184 2453 1037 2087 
Q 891 1722 891 1331 
Q 891 859 1127 628 
Q 1363 397 1844 397 
Q 2081 397 2348 469 
Q 2616 541 2906 684 
L 2797 116 
Q 2547 13 2283 -39 
Q 2019 -91 1741 -91 
Q 1044 -91 669 257 
Q 294 606 294 1253 
Q 294 1797 489 2255 
Q 684 2713 1069 3078 
Q 1331 3328 1684 3456 
Q 2038 3584 2456 3584 
Q 2700 3584 2940 3529 
Q 3181 3475 3431 3366 
z
" id="DejaVuSans-Oblique-63" transform="scale(0.015625)"/>
       <path d="M 3566 2113 
L 3156 0 
L 2578 0 
L 2988 2091 
Q 3016 2238 3031 2350 
Q 3047 2463 3047 2528 
Q 3047 2791 2881 2937 
Q 2716 3084 2419 3084 
Q 1956 3084 1617 2771 
Q 1278 2459 1178 1941 
L 800 0 
L 225 0 
L 1172 4863 
L 1747 4863 
L 1375 2950 
Q 1594 3244 1934 3414 
Q 2275 3584 2650 3584 
Q 3113 3584 3367 3334 
Q 3622 3084 3622 2631 
Q 3622 2519 3608 2391 
Q 3594 2263 3566 2113 
z
" id="DejaVuSans-Oblique-68" transform="scale(0.015625)"/>
       <path d="M 3078 2063 
Q 3088 2113 3092 2166 
Q 3097 2219 3097 2272 
Q 3097 2653 2873 2875 
Q 2650 3097 2266 3097 
Q 1838 3097 1509 2826 
Q 1181 2556 1013 2059 
L 3078 2063 
z
M 3578 1613 
L 903 1613 
Q 884 1494 878 1425 
Q 872 1356 872 1306 
Q 872 872 1139 634 
Q 1406 397 1894 397 
Q 2269 397 2603 481 
Q 2938 566 3225 728 
L 3116 159 
Q 2806 34 2476 -28 
Q 2147 -91 1806 -91 
Q 1078 -91 686 257 
Q 294 606 294 1247 
Q 294 1794 489 2264 
Q 684 2734 1063 3103 
Q 1306 3334 1642 3459 
Q 1978 3584 2356 3584 
Q 2950 3584 3301 3228 
Q 3653 2872 3653 2272 
Q 3653 2128 3634 1964 
Q 3616 1800 3578 1613 
z
" id="DejaVuSans-Oblique-65" transform="scale(0.015625)"/>
       <path d="M 2853 2969 
Q 2766 3016 2653 3041 
Q 2541 3066 2413 3066 
Q 1953 3066 1609 2717 
Q 1266 2369 1153 1784 
L 800 0 
L 225 0 
L 909 3500 
L 1484 3500 
L 1375 2956 
Q 1603 3259 1920 3421 
Q 2238 3584 2597 3584 
Q 2691 3584 2781 3573 
Q 2872 3563 2963 3538 
L 2853 2969 
z
" id="DejaVuSans-Oblique-72" transform="scale(0.015625)"/>
       <path d="M 1172 4863 
L 1747 4863 
L 1606 4134 
L 1031 4134 
L 1172 4863 
z
M 909 3500 
L 1484 3500 
L 800 0 
L 225 0 
L 909 3500 
z
" id="DejaVuSans-Oblique-69" transform="scale(0.015625)"/>
       <path d="M 3438 1997 
L 3047 0 
L 2472 0 
L 2578 531 
Q 2325 219 2001 64 
Q 1678 -91 1281 -91 
Q 834 -91 548 182 
Q 263 456 263 884 
Q 263 1497 752 1853 
Q 1241 2209 2100 2209 
L 2900 2209 
L 2931 2363 
Q 2938 2388 2941 2417 
Q 2944 2447 2944 2509 
Q 2944 2788 2717 2942 
Q 2491 3097 2081 3097 
Q 1800 3097 1504 3025 
Q 1209 2953 897 2809 
L 997 3341 
Q 1322 3463 1633 3523 
Q 1944 3584 2234 3584 
Q 2853 3584 3176 3315 
Q 3500 3047 3500 2534 
Q 3500 2431 3484 2292 
Q 3469 2153 3438 1997 
z
M 2816 1759 
L 2241 1759 
Q 1534 1759 1195 1570 
Q 856 1381 856 984 
Q 856 709 1029 553 
Q 1203 397 1509 397 
Q 1978 397 2328 733 
Q 2678 1069 2791 1631 
L 2816 1759 
z
" id="DejaVuSans-Oblique-61" transform="scale(0.015625)"/>
       <path d="M 1625 -91 
Q 1009 -91 651 289 
Q 294 669 294 1325 
Q 294 1706 417 2101 
Q 541 2497 738 2766 
Q 1047 3184 1428 3384 
Q 1809 3584 2291 3584 
Q 2888 3584 3255 3212 
Q 3622 2841 3622 2241 
Q 3622 1825 3500 1412 
Q 3378 1000 3181 728 
Q 2875 309 2494 109 
Q 2113 -91 1625 -91 
z
M 891 1344 
Q 891 869 1089 633 
Q 1288 397 1691 397 
Q 2269 397 2648 901 
Q 3028 1406 3028 2181 
Q 3028 2634 2825 2865 
Q 2622 3097 2228 3097 
Q 1903 3097 1650 2945 
Q 1397 2794 1197 2484 
Q 1050 2253 970 1956 
Q 891 1659 891 1344 
z
" id="DejaVuSans-Oblique-6f" transform="scale(0.015625)"/>
       <path d="M 1172 4863 
L 1747 4863 
L 800 0 
L 225 0 
L 1172 4863 
z
" id="DejaVuSans-Oblique-6c" transform="scale(0.015625)"/>
       <path d="M 3122 3366 
L 3122 2828 
Q 2878 2963 2633 3030 
Q 2388 3097 2138 3097 
Q 1578 3097 1268 2742 
Q 959 2388 959 1747 
Q 959 1106 1268 751 
Q 1578 397 2138 397 
Q 2388 397 2633 464 
Q 2878 531 3122 666 
L 3122 134 
Q 2881 22 2623 -34 
Q 2366 -91 2075 -91 
Q 1284 -91 818 406 
Q 353 903 353 1747 
Q 353 2603 823 3093 
Q 1294 3584 2113 3584 
Q 2378 3584 2631 3529 
Q 2884 3475 3122 3366 
z
" id="DejaVuSans-63" transform="scale(0.015625)"/>
      </defs>
      <use transform="translate(0 0.015625)" xlink:href="#DejaVuSans-Oblique-45"/>
      <use transform="translate(63.183594 0.015625)" xlink:href="#DejaVuSans-Oblique-73"/>
      <use transform="translate(115.283203 0.015625)" xlink:href="#DejaVuSans-Oblique-63"/>
      <use transform="translate(170.263672 0.015625)" xlink:href="#DejaVuSans-Oblique-68"/>
      <use transform="translate(233.642578 0.015625)" xlink:href="#DejaVuSans-Oblique-65"/>
      <use transform="translate(295.166016 0.015625)" xlink:href="#DejaVuSans-Oblique-72"/>
      <use transform="translate(336.279297 0.015625)" xlink:href="#DejaVuSans-Oblique-69"/>
      <use transform="translate(364.0625 0.015625)" xlink:href="#DejaVuSans-Oblique-63"/>
      <use transform="translate(419.042969 0.015625)" xlink:href="#DejaVuSans-Oblique-68"/>
      <use transform="translate(482.421875 0.015625)" xlink:href="#DejaVuSans-Oblique-69"/>
      <use transform="translate(510.205078 0.015625)" xlink:href="#DejaVuSans-Oblique-61"/>
      <use transform="translate(603.954753 0.015625)" xlink:href="#DejaVuSans-Oblique-63"/>
      <use transform="translate(658.935222 0.015625)" xlink:href="#DejaVuSans-Oblique-6f"/>
      <use transform="translate(720.116863 0.015625)" xlink:href="#DejaVuSans-Oblique-6c"/>
      <use transform="translate(747.900066 0.015625)" xlink:href="#DejaVuSans-Oblique-69"/>
      <use transform="translate(775.683269 0.015625)" xlink:href="#DejaVuSans-20"/>
      <use transform="translate(807.470378 0.015625)" xlink:href="#DejaVuSans-61"/>
      <use transform="translate(868.749675 0.015625)" xlink:href="#DejaVuSans-62"/>
      <use transform="translate(932.226238 0.015625)" xlink:href="#DejaVuSans-75"/>
      <use transform="translate(995.605144 0.015625)" xlink:href="#DejaVuSans-6e"/>
      <use transform="translate(1058.98405 0.015625)" xlink:href="#DejaVuSans-64"/>
      <use transform="translate(1122.460613 0.015625)" xlink:href="#DejaVuSans-61"/>
      <use transform="translate(1183.73991 0.015625)" xlink:href="#DejaVuSans-6e"/>
      <use transform="translate(1247.118816 0.015625)" xlink:href="#DejaVuSans-63"/>
      <use transform="translate(1302.099285 0.015625)" xlink:href="#DejaVuSans-65"/>
     </g>
    </g>
   </g>
   <g id="line2d_10">
    <path clip-path="url(#p8eac8ade56)" d="M 56.240682 82.134453 
L 63.132671 82.992787 
L 70.173052 83.645352 
L 77.394802 84.090523 
L 84.797919 84.323322 
L 92.415381 84.33977 
L 100.296651 84.133088 
L 108.458217 83.695284 
L 116.966032 83.014535 
L 125.869558 82.077361 
L 135.267725 80.862585 
L 145.292437 79.340029 
L 156.141549 77.463928 
L 168.16131 75.15499 
L 182.077193 72.247943 
L 208.012836 66.757734 
L 214.756433 65.642442 
L 220.609678 64.895706 
L 221.104318 64.843723 
L 221.104318 64.843723 
" style="fill:none;stroke:#0173b2;stroke-linecap:round;stroke-width:1.2;"/>
   </g>
   <g id="line2d_11">
    <path clip-path="url(#p8eac8ade56)" d="M 56.240682 82.134124 
L 59.027156 83.013849 
L 61.846606 83.670375 
L 64.71552 84.108988 
L 67.633898 84.330097 
L 70.634717 84.334044 
L 73.734463 84.114796 
L 76.966113 83.660841 
L 80.346156 82.958356 
L 83.907567 81.987723 
L 87.69981 80.719702 
L 91.772349 79.119808 
L 96.2406 77.120786 
L 101.269444 74.621192 
L 107.27108 71.379211 
L 115.119374 67.126373 
L 118.021264 65.844373 
L 120.445002 65.009396 
L 122.588444 64.49951 
L 124.550517 64.256572 
L 126.380687 64.250799 
L 128.111928 64.464674 
L 129.793705 64.897087 
L 131.426019 65.547059 
L 133.041844 66.431472 
L 134.657669 67.572932 
L 136.289982 69.004569 
L 137.938783 70.752875 
L 139.653537 72.906943 
L 142.143227 76.447452 
L 145.539757 81.218437 
L 147.205046 83.174644 
L 148.540575 84.417195 
L 149.678248 85.183839 
L 150.766457 85.655292 
L 151.854666 85.888396 
L 152.959363 85.899778 
L 154.130012 85.68506 
L 155.383101 85.221634 
L 156.751606 84.471333 
L 158.301479 83.357737 
L 160.098672 81.781697 
L 162.35753 79.486901 
L 166.364117 75.028579 
L 169.579279 71.605476 
L 171.656769 69.705303 
L 173.355034 68.438305 
L 174.838955 67.6 
L 176.157996 67.104099 
L 177.361621 66.884669 
L 178.482806 66.902507 
L 179.571015 67.143953 
L 179.884287 67.256973 
L 179.884287 67.256973 
" style="fill:none;stroke:#0173b2;stroke-dasharray:4.44,1.92;stroke-dashoffset:0;stroke-width:1.2;"/>
   </g>
   <g id="line2d_12">
    <path clip-path="url(#p8eac8ade56)" d="M 56.25717 93.844096 
L 57.609187 89.184962 
L 58.895252 85.514922 
L 60.131853 82.634114 
L 61.302502 80.44728 
L 62.423686 78.806234 
L 63.495407 77.618002 
L 64.534152 76.790469 
L 65.539921 76.265473 
L 66.54569 75.985536 
L 67.584434 75.925587 
L 68.705619 76.088965 
L 69.94222 76.500846 
L 71.393165 77.229604 
L 73.256311 78.432313 
L 79.274435 82.508038 
L 81.417877 83.563814 
L 83.46239 84.327978 
L 85.440952 84.833011 
L 87.353561 85.094159 
L 89.216707 85.126773 
L 91.063364 84.936302 
L 92.893533 84.522093 
L 94.723703 83.876926 
L 96.553872 82.994294 
L 98.449994 81.827319 
L 103.973478 78.235922 
L 105.358471 77.696077 
L 106.52912 77.46963 
L 107.584353 77.487044 
L 108.590121 77.726015 
L 109.711306 78.229977 
L 110.997371 79.062801 
L 112.58022 80.369311 
L 114.921518 82.627876 
L 118.301561 85.856181 
L 119.999826 87.155519 
L 121.450771 87.994639 
L 122.736836 88.487742 
L 123.907485 88.701629 
L 124.995694 88.676238 
L 126.034438 88.430921 
L 127.056695 87.960866 
L 128.09544 87.233097 
L 129.183649 86.187095 
L 130.519178 84.572715 
L 132.464763 81.830278 
L 135.712902 77.254525 
L 137.097895 75.701149 
L 138.186104 74.792134 
L 139.109432 74.293739 
L 140.016273 74.057151 
L 140.95609 74.042681 
L 141.994835 74.255744 
L 143.198459 74.739458 
L 144.764821 75.626591 
L 149.24956 78.311866 
L 150.618065 78.769386 
L 152.003058 79.000308 
L 153.437515 79.015012 
L 154.954412 78.806954 
L 156.603214 78.35085 
L 158.416895 77.612519 
L 160.494384 76.51956 
L 163.050026 74.910676 
L 167.205006 71.986208 
L 171.310521 69.190813 
L 173.767234 67.784147 
L 175.778772 66.879417 
L 177.542989 66.322177 
L 179.142327 66.044838 
L 180.642736 66.009375 
L 182.209097 66.200655 
L 183.956826 66.644915 
L 185.984852 67.398064 
L 188.639422 68.637714 
L 195.333555 71.866415 
L 197.394556 72.550214 
L 199.142286 72.900213 
L 200.692159 72.988924 
L 202.275008 72.848772 
L 204.187617 72.445535 
L 207.369804 71.504514 
L 210.255206 70.742935 
L 212.052399 70.494262 
L 213.569296 70.504705 
L 214.921314 70.73368 
L 216.19089 71.17498 
L 217.411003 71.837636 
L 218.614628 72.749995 
L 219.818253 73.948092 
L 221.038366 75.483671 
L 221.104318 75.576464 
L 221.104318 75.576464 
" style="fill:none;stroke:#de8f05;stroke-linecap:round;stroke-width:1.2;"/>
   </g>
   <g id="line2d_13">
    <path clip-path="url(#p8eac8ade56)" d="M 56.240682 93.900868 
L 57.592699 89.232007 
L 58.878764 85.553459 
L 60.115365 82.665146 
L 61.286014 80.471809 
L 62.407198 78.825079 
L 63.478919 77.631905 
L 64.517664 76.800036 
L 65.523433 76.271261 
L 66.529202 75.987957 
L 67.567946 75.924954 
L 68.672643 76.081605 
L 69.909244 76.488006 
L 71.343701 77.202472 
L 73.190359 78.387916 
L 79.373363 82.56382 
L 81.516805 83.607518 
L 83.561318 84.359673 
L 85.53988 84.852629 
L 87.452489 85.101675 
L 89.315635 85.122094 
L 91.162292 84.919142 
L 92.992462 84.492172 
L 94.822631 83.833857 
L 96.6528 82.937685 
L 98.56541 81.746761 
L 103.825086 78.306281 
L 105.226567 77.734566 
L 106.413704 77.480702 
L 107.485424 77.47596 
L 108.491193 77.694396 
L 109.59589 78.170005 
L 110.865467 78.969777 
L 112.41534 80.225902 
L 114.624734 82.335819 
L 118.384001 85.930099 
L 120.065778 87.202745 
L 121.500235 88.02055 
L 122.769812 88.498355 
L 123.923973 88.703298 
L 125.012182 88.673396 
L 126.050926 88.423364 
L 127.073183 87.948275 
L 128.111928 87.21499 
L 129.200137 86.163305 
L 130.552154 84.522092 
L 132.530715 81.725202 
L 135.679926 77.288639 
L 137.064919 75.727744 
L 138.169616 74.799421 
L 139.092944 74.297923 
L 139.999785 74.058576 
L 140.939602 74.041681 
L 141.978346 74.252569 
L 143.181971 74.734417 
L 144.748333 75.620153 
L 149.24956 78.314593 
L 150.618065 78.771007 
L 152.003058 79.000883 
L 153.437515 79.014581 
L 154.954412 78.805549 
L 156.603214 78.348498 
L 158.416895 77.609266 
L 160.510872 76.505901 
L 163.083002 74.883673 
L 167.303934 71.910281 
L 171.327009 69.175709 
L 173.767234 67.780166 
L 175.778772 66.876395 
L 177.542989 66.320223 
L 179.142327 66.044043 
L 180.642736 66.009795 
L 182.209097 66.202217 
L 183.956826 66.647538 
L 186.00134 67.408592 
L 188.672398 68.658541 
L 195.284091 71.850575 
L 197.345092 72.539388 
L 199.092822 72.894946 
L 200.659183 72.989323 
L 202.242032 72.852351 
L 204.154641 72.451631 
L 207.287364 71.526706 
L 210.22223 70.747613 
L 212.035911 70.494709 
L 213.552808 70.504137 
L 214.904826 70.732022 
L 216.174402 71.172146 
L 217.394515 71.833537 
L 218.59814 72.744524 
L 219.801765 73.94113 
L 221.021878 75.475082 
L 221.104318 75.59112 
L 221.104318 75.59112 
" style="fill:none;stroke:#de8f05;stroke-dasharray:4.44,1.92;stroke-dashoffset:0;stroke-width:1.2;"/>
   </g>
   <g id="line2d_14">
    <path clip-path="url(#p8eac8ade56)" d="M 56.240682 86.31416 
L 57.213475 77.389766 
L 58.103827 71.168925 
L 58.895252 67.090128 
L 59.604236 64.515456 
L 60.214293 63.062826 
L 60.725421 62.355869 
L 61.15411 62.10185 
L 61.533334 62.122111 
L 61.929046 62.376787 
L 62.39071 62.959897 
L 62.951303 64.056356 
L 63.627311 65.900301 
L 64.451712 68.840539 
L 65.457481 73.311057 
L 66.71057 79.963821 
L 68.441811 90.48095 
L 72.943038 118.394281 
L 74.245591 124.826591 
L 75.267848 128.845359 
L 76.108737 131.327111 
L 76.883673 132.957271 
L 77.57617 133.930549 
L 78.202714 134.455042 
L 78.779795 134.667071 
L 79.356875 134.644603 
L 79.966932 134.393254 
L 80.675916 133.845256 
L 81.533293 132.877733 
L 82.63799 131.263216 
L 84.435183 128.171589 
L 86.446721 124.83488 
L 87.600881 123.342026 
L 88.68909 122.282 
L 89.727835 121.570124 
L 90.733604 121.146951 
L 91.706397 120.974935 
L 92.695677 121.027598 
L 93.717934 121.310665 
L 94.789655 121.842913 
L 95.960304 122.682338 
L 97.229881 123.87515 
L 98.697314 125.575906 
L 103.083125 130.875326 
L 104.187822 131.762321 
L 105.094663 132.217695 
L 105.869599 132.368994 
L 106.578584 132.285658 
L 107.27108 131.974701 
L 107.963577 131.413123 
L 108.689049 130.530309 
L 109.496962 129.173321 
L 110.436779 127.135965 
L 111.557964 124.140818 
L 112.909981 119.85119 
L 114.624734 113.61329 
L 117.328768 102.805844 
L 120.54393 90.181375 
L 122.258684 84.335778 
L 123.594213 80.521933 
L 124.698909 77.992887 
L 125.622238 76.390455 
L 126.413663 75.434239 
L 127.073183 74.959354 
L 127.650264 74.801581 
L 128.17788 74.880394 
L 128.721984 75.196564 
L 129.299065 75.805536 
L 129.942097 76.832806 
L 130.651082 78.414019 
L 131.442507 80.754183 
L 132.415299 84.381143 
L 133.618924 89.797767 
L 135.218261 98.113286 
L 140.527401 126.572649 
L 141.731026 131.435072 
L 142.720307 134.561055 
L 143.61066 136.682483 
L 144.402084 138.035723 
L 145.111069 138.835225 
L 145.737613 139.22602 
L 146.314694 139.330551 
L 146.875286 139.203237 
L 147.468855 138.828565 
L 148.128375 138.130435 
L 148.870336 137.000871 
L 149.711224 135.295174 
L 150.667529 132.827846 
L 151.755738 129.3696 
L 152.975851 124.714852 
L 154.47626 118.033656 
L 159.735936 93.800507 
L 160.857121 90.0366 
L 161.747473 87.760047 
L 162.472946 86.460447 
L 163.066514 85.816092 
L 163.544667 85.596805 
L 163.956867 85.637576 
L 164.385555 85.913839 
L 164.880196 86.515616 
L 165.473764 87.609216 
L 166.199237 89.445168 
L 167.089589 92.355682 
L 168.177798 96.725621 
L 169.612255 103.488897 
L 172.217361 117.102621 
L 174.344315 127.666945 
L 175.679844 133.230936 
L 176.817517 137.070049 
L 177.823286 139.734653 
L 178.713638 141.498405 
L 179.472087 142.544578 
L 180.131607 143.103006 
L 180.708688 143.316929 
L 181.236304 143.283355 
L 181.763921 143.026641 
L 182.341001 142.485508 
L 182.984033 141.555719 
L 183.709506 140.084163 
L 184.517419 137.905531 
L 185.407771 134.828583 
L 186.380564 130.635579 
L 187.584189 124.371165 
L 189.364894 113.766175 
L 192.415177 95.600887 
L 193.668265 89.506791 
L 194.641058 85.801742 
L 195.415995 83.661428 
L 196.026051 82.56562 
L 196.504204 82.109967 
L 196.883428 82.020446 
L 197.229676 82.161139 
L 197.625388 82.582431 
L 198.120029 83.472105 
L 198.730085 85.070452 
L 199.488534 87.72512 
L 200.461327 92.000676 
L 201.813344 99.045716 
L 205.49017 118.712238 
L 206.495939 122.689704 
L 207.270876 124.937667 
L 207.880932 126.098469 
L 208.359085 126.581891 
L 208.754797 126.688867 
L 209.134021 126.554785 
L 209.562709 126.139964 
L 210.073838 125.303948 
L 210.700382 123.814294 
L 211.475319 121.341238 
L 212.431624 117.474121 
L 213.651737 111.525727 
L 215.432442 101.59378 
L 218.614628 83.801604 
L 219.884205 78.005204 
L 220.873486 74.458123 
L 221.104318 73.7789 
L 221.104318 73.7789 
" style="fill:none;stroke:#029e73;stroke-linecap:round;stroke-width:1.2;"/>
   </g>
   <g id="line2d_15">
    <path clip-path="url(#p8eac8ade56)" d="M 56.240682 126.571201 
L 57.361867 106.729893 
L 58.417099 91.808738 
L 59.389892 81.035078 
L 60.280245 73.492976 
L 61.088157 68.42406 
L 61.797142 65.266112 
L 62.423686 63.409382 
L 62.951303 62.481327 
L 63.379991 62.129825 
L 63.742727 62.09953 
L 64.105464 62.302267 
L 64.534152 62.82704 
L 65.061768 63.871085 
L 65.704801 65.690632 
L 66.479738 68.598743 
L 67.436042 73.112044 
L 68.639667 79.947048 
L 70.304956 90.813032 
L 74.459936 118.438031 
L 75.713025 125.04521 
L 76.685817 129.085085 
L 77.49373 131.563907 
L 78.219202 133.125048 
L 78.878723 134.051225 
L 79.472291 134.52224 
L 80.016396 134.681714 
L 80.5605 134.60708 
L 81.154069 134.288707 
L 81.846565 133.64789 
L 82.703942 132.527915 
L 83.858103 130.615754 
L 87.831714 123.699644 
L 88.886946 122.50711 
L 89.876227 121.708921 
L 90.816044 121.22375 
L 91.739373 120.993932 
L 92.646213 120.994837 
L 93.58603 121.220699 
L 94.575311 121.692213 
L 95.647032 122.456965 
L 96.81768 123.572841 
L 98.136721 125.147995 
L 103.000685 131.303591 
L 103.95699 131.99989 
L 104.748414 132.314846 
L 105.440911 132.359689 
L 106.083943 132.181815 
L 106.726976 131.768659 
L 107.402984 131.055075 
L 108.128457 129.941989 
L 108.969346 128.206076 
L 109.958626 125.618604 
L 111.145763 121.852966 
L 112.629684 116.350828 
L 114.690686 107.76393 
L 119.241377 88.57958 
L 120.774762 83.189761 
L 121.994875 79.657483 
L 123.000644 77.37649 
L 123.841533 75.978635 
L 124.550517 75.202662 
L 125.144086 74.861244 
L 125.655214 74.807769 
L 126.149855 74.979919 
L 126.660983 75.400913 
L 127.238063 76.188164 
L 127.881096 77.475556 
L 128.59008 79.423419 
L 129.430969 82.437757 
L 130.469714 87.052444 
L 131.805243 94.082052 
L 133.89922 106.482975 
L 136.619742 122.338549 
L 137.971759 128.942577 
L 139.026992 133.062073 
L 139.933833 135.751388 
L 140.741746 137.499295 
L 141.45073 138.546294 
L 142.077275 139.103864 
L 142.637867 139.318148 
L 143.165483 139.280406 
L 143.709588 139.004234 
L 144.303156 138.435188 
L 144.979165 137.456458 
L 145.754101 135.915586 
L 146.644454 133.614365 
L 147.650223 130.363668 
L 148.787896 125.899933 
L 150.139913 119.626471 
L 152.56365 107.077233 
L 154.608164 97.012517 
L 155.861253 91.889629 
L 156.834046 88.777529 
L 157.608982 86.978638 
L 158.235527 86.036679 
L 158.730167 85.652722 
L 159.142367 85.594841 
L 159.521592 85.764256 
L 159.966768 86.231525 
L 160.494384 87.13581 
L 161.137417 88.70782 
L 161.928842 91.2705 
L 162.918122 95.29331 
L 164.187699 101.472662 
L 166.133285 112.206168 
L 168.870295 127.128392 
L 170.172848 133.021053 
L 171.277545 137.044944 
L 172.250337 139.801913 
L 173.091226 141.565938 
L 173.816699 142.609926 
L 174.426755 143.134957 
L 174.970859 143.324453 
L 175.4655 143.263755 
L 175.976628 142.963356 
L 176.537221 142.350696 
L 177.163765 141.308095 
L 177.87275 139.662402 
L 178.664174 137.226518 
L 179.538039 133.783134 
L 180.510832 129.005969 
L 181.780409 121.558289 
L 184.187658 105.773667 
L 186.017828 94.514327 
L 187.171989 88.699036 
L 188.062341 85.255245 
L 188.771326 83.322939 
L 189.31543 82.402266 
L 189.744119 82.056893 
L 190.090367 82.040658 
L 190.420127 82.254747 
L 190.815839 82.799376 
L 191.326968 83.929524 
L 191.97 85.957986 
L 192.777913 89.311799 
L 193.849634 94.806483 
L 195.597363 105.136202 
L 197.641876 116.865924 
L 198.713597 121.781555 
L 199.52151 124.530164 
L 200.148054 125.945519 
L 200.626207 126.537771 
L 201.005431 126.689354 
L 201.351679 126.593015 
L 201.730904 126.244435 
L 202.192568 125.498375 
L 202.769648 124.108301 
L 203.478633 121.778176 
L 204.368986 118.023181 
L 205.506658 112.173835 
L 207.15546 102.383062 
L 210.354134 83.241047 
L 211.557759 77.467997 
L 212.481088 74.052223 
L 213.20656 72.142855 
L 213.783641 71.187967 
L 214.228817 70.829478 
L 214.591553 70.799626 
L 214.937802 71.003889 
L 215.333514 71.53069 
L 215.795178 72.562779 
L 216.322795 74.32622 
L 216.932851 77.192869 
L 217.625348 81.598805 
L 218.383796 87.934412 
L 219.224685 96.9464 
L 220.131525 109.191133 
L 221.104318 125.4702 
L 221.104318 125.4702 
" style="fill:none;stroke:#029e73;stroke-dasharray:4.44,1.92;stroke-dashoffset:0;stroke-width:1.2;"/>
   </g>
   <g id="line2d_16">
    <path clip-path="url(#p8eac8ade56)" d="M 66.562178 88.426289 
L 67.881219 88.751292 
L 69.233236 88.853853 
L 70.634717 88.733829 
L 72.118638 88.378754 
L 73.717975 87.761694 
L 75.482192 86.835673 
L 77.477242 85.529656 
L 79.851516 83.698518 
L 83.066678 80.913058 
L 89.612419 75.18244 
L 91.360148 73.987605 
L 92.778117 73.276609 
L 93.99823 72.904943 
L 95.102927 72.797363 
L 96.125184 72.919895 
L 97.114465 73.26582 
L 98.087257 73.846165 
L 99.076538 74.702855 
L 100.098795 75.894276 
L 101.154028 77.476656 
L 102.258725 79.546401 
L 103.412885 82.193848 
L 104.632998 85.570666 
L 105.902575 89.759886 
L 107.238104 94.961962 
L 108.656073 101.420965 
L 110.552195 111.205725 
L 115.267766 135.958833 
L 116.702223 142.104342 
L 117.839896 146.067709 
L 118.796201 148.639047 
L 119.670066 150.382063 
L 120.477978 151.520538 
L 121.219939 152.198981 
L 121.912435 152.541634 
L 122.588444 152.628798 
L 123.28094 152.488003 
L 124.039389 152.094516 
L 124.896766 151.386587 
L 125.919022 150.237993 
L 127.205087 148.434507 
L 129.101209 145.345138 
L 131.772267 140.56829 
L 135.086357 134.160605 
L 140.626329 122.875091 
L 145.770589 112.589265 
L 148.9198 106.777505 
L 151.49193 102.477942 
L 153.717811 99.174049 
L 155.696373 96.623296 
L 157.46059 94.698171 
L 159.059927 93.268792 
L 160.576825 92.207174 
L 162.209138 91.338247 
L 164.121747 90.580116 
L 167.056613 89.691709 
L 170.106896 88.698751 
L 176.405316 86.383966 
L 177.839774 86.205302 
L 179.092862 86.266503 
L 180.247023 86.541104 
L 181.467136 87.067878 
L 182.901593 87.940936 
L 184.715275 89.323006 
L 191.293992 94.592643 
L 193.025233 95.513773 
L 194.756474 96.185756 
L 196.520692 96.632442 
L 198.334373 96.860575 
L 200.214006 96.87121 
L 202.192568 96.658581 
L 204.319522 96.203508 
L 206.660819 95.469334 
L 209.298901 94.40198 
L 212.4646 92.869877 
L 217.031779 90.383462 
L 221.104318 88.126061 
L 221.104318 88.126061 
" style="fill:none;stroke:#cc78bc;stroke-linecap:round;stroke-width:1.2;"/>
   </g>
   <g id="line2d_17">
    <path clip-path="url(#p8eac8ade56)" d="M 66.54569 88.421458 
L 67.864731 88.749002 
L 69.216748 88.853924 
L 70.618229 88.736095 
L 72.10215 88.383069 
L 73.701487 87.76791 
L 75.465704 86.843626 
L 77.460754 85.539137 
L 79.835028 83.709233 
L 83.033702 80.939295 
L 89.612419 75.179073 
L 91.360148 73.984886 
L 92.778117 73.274707 
L 93.99823 72.903969 
L 95.102927 72.79742 
L 96.125184 72.921077 
L 97.114465 73.268252 
L 98.087257 73.849991 
L 99.076538 74.70827 
L 100.098795 75.901522 
L 101.154028 77.486003 
L 102.258725 79.558184 
L 103.412885 82.208446 
L 104.632998 85.588551 
L 105.902575 89.781544 
L 107.238104 94.987994 
L 108.656073 101.451733 
L 110.568683 111.32937 
L 115.23479 135.837706 
L 116.669247 142.003996 
L 117.80692 145.988472 
L 118.763225 148.579385 
L 119.63709 150.33884 
L 120.445002 151.491177 
L 121.186963 152.181229 
L 121.879459 152.533757 
L 122.555468 152.629673 
L 123.247964 152.496941 
L 123.989925 152.122092 
L 124.847302 151.426677 
L 125.869558 150.290091 
L 127.139135 148.522214 
L 129.002281 145.49941 
L 131.656851 140.76695 
L 134.937965 134.438145 
L 140.247105 123.63305 
L 145.655173 112.792036 
L 148.83736 106.904477 
L 151.425978 102.565395 
L 153.651859 99.250606 
L 155.630421 96.688748 
L 157.411126 94.736179 
L 159.026951 93.285995 
L 160.543848 92.220341 
L 162.176162 91.348082 
L 164.088771 90.58737 
L 166.990661 89.707184 
L 170.07392 88.706666 
L 176.421804 86.378009 
L 177.856262 86.204212 
L 179.109351 86.270814 
L 180.263511 86.551255 
L 181.500112 87.092269 
L 182.934569 87.973164 
L 184.764739 89.375211 
L 191.195064 94.54108 
L 192.926305 95.474882 
L 194.657546 96.158631 
L 196.421764 96.616381 
L 198.218957 96.853752 
L 200.09859 96.876069 
L 202.077152 96.674401 
L 204.204105 96.229587 
L 206.528915 95.510763 
L 209.150509 94.460545 
L 212.283232 92.954773 
L 216.718507 90.549267 
L 221.104318 88.116604 
L 221.104318 88.116604 
" style="fill:none;stroke:#cc78bc;stroke-dasharray:4.44,1.92;stroke-dashoffset:0;stroke-width:1.2;"/>
   </g>
   <g id="line2d_18">
    <path clip-path="url(#p8eac8ade56)" d="M 56.240682 37.987231 
L 57.295915 37.217601 
L 58.334659 36.731156 
L 59.356916 36.494356 
L 60.412149 36.480073 
L 61.516846 36.691651 
L 62.720471 37.156444 
L 64.056 37.919093 
L 65.605873 39.072029 
L 67.501994 40.775296 
L 70.370908 43.692353 
L 74.146663 47.478779 
L 76.059273 49.079989 
L 77.609146 50.098612 
L 78.944675 50.717701 
L 80.131812 51.028478 
L 81.220021 51.087089 
L 82.242277 50.922533 
L 83.248046 50.532929 
L 84.253815 49.898473 
L 85.358512 48.922118 
L 86.644577 47.47101 
L 88.19445 45.368328 
L 90.288428 42.12075 
L 95.564591 33.779863 
L 97.163929 31.75132 
L 98.466482 30.44139 
L 99.653619 29.556998 
L 100.807779 28.967952 
L 101.945452 28.632189 
L 103.099613 28.523492 
L 104.28675 28.637908 
L 105.539839 28.987681 
L 106.875368 29.595766 
L 108.342801 30.513686 
L 109.991602 31.815704 
L 111.904212 33.6229 
L 114.229022 36.144033 
L 117.592576 40.158781 
L 122.753324 46.299699 
L 125.127598 48.764586 
L 127.056695 50.4582 
L 128.820913 51.714965 
L 130.552154 52.68031 
L 132.266907 53.383415 
L 133.965172 53.83985 
L 135.663438 54.065744 
L 137.378191 54.068254 
L 139.12592 53.846263 
L 140.923114 53.39092 
L 142.786259 52.686074 
L 144.731845 51.708659 
L 146.776358 50.429111 
L 148.952776 48.798524 
L 151.261097 46.785381 
L 153.734299 44.327243 
L 156.471309 41.282541 
L 160.840633 36.398454 
L 162.670802 34.709173 
L 164.138235 33.642119 
L 165.407812 32.983232 
L 166.528997 32.64297 
L 167.551254 32.557521 
L 168.524047 32.697377 
L 169.463863 33.056557 
L 170.469632 33.691229 
L 171.607305 34.682692 
L 172.959322 36.168398 
L 174.690563 38.424003 
L 177.95519 43.139138 
L 180.312975 46.338454 
L 181.879337 48.104824 
L 183.132426 49.202463 
L 184.220634 49.871615 
L 185.275867 50.26328 
L 186.364076 50.42875 
L 187.501749 50.373253 
L 188.73835 50.085175 
L 190.139831 49.522911 
L 191.838096 48.589318 
L 194.311298 46.94549 
L 197.955149 44.546253 
L 199.884246 43.567405 
L 201.813344 42.836008 
L 203.742441 42.340479 
L 205.704515 42.066478 
L 207.699564 42.013202 
L 209.744078 42.181001 
L 211.871031 42.579771 
L 214.195841 43.250019 
L 217.279099 44.389336 
L 221.104318 45.916132 
L 221.104318 45.916132 
" style="fill:none;stroke:#d55e00;stroke-linecap:round;stroke-width:1.2;"/>
   </g>
   <g id="line2d_19">
    <path clip-path="url(#p8eac8ade56)" d="M 56.240682 38.782763 
L 57.114546 37.665196 
L 57.922459 36.972162 
L 58.697396 36.589427 
L 59.455844 36.459546 
L 60.230781 36.554029 
L 61.071669 36.889463 
L 62.011486 37.515616 
L 63.099695 38.519242 
L 64.451712 40.089805 
L 66.331345 42.650596 
L 70.206028 47.994907 
L 71.607509 49.509018 
L 72.728694 50.409376 
L 73.668511 50.8953 
L 74.492912 51.084773 
L 75.25136 51.038428 
L 75.993321 50.766916 
L 76.735281 50.251154 
L 77.526706 49.415931 
L 78.466523 48.080135 
L 79.620683 46.030234 
L 81.187045 42.753385 
L 85.737736 32.94785 
L 86.924873 31.044457 
L 87.897666 29.883953 
L 88.804506 29.136899 
L 89.661883 28.708111 
L 90.502772 28.531829 
L 91.34366 28.580308 
L 92.234013 28.857709 
L 93.206806 29.403238 
L 94.295015 30.281925 
L 95.531615 31.579298 
L 96.999049 33.459573 
L 98.829218 36.192338 
L 101.648668 40.861916 
L 105.177103 46.617305 
L 107.007272 49.181294 
L 108.474705 50.873684 
L 109.84321 52.118368 
L 111.162251 53.022152 
L 112.431828 53.627267 
L 113.668429 53.975685 
L 114.90503 54.094705 
L 116.158119 53.989845 
L 117.444184 53.655284 
L 118.779713 53.074502 
L 120.197682 52.209229 
L 121.714579 51.014048 
L 123.330404 49.451366 
L 125.094622 47.425519 
L 127.007231 44.879649 
L 129.117697 41.688121 
L 132.843988 35.974547 
L 134.212493 34.321798 
L 135.300701 33.3375 
L 136.207542 32.799093 
L 136.998967 32.574635 
L 137.724439 32.595495 
L 138.416936 32.838491 
L 139.12592 33.330989 
L 139.950321 34.196023 
L 140.939602 35.578533 
L 142.209179 37.764255 
L 144.27018 41.831056 
L 146.59499 46.281668 
L 147.848079 48.222798 
L 148.820872 49.353648 
L 149.645272 49.99117 
L 150.436697 50.331778 
L 151.228121 50.435495 
L 152.06901 50.318206 
L 152.992339 49.959578 
L 154.080548 49.288251 
L 155.482029 48.142111 
L 160.626289 43.671084 
L 162.077234 42.885843 
L 163.511691 42.360956 
L 164.946148 42.073453 
L 166.397093 42.011306 
L 167.881014 42.172118 
L 169.430887 42.567358 
L 171.129152 43.239881 
L 173.404498 44.401184 
L 178.268462 46.942648 
L 179.999703 47.556189 
L 181.549576 47.868174 
L 183.18189 47.967329 
L 184.929619 47.846039 
L 186.842228 47.486323 
L 189.051622 46.836936 
L 191.838096 45.770972 
L 200.774599 42.170878 
L 202.951016 41.63848 
L 204.847138 41.400024 
L 206.561891 41.406261 
L 208.161228 41.63375 
L 209.678126 42.073445 
L 210.79931 42.552956 
L 210.79931 42.552956 
" style="fill:none;stroke:#d55e00;stroke-dasharray:4.44,1.92;stroke-dashoffset:0;stroke-width:1.2;"/>
   </g>
   <g id="patch_3">
    <path d="M 47.9975 158.835852 
L 47.9975 22.318125 
" style="fill:none;stroke:#262626;stroke-linecap:square;stroke-linejoin:miter;stroke-width:0.6;"/>
   </g>
   <g id="patch_4">
    <path d="M 229.3475 158.835852 
L 229.3475 22.318125 
" style="fill:none;stroke:#262626;stroke-linecap:square;stroke-linejoin:miter;stroke-width:0.6;"/>
   </g>
   <g id="patch_5">
    <path d="M 47.9975 158.835852 
L 229.3475 158.835852 
" style="fill:none;stroke:#262626;stroke-linecap:square;stroke-linejoin:miter;stroke-width:0.6;"/>
   </g>
   <g id="patch_6">
    <path d="M 47.9975 22.318125 
L 229.3475 22.318125 
" style="fill:none;stroke:#262626;stroke-linecap:square;stroke-linejoin:miter;stroke-width:0.6;"/>
   </g>
   <g id="text_12">
    <!-- Temporal alignment -->
    <g style="fill:#262626;" transform="translate(78.980938 16.318125)scale(0.12 -0.12)">
     <defs>
      <path d="M -19 4666 
L 3928 4666 
L 3928 4134 
L 2272 4134 
L 2272 0 
L 1638 0 
L 1638 4134 
L -19 4134 
L -19 4666 
z
" id="DejaVuSans-54" transform="scale(0.015625)"/>
      <path d="M 1159 525 
L 1159 -1331 
L 581 -1331 
L 581 3500 
L 1159 3500 
L 1159 2969 
Q 1341 3281 1617 3432 
Q 1894 3584 2278 3584 
Q 2916 3584 3314 3078 
Q 3713 2572 3713 1747 
Q 3713 922 3314 415 
Q 2916 -91 2278 -91 
Q 1894 -91 1617 61 
Q 1341 213 1159 525 
z
M 3116 1747 
Q 3116 2381 2855 2742 
Q 2594 3103 2138 3103 
Q 1681 3103 1420 2742 
Q 1159 2381 1159 1747 
Q 1159 1113 1420 752 
Q 1681 391 2138 391 
Q 2594 391 2855 752 
Q 3116 1113 3116 1747 
z
" id="DejaVuSans-70" transform="scale(0.015625)"/>
      <path d="M 1959 3097 
Q 1497 3097 1228 2736 
Q 959 2375 959 1747 
Q 959 1119 1226 758 
Q 1494 397 1959 397 
Q 2419 397 2687 759 
Q 2956 1122 2956 1747 
Q 2956 2369 2687 2733 
Q 2419 3097 1959 3097 
z
M 1959 3584 
Q 2709 3584 3137 3096 
Q 3566 2609 3566 1747 
Q 3566 888 3137 398 
Q 2709 -91 1959 -91 
Q 1206 -91 779 398 
Q 353 888 353 1747 
Q 353 2609 779 3096 
Q 1206 3584 1959 3584 
z
" id="DejaVuSans-6f" transform="scale(0.015625)"/>
      <path d="M 603 4863 
L 1178 4863 
L 1178 0 
L 603 0 
L 603 4863 
z
" id="DejaVuSans-6c" transform="scale(0.015625)"/>
      <path d="M 603 3500 
L 1178 3500 
L 1178 0 
L 603 0 
L 603 3500 
z
M 603 4863 
L 1178 4863 
L 1178 4134 
L 603 4134 
L 603 4863 
z
" id="DejaVuSans-69" transform="scale(0.015625)"/>
      <path d="M 2906 1791 
Q 2906 2416 2648 2759 
Q 2391 3103 1925 3103 
Q 1463 3103 1205 2759 
Q 947 2416 947 1791 
Q 947 1169 1205 825 
Q 1463 481 1925 481 
Q 2391 481 2648 825 
Q 2906 1169 2906 1791 
z
M 3481 434 
Q 3481 -459 3084 -895 
Q 2688 -1331 1869 -1331 
Q 1566 -1331 1297 -1286 
Q 1028 -1241 775 -1147 
L 775 -588 
Q 1028 -725 1275 -790 
Q 1522 -856 1778 -856 
Q 2344 -856 2625 -561 
Q 2906 -266 2906 331 
L 2906 616 
Q 2728 306 2450 153 
Q 2172 0 1784 0 
Q 1141 0 747 490 
Q 353 981 353 1791 
Q 353 2603 747 3093 
Q 1141 3584 1784 3584 
Q 2172 3584 2450 3431 
Q 2728 3278 2906 2969 
L 2906 3500 
L 3481 3500 
L 3481 434 
z
" id="DejaVuSans-67" transform="scale(0.015625)"/>
     </defs>
     <use xlink:href="#DejaVuSans-54"/>
     <use x="44.083984" xlink:href="#DejaVuSans-65"/>
     <use x="105.607422" xlink:href="#DejaVuSans-6d"/>
     <use x="203.019531" xlink:href="#DejaVuSans-70"/>
     <use x="266.496094" xlink:href="#DejaVuSans-6f"/>
     <use x="327.677734" xlink:href="#DejaVuSans-72"/>
     <use x="368.791016" xlink:href="#DejaVuSans-61"/>
     <use x="430.070312" xlink:href="#DejaVuSans-6c"/>
     <use x="457.853516" xlink:href="#DejaVuSans-20"/>
     <use x="489.640625" xlink:href="#DejaVuSans-61"/>
     <use x="550.919922" xlink:href="#DejaVuSans-6c"/>
     <use x="578.703125" xlink:href="#DejaVuSans-69"/>
     <use x="606.486328" xlink:href="#DejaVuSans-67"/>
     <use x="669.962891" xlink:href="#DejaVuSans-6e"/>
     <use x="733.341797" xlink:href="#DejaVuSans-6d"/>
     <use x="830.753906" xlink:href="#DejaVuSans-65"/>
     <use x="892.277344" xlink:href="#DejaVuSans-6e"/>
     <use x="955.65625" xlink:href="#DejaVuSans-74"/>
    </g>
   </g>
  </g>
 </g>
 <defs>
  <clipPath id="p8eac8ade56">
   <rect height="136.517727" width="181.35" x="47.9975" y="22.318125"/>
  </clipPath>
 </defs>
</svg>
